<svg width="162" height="478" viewBox="0 0 162 478" fill="none" xmlns="http://www.w3.org/2000/svg">
<path d="M13.8691 468.938C19.8633 468.938 24.0117 465.651 24.8027 460.219H20.3555C19.6523 463.278 17.2441 465.088 13.8867 465.088C9.49219 465.088 6.71484 461.52 6.71484 455.824C6.71484 450.164 9.50977 446.578 13.8691 446.578C17.1562 446.578 19.7402 448.67 20.3379 451.852H24.8027C24.2402 446.403 19.7578 442.729 13.8691 442.729C6.66211 442.729 2.07422 447.739 2.07422 455.824C2.07422 463.963 6.62695 468.938 13.8691 468.938ZM36.0527 468.885C41.5195 468.885 45.0703 465.246 45.0703 459.199C45.0703 453.17 41.4844 449.496 36.0527 449.496C30.6211 449.496 27.0352 453.188 27.0352 459.199C27.0352 465.246 30.5859 468.885 36.0527 468.885ZM36.0527 465.422C33.2754 465.422 31.4824 463.172 31.4824 459.199C31.4824 455.244 33.293 452.977 36.0527 452.977C38.8301 452.977 40.623 455.244 40.623 459.199C40.623 463.172 38.8301 465.422 36.0527 465.422ZM47.8828 468.516H52.2598V457.67C52.2598 455.051 53.7539 453.451 56.2324 453.451C56.9707 453.451 57.6387 453.557 58.0078 453.698V449.742C57.6914 449.672 57.1992 449.567 56.6367 449.567C54.4395 449.567 52.8047 450.867 52.1719 453.135H52.084V449.883H47.8828V468.516ZM70.4883 449.567C67.7812 449.567 65.6719 450.938 64.6172 453.1H64.5293V449.883H60.2578V474.651H64.6348V465.422H64.7227C65.7422 467.514 67.8516 468.815 70.5586 468.815C75.2344 468.815 78.2227 465.141 78.2227 459.199C78.2227 453.24 75.2168 449.567 70.4883 449.567ZM69.1523 465.229C66.4277 465.229 64.6172 462.856 64.5996 459.199C64.6172 455.578 66.4277 453.17 69.1523 453.17C71.9824 453.17 73.7402 455.526 73.7402 459.199C73.7402 462.891 71.9824 465.229 69.1523 465.229ZM89.2793 468.885C94.7461 468.885 98.2969 465.246 98.2969 459.199C98.2969 453.17 94.7109 449.496 89.2793 449.496C83.8477 449.496 80.2617 453.188 80.2617 459.199C80.2617 465.246 83.8125 468.885 89.2793 468.885ZM89.2793 465.422C86.502 465.422 84.709 463.172 84.709 459.199C84.709 455.244 86.5195 452.977 89.2793 452.977C92.0566 452.977 93.8496 455.244 93.8496 459.199C93.8496 463.172 92.0566 465.422 89.2793 465.422ZM101.109 468.516H105.486V457.67C105.486 455.051 106.98 453.451 109.459 453.451C110.197 453.451 110.865 453.557 111.234 453.698V449.742C110.918 449.672 110.426 449.567 109.863 449.567C107.666 449.567 106.031 450.867 105.398 453.135H105.311V449.883H101.109V468.516ZM118.547 468.815C120.938 468.815 123.275 467.567 124.348 465.545H124.436V468.516H128.654V455.684C128.654 451.94 125.648 449.496 121.025 449.496C116.279 449.496 113.309 451.992 113.115 455.473H117.176C117.457 453.926 118.775 452.924 120.85 452.924C123.012 452.924 124.33 454.049 124.33 456V457.336L119.408 457.617C114.873 457.899 112.324 459.885 112.324 463.19C112.324 466.547 114.943 468.815 118.547 468.815ZM119.865 465.51C117.967 465.51 116.701 464.543 116.701 463.014C116.701 461.537 117.914 460.588 120.023 460.448L124.33 460.184V461.608C124.33 463.858 122.344 465.51 119.865 465.51ZM133.4 445.524V449.883H130.729V453.258H133.4V463.559C133.4 467.18 134.982 468.604 139.008 468.604C139.939 468.604 140.801 468.533 141.275 468.428V465.088C140.994 465.141 140.432 465.176 140.027 465.176C138.48 465.176 137.777 464.473 137.777 462.944V453.258H141.293V449.883H137.777V445.524H133.4ZM156.27 462.944C155.795 464.49 154.248 465.51 152.209 465.51C149.344 465.51 147.516 463.506 147.516 460.518V460.254H160.541V458.83C160.541 453.17 157.236 449.496 151.945 449.496C146.566 449.496 143.156 453.381 143.156 459.27C143.156 465.211 146.531 468.885 152.121 468.885C156.533 468.885 159.803 466.459 160.365 462.944H156.27ZM151.963 452.889C154.477 452.889 156.164 454.735 156.252 457.371H147.551C147.727 454.77 149.502 452.889 151.963 452.889Z" fill="#747474"/>
<path d="M68.2732 388.359C102.382 388.359 130.033 372.667 130.033 353.309C130.033 333.952 102.382 318.259 68.2732 318.259C34.1641 318.259 6.51318 333.952 6.51318 353.309C6.51318 372.667 34.1641 388.359 68.2732 388.359Z" fill="#E0E0E0"/>
<path d="M72.0231 50.4392C72.0132 51.0212 71.8314 51.5874 71.5004 52.0663C71.1694 52.5452 70.7041 52.9155 70.1631 53.1305C69.6221 53.3455 69.0296 53.3957 68.4602 53.2746C67.8908 53.1536 67.3698 52.8668 66.9631 52.4503C66.5563 52.0338 66.2819 51.5063 66.1743 50.9342C66.0668 50.362 66.1309 49.7709 66.3586 49.2351C66.5864 48.6993 66.9675 48.2429 67.4541 47.9233C67.9407 47.6038 68.511 47.4353 69.0931 47.4392C69.4835 47.4404 69.8696 47.5194 70.2291 47.6714C70.5886 47.8235 70.9143 48.0457 71.187 48.3249C71.4598 48.6042 71.6741 48.935 71.8177 49.2979C71.9613 49.6609 72.0311 50.0489 72.0231 50.4392V50.4392Z" fill="#37474F"/>
<path d="M65.5528 50.5891C63.6128 49.4491 63.6228 47.5891 65.5528 46.5091C66.6469 45.9547 67.8563 45.6658 69.0828 45.6658C70.3094 45.6658 71.5187 45.9547 72.6128 46.5091C74.5628 47.6391 74.5428 49.5091 72.6128 50.5791C71.5197 51.1358 70.3107 51.4269 69.084 51.4286C67.8573 51.4303 66.6475 51.1427 65.5528 50.5891V50.5891Z" fill="#455A64"/>
<path d="M65.4531 49.5291C63.4531 48.3491 63.4531 46.4691 65.4531 45.3191C66.584 44.751 67.8336 44.4593 69.0992 44.468C70.3647 44.4767 71.6101 44.7855 72.7331 45.3691C74.7331 46.5391 74.7331 48.3691 72.7331 49.5691C71.603 50.1388 70.3539 50.4322 69.0883 50.4252C67.8228 50.4182 66.5769 50.1111 65.4531 49.5291Z" fill="#37474F"/>
<path d="M65.353 48.4291C63.283 47.2191 63.293 45.2791 65.353 44.0991C66.5162 43.5073 67.8028 43.1987 69.108 43.1987C70.4131 43.1987 71.6998 43.5073 72.863 44.0991C74.923 45.3091 74.913 47.2491 72.863 48.4291C71.7002 49.0226 70.4134 49.332 69.108 49.332C67.8025 49.332 66.5157 49.0226 65.353 48.4291Z" fill="#455A64"/>
<path d="M65.2432 47.2991C63.1132 46.0491 63.1232 44.0491 65.2432 42.8291C66.4424 42.2204 67.7683 41.9031 69.1132 41.9031C70.458 41.9031 71.7839 42.2204 72.9832 42.8291C75.1132 44.0791 75.1032 46.0791 72.9832 47.2991C71.7844 47.9094 70.4583 48.2275 69.1132 48.2275C67.768 48.2275 66.4419 47.9094 65.2432 47.2991V47.2991Z" fill="#37474F"/>
<path d="M65.1729 46.1091C62.9929 44.8391 63.0129 42.7991 65.1729 41.5591C66.397 40.938 67.7503 40.6144 69.1229 40.6144C70.4956 40.6144 71.8488 40.938 73.0729 41.5591C75.2429 42.8291 75.2329 44.8691 73.0729 46.1191C71.8485 46.7402 70.4947 47.063 69.1217 47.0613C67.7488 47.0595 66.3957 46.7333 65.1729 46.1091V46.1091Z" fill="#455A64"/>
<path d="M69.3229 11.8291C67.4743 11.8133 65.6409 12.1637 63.9285 12.8602C62.2161 13.5566 60.6585 14.5854 59.3458 15.887C58.033 17.1886 56.991 18.7373 56.28 20.4437C55.5689 22.1501 55.2029 23.9805 55.2029 25.8291C55.1429 36.9691 64.3229 38.8291 64.2929 43.3591C64.326 43.7873 64.4734 44.1987 64.7196 44.5504C64.9659 44.9022 65.302 45.1815 65.693 45.3591C66.7546 45.8968 67.9279 46.177 69.1179 46.177C70.308 46.177 71.4813 45.8968 72.5429 45.3591C72.9395 45.1857 73.2818 44.9082 73.5335 44.5561C73.7852 44.2041 73.9371 43.7905 73.9729 43.3591V43.3591C73.9729 38.8691 83.2029 37.0691 83.2629 25.9391C83.2774 24.0964 82.928 22.269 82.2347 20.5616C81.5413 18.8543 80.5178 17.3006 79.2227 15.9897C77.9276 14.6788 76.3864 13.6365 74.6876 12.9225C72.9888 12.2085 71.1657 11.837 69.3229 11.8291V11.8291Z" fill="#407BFF"/>
<g opacity="0.6">
<path opacity="0.6" d="M69.3229 11.8291C67.4743 11.8133 65.6409 12.1637 63.9285 12.8602C62.2161 13.5566 60.6585 14.5854 59.3458 15.887C58.033 17.1886 56.991 18.7373 56.28 20.4437C55.5689 22.1501 55.2029 23.9805 55.2029 25.8291C55.1429 36.9691 64.3229 38.8291 64.2929 43.3591C64.326 43.7873 64.4734 44.1987 64.7196 44.5504C64.9659 44.9022 65.302 45.1815 65.693 45.3591C66.7546 45.8968 67.9279 46.177 69.1179 46.177C70.308 46.177 71.4813 45.8968 72.5429 45.3591C72.9395 45.1857 73.2818 44.9082 73.5335 44.5561C73.7852 44.2041 73.9371 43.7905 73.9729 43.3591V43.3591C73.9729 38.8691 83.2029 37.0691 83.2629 25.9391C83.2774 24.0964 82.928 22.269 82.2347 20.5616C81.5413 18.8543 80.5178 17.3006 79.2227 15.9897C77.9276 14.6788 76.3864 13.6365 74.6876 12.9225C72.9888 12.2085 71.1657 11.837 69.3229 11.8291V11.8291Z" fill="white"/>
</g>
<path d="M66.553 44.6891C65.133 43.8591 65.143 42.5291 66.553 41.6891C67.3511 41.285 68.2333 41.0743 69.128 41.0743C70.0227 41.0743 70.9048 41.285 71.7029 41.6891C73.1229 42.5191 73.1129 43.8491 71.7029 44.6891C70.9059 45.0972 70.0234 45.31 69.128 45.31C68.2326 45.31 67.35 45.0972 66.553 44.6891V44.6891Z" fill="#407BFF"/>
<path d="M71.0227 42.8891C70.8989 42.8866 70.7808 42.8363 70.6932 42.7487C70.6057 42.6611 70.5553 42.543 70.5527 42.4191C70.5706 39.7225 70.9063 37.0373 71.5527 34.4192C71.7403 33.6611 71.9775 32.9161 72.2627 32.1892C71.8395 32.032 71.434 31.8309 71.0527 31.5891C70.3607 31.1458 69.7402 30.5995 69.2127 29.9692C68.6688 30.5775 68.0388 31.1031 67.3428 31.5292C66.9578 31.7651 66.5488 31.9595 66.1228 32.1091C66.3958 32.8409 66.6229 33.5891 66.8027 34.3492C67.432 36.9692 67.7475 39.6547 67.7427 42.3491C67.7375 42.4747 67.6833 42.5932 67.5917 42.6792C67.5001 42.7652 67.3784 42.8119 67.2528 42.8091C67.1902 42.8079 67.1284 42.7941 67.0712 42.7687C67.014 42.7432 66.9625 42.7066 66.9197 42.6609C66.8768 42.6153 66.8435 42.5615 66.8217 42.5028C66.7999 42.4442 66.7901 42.3817 66.7927 42.3191C66.7894 39.7028 66.484 37.0955 65.8827 34.5492C65.7069 33.789 65.4729 33.0435 65.1827 32.3191C64.7101 32.4097 64.2225 32.3852 63.7613 32.2477C63.3001 32.1102 62.8787 31.8637 62.5327 31.5292C62.2651 31.2748 62.0984 30.9323 62.0635 30.5647C62.0286 30.1971 62.1278 29.8293 62.3428 29.5292C62.4815 29.3208 62.6795 29.1589 62.9113 29.0644C63.1431 28.9699 63.3979 28.9472 63.6427 28.9991C64.3927 29.1491 65.1127 29.9192 65.7327 31.1892C66.1213 31.0542 66.4936 30.8765 66.8428 30.6591C67.5152 30.2532 68.1193 29.7436 68.6327 29.1492C68.3438 28.7717 68.1346 28.3396 68.0177 27.8789C67.9009 27.4183 67.8787 26.9386 67.9527 26.4692C68.0374 26.1958 68.2073 25.9568 68.4377 25.787C68.668 25.6172 68.9466 25.5256 69.2327 25.5256C69.5189 25.5256 69.7975 25.6172 70.0278 25.787C70.2582 25.9568 70.4281 26.1958 70.5127 26.4692C70.5794 26.9391 70.5509 27.4176 70.429 27.8763C70.307 28.335 70.094 28.7644 69.8027 29.1391C70.3019 29.7484 70.9003 30.2691 71.5727 30.6791C71.9173 30.9011 72.2864 31.0823 72.6727 31.2192C73.3027 29.9592 74.0427 29.2192 74.7927 29.0492C75.038 29.0054 75.2906 29.0341 75.5198 29.1318C75.7489 29.2295 75.9446 29.3919 76.0827 29.5992C76.2932 29.9024 76.3878 30.2711 76.3493 30.6382C76.3107 31.0052 76.1416 31.3463 75.8728 31.5992C75.5229 31.93 75.0986 32.1718 74.6356 32.3041C74.1726 32.4363 73.6846 32.4552 73.2127 32.3591C72.9158 33.0804 72.6718 33.8224 72.4827 34.5792C71.8504 37.1184 71.5148 39.7225 71.4827 42.3392C71.4841 42.4022 71.473 42.4649 71.4501 42.5236C71.4271 42.5824 71.3929 42.636 71.3493 42.6815C71.3056 42.727 71.2534 42.7635 71.1957 42.7888C71.1379 42.8141 71.0758 42.8279 71.0127 42.8292L71.0227 42.8891ZM63.3827 29.9692C63.3027 29.9692 63.2127 29.9692 63.1027 30.1492C62.8727 30.4592 63.1028 30.8092 63.2328 30.8992C63.4316 31.0933 63.6711 31.2407 63.9341 31.3307C64.197 31.4206 64.4767 31.4509 64.7527 31.4192C64.2527 30.4892 63.7527 30.0391 63.4527 29.9791L63.3827 29.9692ZM73.6528 31.4692C73.9265 31.502 74.204 31.4752 74.4664 31.3906C74.7288 31.3061 74.9698 31.1657 75.1727 30.9791C75.2627 30.8791 75.5428 30.5392 75.3128 30.2192C75.0828 29.8992 75.0728 30.0292 74.9728 30.0492C74.6528 30.1392 74.1628 30.5791 73.6528 31.4991V31.4692ZM69.2327 26.5292C69.151 26.5169 69.0676 26.5358 68.999 26.5821C68.9305 26.6284 68.8819 26.6987 68.8627 26.7792C68.7911 27.3255 68.919 27.8794 69.2228 28.3391C69.5293 27.8842 69.6608 27.3336 69.5928 26.7892C69.5528 26.6592 69.4727 26.5592 69.2327 26.5592V26.5292Z" fill="white"/>
<path d="M69.433 6.4891C69.3533 6.49946 69.2726 6.49946 69.193 6.4891C68.949 6.4891 68.715 6.39217 68.5424 6.21964C68.3699 6.0471 68.2729 5.8131 68.2729 5.5691V0.829098C68.2966 0.602919 68.4032 0.393523 68.5722 0.241318C68.7412 0.0891123 68.9605 0.00488281 69.188 0.00488281C69.4154 0.00488281 69.6347 0.0891123 69.8037 0.241318C69.9727 0.393523 70.0793 0.602919 70.1029 0.829098V5.6091C70.1018 5.80859 70.0358 6.00229 69.9149 6.16102C69.7941 6.31975 69.6249 6.43489 69.433 6.4891V6.4891Z" fill="#E0E0E0"/>
<path d="M59.243 9.21911C59.0533 9.26408 58.8543 9.24763 58.6745 9.17215C58.4948 9.09666 58.3437 8.96604 58.243 8.79912L55.853 4.65911C55.7472 4.44941 55.7256 4.20718 55.7927 3.98208C55.8597 3.75697 56.0103 3.56604 56.2136 3.4484C56.4169 3.33077 56.6575 3.29535 56.8861 3.3494C57.1147 3.40345 57.3139 3.54288 57.443 3.73911L59.833 7.87911C59.9534 8.089 59.9863 8.33788 59.9246 8.57185C59.8628 8.80582 59.7113 9.00603 59.503 9.12911C59.4209 9.17095 59.3334 9.20124 59.243 9.21911Z" fill="#E0E0E0"/>
<path d="M51.7829 16.6891C51.6661 16.7214 51.5441 16.7302 51.4239 16.7147C51.3037 16.6992 51.1878 16.6599 51.0829 16.5991L46.9429 14.2091C46.7329 14.0877 46.5793 13.8882 46.5157 13.6541C46.452 13.42 46.4834 13.1702 46.6029 12.9591C46.7263 12.7483 46.9276 12.5946 47.1633 12.531C47.399 12.4673 47.6503 12.499 47.8629 12.6191L52.0229 14.9691C52.233 15.0905 52.3866 15.29 52.4502 15.5241C52.5139 15.7582 52.4825 16.008 52.3629 16.2191C52.3055 16.3344 52.224 16.436 52.124 16.5171C52.0239 16.5981 51.9076 16.6568 51.7829 16.6891V16.6891Z" fill="#E0E0E0"/>
<path d="M49.0231 26.8891C48.9435 26.8994 48.8628 26.8994 48.7831 26.8891H44.0231C43.8949 26.9025 43.7653 26.8888 43.6428 26.849C43.5202 26.8091 43.4074 26.7439 43.3116 26.6576C43.2158 26.5714 43.1393 26.4659 43.0868 26.3482C43.0344 26.2304 43.0073 26.103 43.0073 25.9741C43.0073 25.8452 43.0344 25.7177 43.0868 25.6C43.1393 25.4822 43.2158 25.3768 43.3116 25.2905C43.4074 25.2042 43.5202 25.1391 43.6428 25.0992C43.7653 25.0593 43.8949 25.0457 44.0231 25.0591H48.8031C49.0454 25.0591 49.2779 25.1546 49.4501 25.325C49.6224 25.4954 49.7205 25.7268 49.7231 25.9691C49.7274 26.1789 49.6605 26.384 49.5334 26.5511C49.4063 26.7181 49.2265 26.8372 49.0231 26.8891V26.8891Z" fill="#E0E0E0"/>
<path d="M91.2432 39.4491C91.1264 39.4809 91.0044 39.4893 90.8842 39.4739C90.7641 39.4585 90.6482 39.4194 90.5432 39.3591L86.4032 36.9691C86.1949 36.846 86.0434 36.6458 85.9817 36.4118C85.9199 36.1779 85.9528 35.929 86.0732 35.7191C86.1322 35.6139 86.2118 35.5217 86.3072 35.4479C86.4025 35.3741 86.5117 35.3202 86.6283 35.2894C86.7449 35.2586 86.8665 35.2516 86.9859 35.2687C87.1053 35.2858 87.22 35.3268 87.3232 35.3891L91.4632 37.7691C91.674 37.8924 91.8277 38.0937 91.8914 38.3295C91.955 38.5652 91.9233 38.8165 91.8032 39.0291C91.6776 39.236 91.477 39.3864 91.2432 39.4491Z" fill="#E0E0E0"/>
<path d="M47.3929 39.4491C47.5097 39.4815 47.6318 39.4902 47.752 39.4747C47.8722 39.4593 47.9881 39.42 48.0929 39.3591L52.2329 36.9691C52.3367 36.9087 52.4275 36.8285 52.5002 36.733C52.5729 36.6374 52.6261 36.5285 52.6568 36.4125C52.6874 36.2964 52.6949 36.1754 52.6788 36.0565C52.6627 35.9375 52.6233 35.8229 52.5629 35.7191C52.5025 35.6154 52.4222 35.5245 52.3267 35.4518C52.2312 35.3791 52.1223 35.3259 52.0063 35.2952C51.8902 35.2646 51.7692 35.2571 51.6502 35.2732C51.5313 35.2893 51.4166 35.3287 51.3129 35.3891L47.1729 37.7691C46.9658 37.8959 46.8158 38.0978 46.7543 38.3327C46.6928 38.5676 46.7245 38.8171 46.8429 39.0291C46.9646 39.2354 47.1619 39.386 47.3929 39.4491V39.4491Z" fill="#E0E0E0"/>
<path d="M94.6129 26.8691C94.5332 26.8788 94.4527 26.8788 94.373 26.8691H89.593C89.4648 26.8825 89.3352 26.8689 89.2126 26.829C89.09 26.7891 88.9772 26.724 88.8814 26.6377C88.7856 26.5514 88.7091 26.446 88.6567 26.3282C88.6043 26.2105 88.5771 26.083 88.5771 25.9541C88.5771 25.8252 88.6043 25.6978 88.6567 25.58C88.7091 25.4623 88.7856 25.3568 88.8814 25.2706C88.9772 25.1843 89.09 25.1191 89.2126 25.0792C89.3352 25.0394 89.4648 25.0257 89.593 25.0391H94.373C94.6143 25.0391 94.8458 25.135 95.0164 25.3057C95.1871 25.4763 95.283 25.7078 95.283 25.9491C95.2907 26.1554 95.2288 26.3583 95.1073 26.5252C94.9857 26.692 94.8116 26.8132 94.6129 26.8691V26.8691Z" fill="#E0E0E0"/>
<path d="M87.103 16.6791C86.8879 16.738 86.6589 16.7168 86.4583 16.6195C86.2577 16.5221 86.0993 16.3553 86.0125 16.1499C85.9257 15.9446 85.9165 15.7147 85.9864 15.503C86.0564 15.2913 86.2009 15.1122 86.393 14.9991L90.533 12.6091C90.6367 12.5487 90.7513 12.5093 90.8703 12.4932C90.9893 12.4771 91.1102 12.4846 91.2263 12.5152C91.3424 12.5458 91.4513 12.5991 91.5468 12.6718C91.6423 12.7445 91.7226 12.8353 91.783 12.9391C91.8434 13.0428 91.8828 13.1575 91.8989 13.2764C91.915 13.3954 91.9075 13.5164 91.8769 13.6324C91.8462 13.7485 91.793 13.8574 91.7203 13.9529C91.6475 14.0484 91.5567 14.1287 91.453 14.1891L87.313 16.5791C87.2471 16.6205 87.1766 16.654 87.103 16.6791Z" fill="#E0E0E0"/>
<path d="M79.6332 9.20911C79.5167 9.24384 79.3942 9.25377 79.2736 9.23827C79.1531 9.22277 79.0371 9.18218 78.9332 9.11911C78.7231 8.99768 78.5696 8.7982 78.5059 8.56409C78.4422 8.32998 78.4736 8.08019 78.5932 7.86911L81.0232 3.7291C81.1523 3.53287 81.3515 3.39344 81.5801 3.33939C81.8087 3.28534 82.0493 3.32076 82.2526 3.43839C82.4559 3.55603 82.6065 3.74696 82.6735 3.97207C82.7406 4.19717 82.719 4.4394 82.6132 4.6491L80.2232 8.7891C80.1603 8.89696 80.0751 8.9902 79.9734 9.06261C79.8717 9.13503 79.7557 9.18496 79.6332 9.20911V9.20911Z" fill="#E0E0E0"/>
<path d="M91.3532 86.2991V85.9691C92.9072 84.242 93.9067 82.088 94.2223 79.7862C94.5379 77.4843 94.155 75.1408 93.1232 73.0591C92.1759 70.9877 90.6089 69.2614 88.6386 68.1186C86.6682 66.9758 84.3917 66.4728 82.1232 66.6791V66.6791C78.7022 64.317 74.6301 63.0796 70.4732 63.1391C67.4284 63.1378 64.413 63.7364 61.5996 64.9007C58.7861 66.0651 56.2296 67.7723 54.076 69.9249C51.9225 72.0775 50.2142 74.6332 49.0487 77.4462C47.8831 80.2592 47.2832 83.2743 47.2832 86.3191C47.2832 88.3191 47.1932 90.3991 47.2832 92.4291C47.3432 95.6391 46.2332 97.4291 44.5132 98.6891C42.4532 100.149 40.1732 101.279 38.1332 102.759C36.2086 104.247 34.8679 106.364 34.3452 108.74C33.8224 111.116 34.1509 113.601 35.2732 115.759C35.9432 116.959 36.7032 118.119 36.0532 119.519C35.6541 120.284 35.0696 120.938 34.3532 121.419C33.6532 121.929 32.9132 122.359 32.2432 122.909C31.1434 123.868 30.3177 125.102 29.8504 126.485C29.3831 127.867 29.2909 129.349 29.5832 130.779C30.2732 134.149 32.7432 136.219 35.6732 137.659C41.6626 140.512 48.3022 141.723 54.9132 141.169C61.4832 140.679 66.7632 138.589 72.6232 135.559C78.3186 132.593 83.1591 128.217 86.6832 122.849C88.6589 120.214 90.056 117.191 90.7832 113.979C91.3209 110.728 91.5652 107.434 91.5132 104.139C91.5132 100.989 91.4032 93.3091 91.4032 87.8991L91.3532 86.2991Z" fill="#263238"/>
<path d="M81.2931 114.599C85.0931 114.999 90.4431 114.879 93.6331 120.369C96.8231 125.859 111.753 165.609 111.753 165.609H97.6131L81.2031 132.609L81.2931 114.599Z" fill="#B16668"/>
<path d="M40.7931 337.589C40.2897 340.416 40.0188 343.278 39.9831 346.149C39.8831 351.339 38.9231 353.149 38.8031 357.439C38.6531 362.309 39.4931 364.129 41.4731 366.869C43.4531 369.609 48.6331 372.079 50.8231 367.459C53.0131 362.839 52.7331 359.799 52.0331 355.029C51.3131 350.089 51.2131 347.369 50.7931 343.599C50.4231 340.279 49.9831 337.759 49.9831 337.759L40.7931 337.589Z" fill="#263238"/>
<path d="M55.5331 296.769L38.4331 296.459C38.6831 307.879 40.5031 326.879 40.7931 337.589C40.8531 339.589 40.7431 353.259 41.5031 357.409C42.6431 363.639 50.0431 362.799 50.4331 359.069C50.8231 355.339 49.9631 339.399 49.9831 337.759C49.9231 330.889 53.1431 312.959 54.8231 300.629C54.9131 300.029 55.4531 297.359 55.5331 296.769Z" fill="#B16668"/>
<path d="M80.663 328.709C80.663 328.709 79.783 328.759 79.663 329.479C79.543 330.199 79.453 331.689 79.103 333.099C78.5196 335.305 78.3134 337.594 78.493 339.869C78.783 341.459 82.423 343.869 84.913 344.259C87.403 344.649 90.913 347.129 92.863 348.969C95.9931 351.557 99.8681 353.078 103.923 353.309C108.073 353.309 110.973 351.929 112.343 349.709C113.713 347.489 111.093 347.209 106.343 344.129L102.653 341.739C95.133 336.829 92.383 334.189 90.253 329.279L80.663 328.709Z" fill="#263238"/>
<path d="M90.2929 326.039C90.1729 322.499 91.9829 296.459 91.9829 296.459L77.2729 298.119C80.7429 318.879 81.0229 325.969 80.6329 328.969C80.556 329.252 80.5256 329.546 80.5429 329.839C80.5429 333.839 85.103 336.049 88.653 338.729C90.063 339.799 93.6529 343.069 97.8829 344.509C100.623 345.439 105.673 345.789 106.323 344.129C102.003 340.829 96.123 336.519 92.683 332.749C91.023 330.969 90.4229 329.569 90.2929 326.039Z" fill="#B16668"/>
<path d="M41.3933 179.479C36.1633 202.409 42.6833 257.269 42.6833 257.269C42.4433 260.119 39.1933 265.719 37.9833 278.269C36.5533 293.059 40.6233 332.659 40.6233 332.659C40.6233 332.659 44.5332 335.579 50.2032 332.859C50.2032 332.859 60.5533 274.679 62.4033 259.979C64.0233 247.139 68.5533 216.129 68.5533 216.129L75.9633 259.909C74.6711 264.045 73.7343 268.284 73.1633 272.579C72.3333 281.229 80.7533 324.639 80.7533 324.639C80.7533 324.639 84.6932 326.719 90.2932 324.449C90.2932 324.449 95.7032 268.699 96.4832 258.279C97.4832 244.329 94.8432 200.739 93.4832 180.419L41.3933 179.479Z" fill="#37474F"/>
<path opacity="0.6" d="M68.5532 216.089L70.4532 203.029C70.4532 203.029 81.4532 201.549 86.4532 196.859C85.0229 199.099 83.1164 200.996 80.8694 202.415C78.6225 203.834 76.0903 204.74 73.4532 205.069L71.5032 216.889L75.1932 255.479L68.5532 216.089Z" fill="#263238"/>
<path d="M89.5531 148.769C90.2231 154.979 93.8231 182.329 93.8231 182.329C73.3231 193.269 44.5531 185.939 40.6631 181.429C44.1931 169.829 49.7331 163.549 51.8731 159.929L48.1331 144.269C48.1331 144.269 58.4931 131.599 51.4731 116.039L60.2131 115.099L75.5531 114.599H81.2931C83.7431 116.889 89.6531 122.369 92.1431 128.759C93.7531 132.889 95.3131 136.549 89.5531 148.769Z" fill="#F0F0F0"/>
<path d="M50.2131 152.449C50.3931 153.159 55.5431 159.989 57.8931 161.449C60.2431 162.909 53.7231 165.019 52.8031 168.729C50.9431 176.229 62.5431 186.089 76.9631 187.459C60.6631 190.139 43.6331 184.829 40.6631 181.389C44.1931 169.789 49.7431 163.479 51.8731 159.889L50.2131 152.449Z" fill="#E0E0E0"/>
<path d="M51.4731 116.039C41.0731 116.419 39.7331 121.379 37.6231 127.319C34.7531 135.619 29.3731 156.159 27.4331 165.609H43.1331L48.1331 144.269C57.5631 135.569 54.8431 120.429 51.4731 116.039Z" fill="#B16668"/>
<path d="M88.8334 98.7391C89.795 98.7372 90.7356 99.0205 91.5362 99.5533C92.3367 100.086 92.9612 100.844 93.3306 101.732C93.6999 102.62 93.7976 103.598 93.6112 104.541C93.4248 105.485 92.9627 106.351 92.2834 107.032C91.6042 107.713 90.7382 108.177 89.7952 108.365C88.8522 108.553 87.8745 108.458 86.9858 108.09C86.0972 107.723 85.3376 107.1 84.8031 106.3C84.2687 105.501 83.9834 104.561 83.9834 103.599C83.9834 102.312 84.494 101.077 85.4033 100.166C86.3126 99.255 87.5462 98.7418 88.8334 98.7391ZM88.8334 97.7391C87.6739 97.7372 86.54 98.0792 85.575 98.7219C84.61 99.3646 83.8574 100.279 83.4123 101.35C82.9673 102.42 82.8498 103.599 83.0748 104.736C83.2997 105.874 83.8571 106.919 84.6762 107.739C85.4953 108.56 86.5394 109.119 87.6764 109.346C88.8134 109.573 89.9922 109.457 91.0636 109.014C92.135 108.571 93.0507 107.82 93.6951 106.856C94.3394 105.892 94.6834 104.759 94.6834 103.599C94.6847 102.83 94.5343 102.068 94.2409 101.357C93.9475 100.646 93.5168 100 92.9735 99.4561C92.4301 98.9118 91.7848 98.48 91.0744 98.1854C90.364 97.8908 89.6024 97.7391 88.8334 97.7391V97.7391Z" fill="#407BFF"/>
<path d="M85.2231 74.3691C87.8331 75.8291 91.4331 78.8691 90.3331 92.3691C89.4731 102.929 85.4531 106.819 83.6031 107.679C81.7531 108.539 79.3931 108.679 75.8731 108.159L75.9731 114.479C75.9731 114.479 82.7831 121.709 81.9231 123.709C80.9231 126.129 72.9731 125.819 69.5631 124.329C65.4905 122.457 62.2357 119.17 60.4031 115.079V99.4591C60.4031 99.4591 58.4031 101.459 54.8131 98.5291C51.8731 96.0691 50.8131 91.8291 53.0031 89.5291C53.5812 88.9385 54.3017 88.5067 55.0952 88.2755C55.8886 88.0443 56.7283 88.0214 57.5331 88.2091C58.4068 88.4417 59.2159 88.8707 59.8987 89.4634C60.5815 90.0561 61.12 90.7968 61.4731 91.6291C61.5308 91.8019 61.6289 91.9583 61.7594 92.0853C61.8899 92.2123 62.0489 92.3062 62.2231 92.3591C62.3585 92.3711 62.4947 92.35 62.6201 92.2978C62.7455 92.2455 62.8563 92.1636 62.9431 92.0591C63.1202 91.8515 63.2529 91.6099 63.3331 91.3491C64.1731 89.1391 63.9131 86.7691 64.5231 84.5091C65.0148 82.7582 65.8625 81.1275 67.0131 79.7191C69.7323 76.502 73.5778 74.4452 77.7631 73.9691C80.2544 73.6762 82.7775 73.8115 85.2231 74.3691V74.3691Z" fill="#B16668"/>
<path d="M87.073 74.2791C87.953 78.4591 85.073 85.5091 77.583 85.2791C77.583 85.2791 80.633 82.9591 81.013 80.3691C79.6714 82.2086 77.9184 83.709 75.894 84.7508C73.8696 85.7925 71.6296 86.3467 69.353 86.3691C62.973 86.6391 61.353 85.1991 61.353 85.1991C61.353 85.1991 67.563 64.7991 87.073 74.2791Z" fill="#263238"/>
<path d="M74.2132 88.7391C74.2327 89.1432 74.0945 89.5391 73.8277 89.8432C73.5609 90.1473 73.1864 90.3359 72.7832 90.3691C72.5863 90.3869 72.3879 90.3651 72.1997 90.3049C72.0114 90.2447 71.8371 90.1475 71.687 90.0188C71.537 89.8902 71.4142 89.7328 71.3259 89.556C71.2377 89.3791 71.1857 89.1864 71.1732 88.9891C71.1538 88.5834 71.2934 88.1862 71.5623 87.8818C71.8312 87.5774 72.2082 87.3899 72.6132 87.3591C72.8098 87.34 73.0082 87.3609 73.1965 87.4206C73.3848 87.4803 73.559 87.5776 73.7086 87.7067C73.8581 87.8357 73.98 87.9937 74.0667 88.1712C74.1535 88.3486 74.2033 88.5419 74.2132 88.7391V88.7391Z" fill="#263238"/>
<path d="M74.6833 98.6591L79.9533 100.209C79.872 100.566 79.7192 100.902 79.504 101.198C79.2889 101.493 79.016 101.742 78.7018 101.929C78.3876 102.116 78.0387 102.237 77.6763 102.285C77.3138 102.334 76.9454 102.308 76.5933 102.209C75.8737 101.985 75.2707 101.488 74.9136 100.824C74.5565 100.16 74.4738 99.3831 74.6833 98.6591V98.6591Z" fill="#9A4A4D"/>
<path d="M88.0229 85.6892L85.0229 84.0292C85.1212 83.8271 85.2596 83.647 85.4295 83.5C85.5994 83.3529 85.7974 83.2419 86.0116 83.1736C86.2257 83.1054 86.4514 83.0813 86.6751 83.1029C86.8988 83.1245 87.1158 83.1912 87.313 83.2992C87.7097 83.5357 88.0029 83.9128 88.1345 84.3556C88.266 84.7983 88.2262 85.2744 88.0229 85.6892Z" fill="#263238"/>
<path d="M86.5631 88.4791C86.58 88.8842 86.4395 89.28 86.1711 89.5839C85.9027 89.8877 85.5271 90.0759 85.1231 90.1091C84.926 90.1283 84.727 90.1075 84.5382 90.0478C84.3493 89.9882 84.1744 89.891 84.0241 89.7621C83.8737 89.6333 83.7509 89.4753 83.6631 89.2978C83.5753 89.1203 83.5243 88.9269 83.5131 88.7291C83.4962 88.3241 83.6367 87.9282 83.9051 87.6244C84.1735 87.3206 84.549 87.1323 84.9531 87.0991C85.1499 87.0814 85.3483 87.1032 85.5366 87.1634C85.7249 87.2235 85.8992 87.3208 86.0492 87.4494C86.1993 87.5781 86.3221 87.7354 86.4104 87.9123C86.4986 88.0891 86.5505 88.2819 86.5631 88.4791V88.4791Z" fill="#263238"/>
<path d="M78.813 87.8691L79.233 96.5691L83.773 95.0491L78.813 87.8691Z" fill="#9A4A4D"/>
<path d="M75.8734 108.179C72.1634 107.479 64.4634 105.179 63.2134 102.179C63.7132 103.872 64.718 105.372 66.0934 106.479C68.4034 108.379 75.9134 110.379 75.9134 110.379L75.8734 108.179Z" fill="#9A4A4D"/>
<path d="M60.403 107.779V108.909C59.6086 109.276 58.742 109.461 57.8669 109.449C56.9918 109.436 56.1306 109.228 55.3467 108.839C54.5629 108.45 53.8763 107.89 53.3376 107.2C52.7989 106.51 52.4219 105.708 52.2342 104.854C52.0466 103.999 52.0531 103.113 52.2533 102.261C52.4535 101.409 52.8423 100.613 53.3911 99.9309C53.9399 99.2492 54.6346 98.6992 55.4242 98.3216C56.2137 97.9441 57.0778 97.7484 57.953 97.7491C58.0848 97.7517 58.2105 97.8052 58.3037 97.8984C58.397 97.9917 58.4505 98.1173 58.453 98.2491C58.453 98.3818 58.4003 98.5089 58.3066 98.6027C58.2128 98.6965 58.0856 98.7491 57.953 98.7491C56.6667 98.7491 55.4331 99.2601 54.5236 100.17C53.614 101.079 53.103 102.313 53.103 103.599C53.103 104.885 53.614 106.119 54.5236 107.029C55.4331 107.938 56.6667 108.449 57.953 108.449C58.8152 108.451 59.6619 108.22 60.403 107.779Z" fill="#407BFF"/>
<path d="M134.113 157.129H5.99316C3.23174 157.129 0.993164 159.368 0.993164 162.129V238.229C0.993164 240.991 3.23174 243.229 5.99316 243.229H134.113C136.875 243.229 139.113 240.991 139.113 238.229V162.129C139.113 159.368 136.875 157.129 134.113 157.129Z" fill="#407BFF"/>
<path opacity="0.7" d="M128.553 162.579H11.5533C9.09006 162.579 7.09326 164.576 7.09326 167.039V233.319C7.09326 235.782 9.09006 237.779 11.5533 237.779H128.553C131.016 237.779 133.013 235.782 133.013 233.319V167.039C133.013 164.576 131.016 162.579 128.553 162.579Z" fill="white"/>
<path d="M13.4331 232.069L51.4331 197.509L78.1531 221.039L70.0531 209.489L93.1631 175.049L126.683 232.069H13.4331Z" fill="#FAFAFA"/>
<path d="M46.9455 183.05C48.1545 177.927 44.982 172.795 39.8595 171.586C34.737 170.377 29.6042 173.549 28.3952 178.672C27.1862 183.794 30.3587 188.927 35.4812 190.136C40.6037 191.345 45.7365 188.172 46.9455 183.05Z" fill="#FAFAFA"/>
<path d="M124.503 152.139C117.893 153.219 115.993 157.139 115.993 157.139H121.403C121.403 157.139 122.083 158.959 120.263 165.779C119.623 168.169 123.163 168.239 123.263 167.339C123.903 168.809 128.553 170.859 132.033 168.549C135.213 166.439 136.643 163.209 135.933 157.139C134.713 150.349 125.663 151.969 124.503 152.139Z" fill="#B16668"/>
<path d="M16.4832 152.139C23.1032 153.219 25.0032 157.139 25.0032 157.139H19.5933C19.5933 157.139 18.9132 158.959 20.7332 165.779C21.3732 168.169 17.8332 168.239 17.7332 167.339C17.0932 168.809 12.4532 170.859 8.97324 168.549C5.78324 166.439 4.36325 163.209 5.07325 157.139C6.28325 150.349 15.3232 151.969 16.4832 152.139Z" fill="#B16668"/>
</svg>
