<svg width="171" height="490" viewBox="0 0 171 490" fill="none" xmlns="http://www.w3.org/2000/svg">
<path d="M27.0342 480.938C33.0283 480.938 37.1768 477.651 37.9678 472.219H33.5205C32.8174 475.278 30.4092 477.088 27.0518 477.088C22.6572 477.088 19.8799 473.52 19.8799 467.824C19.8799 462.164 22.6748 458.578 27.0342 458.578C30.3213 458.578 32.9053 460.67 33.5029 463.852H37.9678C37.4053 458.403 32.9229 454.729 27.0342 454.729C19.8271 454.729 15.2393 459.739 15.2393 467.824C15.2393 475.963 19.792 480.938 27.0342 480.938ZM40.9736 480.516H45.3506V469.67C45.3506 467.051 46.8447 465.451 49.3232 465.451C50.0615 465.451 50.7295 465.557 51.0986 465.698V461.742C50.7822 461.672 50.29 461.567 49.7275 461.567C47.5303 461.567 45.8955 462.867 45.2627 465.135H45.1748V461.883H40.9736V480.516ZM64.9854 474.944C64.5107 476.49 62.9639 477.51 60.9248 477.51C58.0596 477.51 56.2314 475.506 56.2314 472.518V472.254H69.2568V470.83C69.2568 465.17 65.9521 461.496 60.6611 461.496C55.2822 461.496 51.8721 465.381 51.8721 471.27C51.8721 477.211 55.2471 480.885 60.8369 480.885C65.249 480.885 68.5186 478.459 69.0811 474.944H64.9854ZM60.6787 464.889C63.1924 464.889 64.8799 466.735 64.9678 469.371H56.2666C56.4424 466.77 58.2178 464.889 60.6787 464.889ZM77.5713 480.815C79.9619 480.815 82.2998 479.567 83.3721 477.545H83.46V480.516H87.6787V467.684C87.6787 463.94 84.6729 461.496 80.0498 461.496C75.3037 461.496 72.333 463.992 72.1396 467.473H76.2002C76.4814 465.926 77.7998 464.924 79.874 464.924C82.0361 464.924 83.3545 466.049 83.3545 468V469.336L78.4326 469.617C73.8975 469.899 71.3486 471.885 71.3486 475.19C71.3486 478.547 73.9678 480.815 77.5713 480.815ZM78.8896 477.51C76.9912 477.51 75.7256 476.543 75.7256 475.014C75.7256 473.537 76.9385 472.588 79.0479 472.448L83.3545 472.184V473.608C83.3545 475.858 81.3682 477.51 78.8896 477.51ZM92.4248 457.524V461.883H89.7529V465.258H92.4248V475.559C92.4248 479.18 94.0068 480.604 98.0322 480.604C98.9639 480.604 99.8252 480.533 100.3 480.428V477.088C100.019 477.141 99.4561 477.176 99.0518 477.176C97.5049 477.176 96.8018 476.473 96.8018 474.944V465.258H100.317V461.883H96.8018V457.524H92.4248ZM105.591 459.071C106.927 459.071 107.981 457.998 107.981 456.698C107.981 455.379 106.927 454.324 105.591 454.324C104.255 454.324 103.183 455.379 103.183 456.698C103.183 457.998 104.255 459.071 105.591 459.071ZM103.411 480.516H107.788V461.883H103.411V480.516ZM127.862 461.883H123.292L118.968 476.455H118.88L114.556 461.883H109.88L116.489 480.516H121.306L127.862 461.883ZM141.696 474.944C141.222 476.49 139.675 477.51 137.636 477.51C134.771 477.51 132.942 475.506 132.942 472.518V472.254H145.968V470.83C145.968 465.17 142.663 461.496 137.372 461.496C131.993 461.496 128.583 465.381 128.583 471.27C128.583 477.211 131.958 480.885 137.548 480.885C141.96 480.885 145.229 478.459 145.792 474.944H141.696ZM137.39 464.889C139.903 464.889 141.591 466.735 141.679 469.371H132.978C133.153 466.77 134.929 464.889 137.39 464.889ZM148.464 467.227C148.464 469.987 150.257 471.744 153.825 472.535L156.919 473.221C158.87 473.66 159.538 474.293 159.538 475.418C159.538 476.807 158.22 477.686 156.093 477.686C153.878 477.686 152.63 476.772 152.296 474.961H147.989C148.341 478.565 151.224 480.885 156.093 480.885C160.663 480.885 163.897 478.512 163.897 474.996C163.897 472.289 162.403 470.795 158.536 469.934L155.442 469.248C153.491 468.809 152.718 468.071 152.718 466.998C152.718 465.627 154.001 464.713 155.935 464.713C157.956 464.713 159.204 465.785 159.38 467.473H163.458C163.353 463.94 160.47 461.496 155.935 461.496C151.435 461.496 148.464 463.817 148.464 467.227Z" fill="#747474"/>
<path d="M142.32 41.741L131.03 78.451L130.26 78.001V78.901L125.14 75.901L113.97 52.491C113.794 52.0306 113.794 51.5214 113.97 51.061C116.949 44.2508 118.845 37.0168 119.59 29.621C119.624 29.3822 119.708 29.1533 119.837 28.9498C119.967 28.7463 120.138 28.5728 120.34 28.441L130.78 22.441C130.992 22.3322 131.227 22.2755 131.465 22.2755C131.703 22.2755 131.938 22.3322 132.15 22.441L135.9 24.611C136.102 24.7416 136.274 24.9134 136.405 25.115C136.536 25.3166 136.623 25.5435 136.66 25.781C137.36 32.321 139.36 37.161 142.07 40.421C142.205 40.6097 142.297 40.8256 142.34 41.0535C142.383 41.2814 142.377 41.516 142.32 41.741V41.741Z" fill="#E0E0E0"/>
<path opacity="0.05" d="M142.32 41.741L131.03 78.451L130.26 78.001V78.901L125.14 75.901L113.97 52.491C113.794 52.0306 113.794 51.5214 113.97 51.061C116.949 44.2508 118.845 37.0168 119.59 29.621C119.624 29.3822 119.708 29.1533 119.837 28.9498C119.967 28.7463 120.138 28.5728 120.34 28.441L130.78 22.441C130.992 22.3322 131.227 22.2755 131.465 22.2755C131.703 22.2755 131.938 22.3322 132.15 22.441L135.9 24.611C136.102 24.7416 136.274 24.9134 136.405 25.115C136.536 25.3166 136.623 25.5435 136.66 25.781C137.36 32.321 139.36 37.161 142.07 40.421C142.205 40.6097 142.297 40.8256 142.34 41.0535C142.383 41.2814 142.377 41.516 142.32 41.741V41.741Z" fill="black"/>
<path d="M142.32 41.741L131.03 78.451V47.781C131.587 47.2836 132.035 46.6773 132.348 45.9996C132.661 45.3219 132.832 44.5873 132.85 43.841C132.85 42.221 131.85 41.471 130.65 42.181C129.978 42.6604 129.429 43.2915 129.047 44.023C128.664 44.7544 128.46 45.5657 128.45 46.391C128.45 47.831 129.23 48.581 130.26 48.231V78.901L119.08 55.441C118.904 54.9806 118.904 54.4714 119.08 54.011C122.054 47.1993 123.95 39.966 124.7 32.571C124.735 32.3326 124.82 32.1042 124.949 31.9009C125.078 31.6975 125.249 31.5238 125.45 31.391L135.89 25.391C135.961 25.3354 136.046 25.3013 136.135 25.2927C136.225 25.2841 136.315 25.3013 136.395 25.3424C136.475 25.3834 136.542 25.4466 136.587 25.5243C136.632 25.6021 136.654 25.6912 136.65 25.781C137.35 32.321 139.35 37.161 142.06 40.421C142.196 40.609 142.291 40.8244 142.335 41.0524C142.38 41.2803 142.375 41.5153 142.32 41.741V41.741Z" fill="#EBEBEB"/>
<path d="M124.89 31.971C124.776 32.1529 124.705 32.3579 124.68 32.571C123.931 39.966 122.035 47.1993 119.06 54.011C118.968 54.2636 118.927 54.5323 118.94 54.801L113.82 51.801C113.806 51.5355 113.846 51.2698 113.94 51.021C116.918 44.2104 118.814 36.9766 119.56 29.581C119.589 29.3658 119.661 29.1584 119.77 28.971L124.89 31.971Z" fill="#F5F5F5"/>
<path d="M136.63 25.641C136.616 25.5624 136.582 25.4887 136.531 25.4272C136.48 25.3657 136.414 25.3185 136.34 25.2903C136.265 25.2621 136.184 25.2537 136.106 25.2661C136.027 25.2785 135.952 25.3112 135.89 25.361L125.45 31.361C125.224 31.506 125.039 31.7054 124.91 31.941L119.79 28.941C119.918 28.7081 120.104 28.5118 120.33 28.371L130.77 22.371C130.982 22.2622 131.217 22.2054 131.455 22.2054C131.693 22.2054 131.928 22.2622 132.14 22.371L135.89 24.541C136.271 24.7972 136.536 25.1919 136.63 25.641Z" fill="#E0E0E0"/>
<path d="M117.26 19.081L133.8 9.53102C134.012 9.42222 134.247 9.36548 134.485 9.36548C134.723 9.36548 134.958 9.42222 135.17 9.53102L138.92 11.691C139.118 11.8207 139.283 11.995 139.401 12.2C139.519 12.405 139.587 12.6348 139.6 12.871V20.161C139.589 20.3976 139.521 20.628 139.403 20.8333C139.285 21.0385 139.119 21.2125 138.92 21.341L122.38 30.891C122.17 30.9997 121.937 31.0565 121.7 31.0565C121.463 31.0565 121.23 30.9997 121.02 30.891L117.26 28.731C117.063 28.5986 116.898 28.4223 116.78 28.2158C116.662 28.0094 116.594 27.7784 116.58 27.541V20.311C116.584 20.0661 116.649 19.8259 116.767 19.6115C116.886 19.397 117.055 19.2149 117.26 19.081Z" fill="#EBEBEB"/>
<path d="M139.63 12.771C139.58 12.411 139.29 12.281 138.95 12.481L122.41 22.031C122.209 22.1573 122.044 22.3328 121.93 22.541L116.81 19.591C116.924 19.3831 117.089 19.2076 117.29 19.081L133.83 9.53102C134.042 9.42222 134.277 9.36548 134.515 9.36548C134.753 9.36548 134.988 9.42222 135.2 9.53102L138.95 11.691C139.132 11.8143 139.286 11.9739 139.403 12.1598C139.52 12.3457 139.597 12.5538 139.63 12.771V12.771Z" fill="#FAFAFA"/>
<path d="M122.27 30.951H122.21H122.14H122.06H122H121.89C121.604 30.9825 121.314 30.9267 121.06 30.791L117.3 28.631C117.103 28.5002 116.94 28.3255 116.822 28.1208C116.704 27.9161 116.635 27.6868 116.62 27.451V20.311C116.629 20.0743 116.698 19.8438 116.82 19.641L121.94 22.591C121.814 22.7919 121.744 23.0236 121.74 23.261V30.551C121.74 30.861 121.89 31.041 122.12 31.041H122.21L122.27 30.951Z" fill="#E6E6E6"/>
<path d="M130.26 78.901L125.14 75.901L113.97 52.491C113.881 52.2854 113.83 52.065 113.82 51.841L118.94 54.841C118.948 55.0643 118.995 55.2844 119.08 55.491L130.26 78.901Z" fill="#E0E0E0"/>
<path opacity="0.15" d="M131.03 47.781V78.451L130.26 78.001V48.231C129.26 48.581 128.45 47.831 128.45 46.391V46.311L131.03 47.781Z" fill="black"/>
<path d="M154.68 38.961C154.68 38.131 154.09 37.791 153.37 38.211C152.989 38.4572 152.671 38.7904 152.443 39.1833C152.216 39.5762 152.084 40.0175 152.06 40.471C152.06 41.141 152.45 41.471 152.98 41.371C152.24 56.781 141.46 74.931 128.3 82.531C121.77 86.311 115.63 86.921 111.05 84.311C106.71 81.811 104.22 76.661 103.96 69.741C104.519 69.2209 104.853 68.5034 104.89 67.741C104.89 66.911 104.3 66.571 103.58 66.991C103.201 67.2383 102.885 67.572 102.659 67.9649C102.433 68.3577 102.303 68.7984 102.28 69.251C102.28 69.961 102.7 70.311 103.28 70.131C103.63 77.131 106.23 82.321 110.7 84.901C112.73 86.0502 115.028 86.6403 117.36 86.611C121.356 86.4531 125.241 85.2535 128.63 83.131C142.09 75.361 153.1 56.701 153.63 40.991C154.234 40.4794 154.612 39.7497 154.68 38.961V38.961Z" fill="#E0E0E0"/>
<path d="M153.37 67.021C153.051 67.2284 152.777 67.4969 152.562 67.811C152.348 68.1251 152.197 68.4785 152.12 68.851L104.82 96.151C104.65 95.641 104.17 95.481 103.58 95.821C103.201 96.0683 102.885 96.402 102.659 96.7949C102.433 97.1877 102.303 97.6284 102.28 98.081C102.28 98.911 102.86 99.251 103.58 98.831C103.909 98.6184 104.191 98.3412 104.409 98.0164C104.628 97.6915 104.778 97.3256 104.85 96.941L152.12 69.651C152.27 70.201 152.77 70.381 153.37 70.031C153.751 69.7836 154.068 69.4501 154.295 69.0575C154.523 68.6648 154.655 68.2241 154.68 67.771C154.68 66.941 154.09 66.601 153.37 67.021Z" fill="#E0E0E0"/>
<path d="M105.41 68.451C105.412 68.8193 105.304 69.1799 105.101 69.4871C104.898 69.7943 104.608 70.0342 104.269 70.1765C103.929 70.3189 103.555 70.3571 103.193 70.2865C102.832 70.2158 102.499 70.0395 102.238 69.7798C101.977 69.52 101.799 69.1887 101.726 68.8276C101.654 68.4665 101.69 68.092 101.831 67.7515C101.971 67.4111 102.209 67.12 102.516 66.9152C102.822 66.7104 103.182 66.601 103.55 66.601C104.041 66.601 104.513 66.7956 104.862 67.1423C105.21 67.4889 105.407 67.9594 105.41 68.451V68.451Z" fill="#E0E0E0"/>
<path d="M105.34 97.3111C105.34 97.6789 105.231 98.0385 105.027 98.3444C104.822 98.6503 104.532 98.8887 104.192 99.0295C103.852 99.1702 103.478 99.2071 103.117 99.1353C102.756 99.0635 102.425 98.8864 102.165 98.6263C101.905 98.3661 101.728 98.0347 101.656 97.6739C101.584 97.3131 101.621 96.9391 101.762 96.5993C101.902 96.2594 102.141 95.9689 102.447 95.7645C102.753 95.5601 103.112 95.451 103.48 95.451C103.724 95.451 103.966 95.4992 104.192 95.5926C104.418 95.6861 104.623 95.8231 104.795 95.9958C104.968 96.1686 105.105 96.3736 105.199 96.5993C105.292 96.8249 105.34 97.0668 105.34 97.3111V97.3111Z" fill="#E0E0E0"/>
<path d="M155.33 68.571C155.33 68.9393 155.221 69.2993 155.016 69.6054C154.811 69.9115 154.52 70.1499 154.18 70.2904C153.839 70.4309 153.465 70.4671 153.104 70.3945C152.743 70.3219 152.411 70.1438 152.152 69.8827C151.892 69.6215 151.716 69.2892 151.645 68.9277C151.574 68.5663 151.613 68.192 151.755 67.8523C151.897 67.5126 152.137 67.2228 152.444 67.0196C152.751 66.8164 153.112 66.709 153.48 66.711C153.724 66.711 153.966 66.7592 154.191 66.8528C154.416 66.9464 154.62 67.0836 154.792 67.2564C154.964 67.4293 155.1 67.6344 155.192 67.86C155.285 68.0856 155.332 68.3272 155.33 68.571V68.571Z" fill="#E0E0E0"/>
<path d="M155.16 39.681C155.16 40.0489 155.051 40.4085 154.846 40.7144C154.642 41.0202 154.352 41.2586 154.012 41.3994C153.672 41.5402 153.298 41.577 152.937 41.5053C152.576 41.4335 152.245 41.2564 151.985 40.9962C151.725 40.7361 151.547 40.4047 151.476 40.0439C151.404 39.6831 151.441 39.3091 151.582 38.9692C151.722 38.6293 151.961 38.3389 152.267 38.1345C152.572 37.9301 152.932 37.821 153.3 37.821C153.545 37.8197 153.787 37.8669 154.013 37.9599C154.24 38.0529 154.445 38.1899 154.618 38.3628C154.791 38.5358 154.928 38.7414 155.021 38.9677C155.114 39.1939 155.161 39.4364 155.16 39.681V39.681Z" fill="#E0E0E0"/>
<path d="M99.87 0.771118V16.1811L98.47 16.9711V12.1111C98.47 9.49112 96.33 8.59112 93.7 10.1111L87.16 13.8911V36.8911C87.16 39.8911 89.02 41.3211 91.31 40.0011L95.38 37.6511L99.83 40.2211L77.63 53.0611L74.63 51.3111L73.18 52.1511V50.4911L77.29 48.1211C79.58 46.7911 81.44 43.2611 81.44 40.2211V17.2211L74.9 21.0011C72.27 22.5211 70.13 25.8711 70.13 28.4911V33.3111L68.73 34.1411V18.7511L99.87 0.771118Z" fill="#E0E0E0"/>
<path d="M102.92 19.5411L98.4697 16.9711V9.28113L102.92 10.1311V19.5411Z" fill="#E0E0E0"/>
<path d="M104.32 3.31116V18.7512L102.92 19.5412V14.6712C102.92 12.0512 100.78 11.1612 98.1502 12.6712L91.6302 16.4612V39.4612C91.6302 42.4612 93.4902 43.8912 95.7802 42.5712L99.8902 40.2012V41.8712L77.6302 54.7312V53.0612L81.7302 50.6912C84.0202 49.3612 85.8802 45.8312 85.8802 42.7912V19.7912L79.3402 23.5712C76.7102 25.0912 74.5802 28.4412 74.5802 31.0612V35.9212L73.1802 36.7612V21.3112L104.32 3.31116Z" fill="#F0F0F0"/>
<path d="M99.87 0.771118L104.32 3.34112L73.16 21.3211L68.71 18.7511L99.87 0.771118Z" fill="#FAFAFA"/>
<path d="M68.71 18.7511L73.16 21.3211V36.7411L68.71 34.1711V18.7511Z" fill="#EBEBEB"/>
<path d="M73.1602 50.4911L77.6202 53.0611V54.7311L73.1602 52.1611V50.4911Z" fill="#EBEBEB"/>
<path d="M80.0001 399.231C111.988 399.231 137.92 384.51 137.92 366.351C137.92 348.192 111.988 333.471 80.0001 333.471C48.0117 333.471 22.0801 348.192 22.0801 366.351C22.0801 384.51 48.0117 399.231 80.0001 399.231Z" fill="#E0E0E0"/>
<path d="M35.0803 170.041C34.4503 165.661 43.7403 141.671 48.8403 130.411C53.3103 120.531 56.7003 121.101 64.4203 120.671L64.5903 137.611L49.1403 170.221" fill="#FFA8A7"/>
<path d="M83.7698 120.451L93.3499 121.211C91.1799 134.051 99.5798 146.291 99.5798 146.291L93.8799 163.871C94.0299 166.201 100.79 174.301 103.81 184.651C96.8099 194.071 68.2399 197.381 56.9799 189.111C57.0399 183.331 56.7999 175.311 57.1399 171.941L55.2299 155.441C41.1199 143.861 58.1499 126.221 64.4199 120.621H70.2899L83.7698 120.451Z" fill="#407BFF"/>
<path opacity="0.6" d="M83.7698 120.451L93.3499 121.211C91.1799 134.051 99.5798 146.291 99.5798 146.291L93.8799 163.871C94.0299 166.201 100.79 174.301 103.81 184.651C96.8099 194.071 68.2399 197.381 56.9799 189.111C57.0399 183.331 56.7999 175.311 57.1399 171.941L55.2299 155.441C41.1199 143.861 58.1499 126.221 64.4199 120.621H70.2899L83.7698 120.451Z" fill="white"/>
<path d="M113.56 333.581C113.56 333.581 116.29 301.581 114.2 286.441C112.41 273.441 110.31 268.001 109.93 265.041C109.93 265.041 106.72 234.441 106.45 208.431C106.33 196.091 105.25 182.541 96 168.301L95.67 167.741C95.04 172.531 87.81 175.851 81.28 176.801C75 177.711 67.09 176.711 57.6 173.801C55.92 186.191 54.32 209.751 52.75 235.431C51.98 247.981 52.53 258.501 52.59 266.551C52.67 277.471 55.28 326.061 55.28 326.061V327.861C55.28 329.861 54.85 331.251 53.56 334.461C51.9495 338.595 49.6391 342.421 46.73 345.771C45.82 346.771 39.53 352.251 38.73 353.421C36.03 356.581 41.62 358.351 45.78 357.801C50.17 357.211 56.98 355.551 58.91 352.871C60.2 351.101 61.17 344.871 62.49 343.061C66.95 336.971 68.79 334.361 68.82 332.411C68.88 328.901 67.67 327.511 67.24 325.531C67.6 321.381 75.07 293.651 75.24 281.581C75.31 275.831 73.7 265.681 73.7 265.681L79.7 223.551C81.7 235.271 85.7 261.711 87.12 270.121C89.05 281.701 95.64 307.051 99.78 322.381C101.33 328.141 102.09 330.711 102.55 334.491L102.68 335.841C102.78 337.561 103.52 355.841 104.2 359.731C105.62 367.791 112.79 366.731 113.94 360.261C114.94 354.701 113.69 337.521 113.66 335.411L113.56 333.581Z" fill="#FFA8A7"/>
<path d="M113.79 333.471C115.79 333.471 114.48 341.331 115 346.371C115.56 351.771 117.33 355.711 117.84 360.141C118.42 365.201 117.97 367.321 116.15 371.471C114.74 374.711 107.65 379.141 104.96 374.471C102.27 369.801 101.69 364.571 101.96 359.531C102.28 354.321 102.59 350.531 102.7 346.531C102.79 343.041 100.1 334.841 102.7 334.341L102.83 335.701C103.77 337.581 112.75 338.881 113.83 335.261L113.79 333.471Z" fill="#37474F"/>
<path d="M69.4902 336.591C70.1102 339.111 69.4902 346.031 69.4902 346.031C69.4902 346.031 68.3902 348.421 64.4902 350.031L62.7402 340.411L69.4902 336.591Z" fill="#263238"/>
<path d="M64.4801 350.001L55.9001 347.191L53.8301 339.571L63.4701 344.451L64.4801 350.001Z" fill="black"/>
<path d="M55.56 327.781L55.51 325.981C54.35 326.551 51.78 335.981 48.31 342.371C45.15 348.251 38.87 351.531 36.83 354.091C34.11 357.511 39.4 361.921 47.91 360.091C52.13 359.191 58.52 356.491 60.25 353.641C61.98 350.791 62.57 345.561 63.99 343.471C65.41 341.381 68.77 338.961 69.49 336.581C70.0543 334.424 70.0543 332.158 69.49 330.001C68.82 327.831 68.24 325.211 67.49 325.441L67.44 327.091C66.87 328.251 64.82 329.601 60.52 329.841C58.47 329.961 56.49 329.641 55.56 327.781Z" fill="#37474F"/>
<path d="M57.14 171.941C57.14 171.941 59.74 176.141 76.74 175.551C93.74 174.961 95.65 167.661 95.65 167.661C98.7442 171.931 101.474 176.454 103.81 181.181C106.81 187.691 108.25 197.481 108.71 212.181C109.17 226.881 111.06 265.531 111.06 265.531C111.06 265.531 113.48 274.461 114.24 279.311C114.24 279.311 108.01 287.371 90.38 284.621C88.6532 279.939 87.3153 275.123 86.38 270.221C85.47 264.151 80 225.041 80 225.041L75.18 266.441C75.18 266.441 77.26 278.311 75.71 285.591C75.71 285.591 63.77 290.651 52.91 284.591C52.91 284.591 51.78 264.111 51.86 256.061C51.94 246.611 52.12 238.361 53.3 217.171C54.14 201.251 57.14 171.941 57.14 171.941Z" fill="#455A64"/>
<path d="M80.0001 225.041L75.3601 198.331C75.3601 198.331 69.3601 198.331 63.1401 192.481C63.1401 192.481 64.2401 198.481 72.3401 201.561L78.0001 225.211L75.8801 260.401L80.0001 225.041Z" fill="#37474F"/>
<path d="M93.3502 121.211C95.7858 120.723 98.3142 121.045 100.549 122.129C102.785 123.212 104.604 124.997 105.73 127.211C107.99 131.741 123.05 157.781 126.35 165.021C127.25 167.021 123.63 178.541 117.47 175.351C111.31 172.161 99.0602 147.911 99.0602 147.911C99.0602 147.911 86.5502 133.811 93.3502 121.211Z" fill="#FFA8A7"/>
<g opacity="0.25">
<path opacity="0.25" d="M107.06 132.361C107.043 132.364 107.028 132.372 107.017 132.385C107.006 132.398 107 132.414 107 132.431C107 132.431 107 132.431 107 132.431C106.96 132.61 106.967 132.795 107.02 132.97C107.072 133.145 107.169 133.304 107.3 133.431C107.406 133.545 107.535 133.637 107.677 133.701C107.82 133.764 107.974 133.798 108.13 133.801C108.196 133.811 108.264 133.811 108.33 133.801C108.339 133.806 108.349 133.809 108.36 133.809C108.37 133.809 108.381 133.806 108.39 133.801C108.431 133.624 108.427 133.44 108.378 133.265C108.329 133.09 108.237 132.931 108.11 132.801C107.986 132.646 107.824 132.524 107.641 132.447C107.458 132.371 107.258 132.341 107.06 132.361V132.361ZM107.35 133.191C107.265 133.026 107.211 132.846 107.19 132.661V132.611L107.35 132.721C107.518 132.812 107.667 132.934 107.79 133.081C107.888 133.2 107.975 133.327 108.05 133.461L108.14 133.611C107.983 133.614 107.829 133.577 107.69 133.504C107.552 133.43 107.435 133.323 107.35 133.191V133.191ZM107.41 132.551C107.512 132.551 107.612 132.573 107.705 132.614C107.798 132.655 107.882 132.716 107.95 132.791C108.065 132.936 108.141 133.108 108.17 133.291C107.993 132.976 107.729 132.719 107.41 132.551V132.551Z" fill="black"/>
<path opacity="0.25" d="M108.7 132.671C108.569 132.642 108.444 132.591 108.33 132.521L108.58 132.461L108.49 132.291H108.42H108.48L108.37 132.091C108.237 132.18 108.127 132.3 108.05 132.441C108.043 132.464 108.044 132.488 108.053 132.51C108.062 132.532 108.079 132.55 108.1 132.561C108.179 132.678 108.287 132.774 108.413 132.839C108.539 132.903 108.679 132.935 108.82 132.931C108.78 132.831 108.74 132.751 108.7 132.671Z" fill="black"/>
<path opacity="0.25" d="M99.5702 137.611V137.671H99.7401C99.9636 137.657 100.181 137.593 100.377 137.484C100.572 137.375 100.741 137.224 100.87 137.041C100.969 136.926 101.034 136.786 101.059 136.636C101.084 136.486 101.067 136.332 101.01 136.191V136.191C101.011 136.165 101.002 136.14 100.985 136.12C100.969 136.099 100.946 136.086 100.92 136.081H100.82C100.611 136.093 100.407 136.15 100.222 136.248C100.037 136.346 99.8763 136.484 99.7501 136.651C99.6452 136.771 99.5704 136.915 99.5322 137.069C99.4939 137.224 99.4932 137.386 99.5301 137.541V137.541L99.5702 137.611ZM100.9 136.421C100.88 136.714 100.756 136.991 100.55 137.201C100.36 137.385 100.114 137.501 99.8501 137.531C99.9746 137.339 100.112 137.155 100.26 136.981C100.427 136.814 100.604 136.657 100.79 136.511L100.9 136.421ZM99.9901 136.851C100.163 136.589 100.433 136.405 100.74 136.341C100.38 136.569 100.065 136.86 99.8101 137.201C99.8551 137.075 99.9192 136.957 100 136.851H99.9901Z" fill="black"/>
<path opacity="0.25" d="M106.7 129.291C106.703 129.296 106.706 129.301 106.709 129.306C106.705 129.311 106.701 129.316 106.697 129.321C106.695 129.354 106.696 129.388 106.7 129.421C106.739 129.665 106.868 129.886 107.06 130.041C106.988 130.05 106.915 130.039 106.848 130.011C106.782 129.983 106.723 129.938 106.679 129.881C106.635 129.823 106.606 129.755 106.596 129.684C106.585 129.612 106.594 129.539 106.62 129.471C106.637 129.417 106.663 129.366 106.697 129.321C106.698 129.311 106.699 129.301 106.7 129.291Z" fill="black"/>
</g>
<path d="M20.79 245.701L23.02 242.861L25.7 239.421L135.55 99.1711C135.46 102.051 138.28 106.571 142.66 110.241C147.77 114.511 153.95 117.021 157.23 115.891L48.08 255.231L42.94 261.791C46 257.361 24 241.301 20.79 245.701Z" fill="#407BFF"/>
<path opacity="0.2" d="M20.79 245.701L23.02 242.861L25.7 239.421L135.55 99.1711C135.46 102.051 138.28 106.571 142.66 110.241C147.77 114.511 153.95 117.021 157.23 115.891L48.08 255.231L42.94 261.791C46 257.361 24 241.301 20.79 245.701Z" fill="black"/>
<path d="M28.5202 235.781L23.5902 242.161C22.1002 243.961 25.1202 248.161 29.3502 252.161C34.9502 257.401 42.6802 262.091 44.6602 259.701L48.3102 255.011L49.5802 253.311C47.5802 255.691 39.8702 251.001 34.2602 245.771C30.2602 241.991 27.2602 237.921 28.3902 236.021C28.4127 235.931 28.4574 235.849 28.5202 235.781V235.781Z" fill="#EBEBEB"/>
<path d="M27.3099 237.381C23.8299 241.561 44.8999 259.061 48.3699 254.891L53.3699 248.511C49.8899 252.691 28.8399 235.191 32.3099 231.011L27.3099 237.381Z" fill="#407BFF"/>
<path opacity="0.6" d="M27.3099 237.381C23.8299 241.561 44.8999 259.061 48.3699 254.891L53.3699 248.511C49.8899 252.691 28.8399 235.191 32.3099 231.011L27.3099 237.381Z" fill="white"/>
<path d="M36.9999 224.941L32.0999 231.231C28.6599 235.311 48.8299 252.401 52.8799 249.101C52.9674 249.048 53.0424 248.976 53.0999 248.891L57.9899 242.521C54.4299 246.601 33.4899 229.041 36.9999 224.941Z" fill="#EBEBEB"/>
<path d="M165.22 86.0411C161.76 83.9211 161.38 82.3411 161.38 82.3411L135.56 99.2211C134.49 104.601 139.12 110.761 144.96 114.121L145.96 112.931L165.22 86.0411Z" fill="#FFA8A7"/>
<path d="M157.24 115.901L167.66 86.2711L157.24 115.901Z" fill="#FAFAFA"/>
<path d="M167.66 86.2711L170.18 79.0911L167.66 86.2711Z" fill="#E0E0E0"/>
<path d="M168.41 77.7011L161.41 82.2911C161.41 82.2911 161.67 83.9111 165.25 85.9911L170.25 79.0911C170.339 78.8563 170.35 78.5994 170.282 78.3578C170.215 78.1162 170.072 77.9023 169.875 77.7474C169.677 77.5924 169.436 77.5044 169.185 77.4961C168.934 77.4877 168.687 77.5596 168.48 77.7011H168.41Z" fill="#455A64"/>
<path d="M157.21 115.911L167.63 86.2811C166.808 86.4651 165.949 86.3664 165.19 86.0011L145.88 112.891L145 114.041C149 116.371 153.51 117.361 157.21 115.911Z" fill="#F28F8F"/>
<path d="M165.22 86.0411C165.581 86.2641 165.987 86.4048 166.409 86.4532C166.831 86.5016 167.258 86.4565 167.66 86.3211L170.18 79.1411L165.22 86.0411Z" fill="#37474F"/>
<path d="M44.6601 259.671L43.6601 260.851L43.5901 260.941C43.2201 261.391 42.8901 261.811 42.8701 261.821L23.7801 286.211L22.5301 287.811C21.2001 288.901 19.1801 289.371 16.6201 289.021C13.8683 288.563 11.2523 287.501 8.96006 285.911C5.60888 283.759 2.94931 280.686 1.30005 277.061C0.170053 274.241 0.300055 271.861 1.52005 270.271L1.67008 270.071L23.5401 242.161C23.5401 242.161 21.7701 246.511 31.7001 254.251C32.1201 254.591 32.5401 254.901 32.9301 255.251C41.1401 261.311 44.1201 260.011 44.5501 259.761L44.6601 259.671Z" fill="#F28F8F"/>
<path opacity="0.1" d="M157.21 115.911L48.0902 255.241L43.6403 260.941C43.2703 261.391 42.9403 261.811 42.9203 261.821L23.8302 286.211L22.5802 287.811C21.2502 288.901 19.2303 289.371 16.6703 289.021C13.9185 288.563 11.3025 287.501 9.01025 285.911L37.7003 249.161L145 114.041C149 116.371 153.51 117.351 157.21 115.911Z" fill="black"/>
<path opacity="0.1" d="M71.8701 180.481C72.6901 179.431 76.7101 180.321 78.2801 181.661C79.8501 183.001 83.8101 185.471 87.0901 184.951C90.9112 184.288 94.782 183.954 98.6601 183.951C102.02 184.101 103.66 184.301 103.66 184.301L112.02 173.611C112.02 173.611 97.0201 174.851 90.9001 173.611C84.7801 172.371 79.3101 170.991 79.3101 170.991L71.8701 180.481Z" fill="black"/>
<path opacity="0.1" d="M54.4902 207.311C55.5145 208.292 56.6333 209.17 57.8302 209.931C59.7074 211.183 61.8095 212.059 64.0202 212.511C66.2511 212.942 68.5624 212.513 70.4902 211.311C71.2396 210.843 71.8127 210.14 72.1202 209.311C72.2551 208.783 72.2323 208.227 72.0546 207.711C71.8768 207.196 71.552 206.744 71.1202 206.411C69.8902 205.331 68.4902 204.411 67.1902 203.411C65.8904 202.509 64.6633 201.505 63.5202 200.411C63.2502 200.131 62.9702 199.571 63.4002 199.311C63.8302 199.051 64.8003 199.511 65.3503 199.661C66.2156 199.924 67.108 200.089 68.0103 200.151C68.4274 200.186 68.8475 200.146 69.2502 200.031C69.7102 199.891 70.4903 199.331 70.3503 198.751C70.2803 198.451 69.9802 198.281 69.7102 198.151C68.4251 197.638 67.209 196.966 66.0902 196.151C65.6102 195.731 65.0902 195.441 64.5902 195.061C63.7075 194.381 62.7392 193.819 61.7102 193.391L52.4902 205.161C53.1402 205.911 53.7902 206.621 54.4902 207.311Z" fill="black"/>
<path d="M126.35 165.041C129.53 171.681 131.67 177.161 123.66 179.161C117.58 180.681 102.66 182.161 93.2699 182.271C91.7999 182.271 88.7199 183.691 86.2699 183.271C79.1499 182.011 75.3299 177.651 72.6599 179.461L70.6099 182.041C70.6099 182.041 67.8599 180.861 70.3599 175.501C72.4899 170.951 75.9099 168.401 79.6099 168.401C83.0799 168.401 89.8099 171.931 92.1699 171.981C94.5299 172.031 105.81 169.271 112.82 167.831C122.14 165.961 126.35 165.041 126.35 165.041Z" fill="#FFA8A7"/>
<path d="M71.1401 205.191C69.9101 204.111 68.5101 203.191 67.2101 202.191C65.9079 201.292 64.6806 200.288 63.5401 199.191C63.2701 198.911 62.9901 198.361 63.4201 198.101C63.8501 197.841 64.8201 198.301 65.3701 198.441C66.2355 198.704 67.1278 198.869 68.0301 198.931C68.4467 198.965 68.8659 198.927 69.2701 198.821C69.7301 198.671 70.5101 198.111 70.3701 197.531C70.3001 197.241 70.0001 197.071 69.7301 196.931C68.4412 196.426 67.2241 195.753 66.1101 194.931C65.6301 194.511 65.1101 194.221 64.6101 193.841C63.5675 193.041 62.4114 192.401 61.1801 191.941C60.0801 191.541 58.8001 191.431 57.8501 190.701C56.9654 189.932 56.2793 188.962 55.8501 187.871C53.5901 182.821 50.5501 175.871 49.1401 170.161L35.0801 170.041C35.4026 171.689 35.8166 173.319 36.3201 174.921C37.2601 177.441 39.1401 181.771 40.3201 184.201C42.0806 188.071 44.0846 191.825 46.3201 195.441C48.6362 199.27 51.3768 202.826 54.4901 206.041C55.5171 207.016 56.6356 207.89 57.8301 208.651C59.7072 209.903 61.8093 210.779 64.0201 211.231C66.2508 211.675 68.5671 211.246 70.4901 210.031C71.2394 209.563 71.8126 208.859 72.1201 208.031C72.2435 207.514 72.2168 206.971 72.0432 206.469C71.8697 205.966 71.5564 205.522 71.1401 205.191Z" fill="#FFA8A7"/>
<path d="M97.3701 79.4811L92.3701 83.5711C92.0937 83.2624 91.8842 82.8999 91.7549 82.5063C91.6256 82.1126 91.5792 81.6965 91.6186 81.2841C91.6581 80.8717 91.7825 80.4719 91.9842 80.1099C92.1858 79.748 92.4602 79.4317 92.7901 79.1811C93.4472 78.6364 94.288 78.364 95.1397 78.4197C95.9915 78.4755 96.7895 78.8553 97.3701 79.4811V79.4811Z" fill="#455A64"/>
<path d="M84.3 116.141C84.3 113.011 91.61 108.301 95.38 101.691C99.15 95.0811 97.28 84.2511 92.1 82.5811C92.1 82.5811 92.01 72.7111 78.69 70.0911C65.37 67.4711 61.19 64.5211 58.83 64.0911C56.47 63.6611 55.99 72.0911 59.12 74.2711C56.8906 73.3864 54.8532 72.0791 53.12 70.4211C51.18 68.5511 50.41 78.3111 54.59 81.7311C54.59 81.7311 51.13 83.7311 51.59 88.9011C51.6664 90.7766 52.3566 92.5751 53.5544 94.0204C54.7521 95.4657 56.3913 96.4777 58.22 96.9011L84.3 116.141Z" fill="#455A64"/>
<path d="M61.5803 79.131C58.3703 80.521 55.3203 85.431 55.3603 99.131C55.3603 110.781 58.9703 113.721 60.7803 114.591C62.5903 115.461 66.1003 115.021 69.5203 114.491V121.181C69.5203 121.181 66.9603 123.701 67.8503 125.291C68.7403 126.881 72.0803 128.221 77.2403 126.601C83.1003 124.761 84.3003 120.801 84.3003 120.801L84.5503 106.211C84.5503 106.211 86.5503 108.281 89.9803 105.211C92.8403 102.711 93.8703 98.411 91.7303 96.051C89.5903 93.691 86.8203 93.5111 84.3303 96.1411L83.6003 94.351C81.4703 93.951 75.4903 94.581 72.2503 92.551C65.2203 88.201 62.2703 83.601 61.5803 79.131Z" fill="#FFA8A7"/>
<path d="M61.5801 79.131C67.5773 86.2245 75.4513 91.4854 84.3001 94.3111C84.3001 94.3111 77.9301 97.051 69.8101 91.731C61.6901 86.411 61.5801 79.131 61.5801 79.131Z" fill="#407BFF"/>
<path d="M84.3002 94.3111V100.781C83.885 100.798 83.4709 100.729 83.084 100.577C82.6971 100.426 82.3459 100.196 82.0525 99.9015C81.7592 99.6073 81.5302 99.2553 81.3801 98.8679C81.2299 98.4805 81.1618 98.0662 81.1802 97.6511C81.1807 96.8028 81.503 95.9863 82.0821 95.3664C82.6612 94.7465 83.4539 94.3693 84.3002 94.3111V94.3111Z" fill="#455A64"/>
<path d="M61.2801 95.221C61.278 95.5246 61.1867 95.8208 61.0177 96.0729C60.8487 96.325 60.6094 96.522 60.3295 96.6393C60.0495 96.7567 59.7413 96.7893 59.443 96.7331C59.1448 96.6768 58.8696 96.5343 58.6516 96.323C58.4336 96.1118 58.2824 95.8413 58.2168 95.5449C58.1512 95.2486 58.1741 94.9395 58.2825 94.656C58.391 94.3725 58.5803 94.1271 58.827 93.9502C59.0737 93.7734 59.3669 93.6728 59.6702 93.661C60.0894 93.6583 60.4929 93.8202 60.794 94.1119C61.0951 94.4037 61.2697 94.8019 61.2801 95.221V95.221Z" fill="#263238"/>
<path d="M73.6003 95.9111C73.6124 96.1331 73.5806 96.3553 73.5067 96.565C73.4328 96.7747 73.3183 96.9678 73.1697 97.1331C73.021 97.2985 72.8412 97.4329 72.6405 97.5286C72.4399 97.6244 72.2223 97.6796 72.0002 97.6911C71.6559 97.7168 71.3117 97.639 71.0119 97.4675C70.7122 97.296 70.4707 97.0387 70.3184 96.7287C70.1661 96.4188 70.1101 96.0704 70.1575 95.7283C70.2049 95.3863 70.3537 95.0662 70.5845 94.8094C70.8154 94.5526 71.1178 94.3707 71.4529 94.2872C71.788 94.2037 72.1404 94.2224 72.4647 94.3409C72.7891 94.4594 73.0706 94.6723 73.273 94.9521C73.4753 95.2319 73.5893 95.5659 73.6003 95.9111V95.9111Z" fill="#263238"/>
<path d="M71.4502 104.861L66.4502 106.411C66.523 106.752 66.6652 107.075 66.8681 107.358C67.071 107.642 67.3302 107.881 67.6295 108.06C67.9288 108.24 68.2618 108.355 68.6077 108.4C68.9536 108.445 69.3051 108.418 69.6402 108.321C70.3228 108.079 70.8886 107.588 71.2243 106.946C71.56 106.305 71.6407 105.56 71.4502 104.861Z" fill="#F28F8F"/>
<path d="M57.19 92.341L61.19 90.761C61.0988 90.4925 60.9528 90.2458 60.7614 90.0365C60.5699 89.8273 60.3371 89.66 60.0777 89.5454C59.8183 89.4307 59.5379 89.3711 59.2543 89.3704C58.9707 89.3696 58.69 89.4277 58.43 89.541C57.9017 89.7573 57.4776 90.1695 57.2464 90.6915C57.0153 91.2134 56.9951 91.8045 57.19 92.341V92.341Z" fill="#263238"/>
<path d="M65.0501 93.9611L65.2501 103.501L60.1201 102.361L65.0501 93.9611Z" fill="#F28F8F"/>
<path d="M69.52 114.531C73.13 114.111 80.57 112.041 81.78 109.011C81.2969 110.531 80.3663 111.869 79.11 112.851C76.86 114.781 69.52 116.781 69.52 116.781V114.531Z" fill="#F28F8F"/>
</svg>
