<svg width="179" height="461" viewBox="0 0 179 461" fill="none" xmlns="http://www.w3.org/2000/svg">
<path d="M13.8076 451.516V429.983H21.3838V426.151H1.69629V429.983H9.29004V451.516H13.8076ZM32.0361 445.944C31.5615 447.49 30.0146 448.51 27.9756 448.51C25.1104 448.51 23.2822 446.506 23.2822 443.518V443.254H36.3076V441.83C36.3076 436.17 33.0029 432.496 27.7119 432.496C22.333 432.496 18.9229 436.381 18.9229 442.27C18.9229 448.211 22.2979 451.885 27.8877 451.885C32.2998 451.885 35.5693 449.459 36.1318 445.944H32.0361ZM27.7295 435.889C30.2432 435.889 31.9307 437.735 32.0186 440.371H23.3174C23.4932 437.77 25.2686 435.889 27.7295 435.889ZM55.5557 439.528C55.2568 435.608 52.2158 432.496 47.2939 432.496C41.8799 432.496 38.3643 436.24 38.3643 442.199C38.3643 448.246 41.8799 451.885 47.3291 451.885C52.0049 451.885 55.2217 449.143 55.5732 444.977H51.4424C51.0381 447.086 49.5967 448.352 47.3818 448.352C44.6045 448.352 42.8115 446.102 42.8115 442.199C42.8115 438.367 44.5869 436.047 47.3467 436.047C49.6846 436.047 51.0732 437.541 51.4248 439.528H55.5557ZM58.3154 451.516H62.6924V440.811C62.6924 438.069 64.292 436.24 66.9287 436.24C69.46 436.24 70.7607 437.805 70.7607 440.406V451.516H75.1377V439.51C75.1377 435.239 72.7295 432.531 68.6162 432.531C65.7861 432.531 63.7295 433.815 62.7275 436.082H62.6396V426.151H58.3154V451.516ZM78.6533 451.516H83.0303V440.723C83.0303 438.051 84.6299 436.24 87.1436 436.24C89.6396 436.24 90.8701 437.717 90.8701 440.354V451.516H95.2471V439.475C95.2471 435.168 92.9092 432.531 88.7959 432.531C85.9307 432.531 83.9443 433.867 82.9424 436.082H82.8545V432.883H78.6533V451.516ZM101.048 430.071C102.384 430.071 103.438 428.998 103.438 427.698C103.438 426.379 102.384 425.324 101.048 425.324C99.7119 425.324 98.6396 426.379 98.6396 427.698C98.6396 428.998 99.7119 430.071 101.048 430.071ZM98.8682 451.516H103.245V432.883H98.8682V451.516ZM123.337 439.528C123.038 435.608 119.997 432.496 115.075 432.496C109.661 432.496 106.146 436.24 106.146 442.199C106.146 448.246 109.661 451.885 115.11 451.885C119.786 451.885 123.003 449.143 123.354 444.977H119.224C118.819 447.086 117.378 448.352 115.163 448.352C112.386 448.352 110.593 446.102 110.593 442.199C110.593 438.367 112.368 436.047 115.128 436.047C117.466 436.047 118.854 437.541 119.206 439.528H123.337ZM131.458 451.815C133.849 451.815 136.187 450.567 137.259 448.545H137.347V451.516H141.565V438.684C141.565 434.94 138.56 432.496 133.937 432.496C129.19 432.496 126.22 434.992 126.026 438.473H130.087C130.368 436.926 131.687 435.924 133.761 435.924C135.923 435.924 137.241 437.049 137.241 439V440.336L132.319 440.617C127.784 440.899 125.235 442.885 125.235 446.19C125.235 449.547 127.854 451.815 131.458 451.815ZM132.776 448.51C130.878 448.51 129.612 447.543 129.612 446.014C129.612 444.537 130.825 443.588 132.935 443.448L137.241 443.184V444.608C137.241 446.858 135.255 448.51 132.776 448.51ZM145.222 451.516H149.599V426.151H145.222V451.516Z" fill="#747474"/>
<path d="M150.944 15.5045L149.074 18.5945L147.434 20.9445L149.694 27.9445L150.564 29.7945C151.274 31.2145 154.914 34.1645 155.824 35.4145L155.474 37.5045L160.154 42.0545L161.994 37.6745C163.074 38.3445 162.614 40.2845 163.644 40.5545L167.644 45.4245L172.014 44.9145L170.374 38.4845C171.194 37.9738 171.893 37.2915 172.424 36.4845L176.884 40.1345L178.374 34.8645L174.214 30.1545C174.266 28.7224 174.175 27.2887 173.944 25.8745L177.724 24.7045L175.544 17.6945L171.304 17.4545C170.6 16.0593 169.788 14.7219 168.874 13.4545L169.764 8.15446L165.084 3.60447L163.244 7.98447C162.263 7.36084 161.194 6.88571 160.074 6.57447L157.544 0.204468L153.174 0.714466L154.814 7.15446C153.992 7.66227 153.292 8.34516 152.764 9.15446L148.304 5.49446L146.814 10.7645L150.944 15.5045ZM156.084 16.5045C157.234 12.5045 158.714 12.8545 162.304 16.3445C165.894 19.8345 167.534 26.3445 166.394 30.3445C165.254 34.3445 164.124 33.5945 160.534 30.1045C156.944 26.6145 154.944 20.5045 156.084 16.4645V16.5045Z" fill="#E0E0E0"/>
<path d="M157.504 0.204468L151.594 2.84447L154.114 9.17447L160.034 6.54447L157.504 0.204468Z" fill="#F5F5F5"/>
<path d="M142.354 8.15446L146.814 11.8045L152.734 9.17447L148.274 5.51447L142.354 8.15446Z" fill="#F5F5F5"/>
<path d="M141.514 23.5745L145.294 22.4145L151.214 19.7845L147.434 20.9445L141.514 23.5745Z" fill="#E0E0E0"/>
<path d="M172.054 44.8644L166.134 47.5044L164.494 41.0644L170.414 38.4344L172.054 44.8644Z" fill="#E0E0E0"/>
<path d="M154.234 44.6344L160.154 42.0044L161.994 37.6245L156.074 40.2544L154.234 44.6344Z" fill="#E0E0E0"/>
<path d="M145.024 18.1345C144.972 19.5666 145.063 21.0002 145.294 22.4145L141.544 23.5745L143.804 30.5245L148.044 30.7545C148.747 32.1496 149.56 33.4871 150.474 34.7545L149.584 40.0545L154.274 44.6045L156.104 40.2245C157.083 40.855 158.152 41.3338 159.274 41.6445L161.804 47.9745L166.164 47.4745L164.544 41.0645C165.366 40.5567 166.066 39.8738 166.594 39.0645L171.054 42.7145L172.544 37.4245L168.384 32.7145C168.435 31.2824 168.345 29.8487 168.114 28.4345L171.894 27.2745L169.544 20.3245L165.304 20.0945C164.602 18.6981 163.79 17.3604 162.874 16.0945L163.764 10.7945L159.084 6.23447L157.244 10.6245C156.265 9.99391 155.196 9.51516 154.074 9.20447L151.594 2.89447L147.224 3.39447L148.864 9.83447C148.042 10.3423 147.342 11.0252 146.814 11.8345L142.354 8.18447L140.864 13.4445L145.024 18.1345ZM150.174 19.1345C151.314 15.1345 155.174 14.6545 158.744 18.1345C162.314 21.6145 164.334 27.7345 163.194 31.7745C162.054 35.8145 158.194 36.2645 154.614 32.7745C151.034 29.2845 149.024 23.1445 150.174 19.0945V19.1345Z" fill="#EBEBEB"/>
<path d="M159.124 6.20446L165.044 3.57446L169.724 8.12446L163.804 10.7645L159.124 6.20446Z" fill="#F5F5F5"/>
<path d="M169.724 8.12445L168.834 13.4244L162.914 16.0644L163.804 10.7645L169.724 8.12445Z" fill="#E0E0E0"/>
<path d="M165.344 20.0945L171.264 17.4545L175.504 17.6945L169.584 20.3245L165.344 20.0945Z" fill="#F5F5F5"/>
<path d="M175.504 17.6945L177.764 24.6345L171.844 27.2745L169.584 20.3245L175.504 17.6945Z" fill="#E0E0E0"/>
<path d="M168.334 32.7145L174.254 30.0845L178.414 34.7945L172.494 37.4245L168.334 32.7145Z" fill="#F5F5F5"/>
<path d="M171.004 42.6945L176.924 40.0645L178.414 34.7945L172.494 37.4245L171.004 42.6945Z" fill="#E0E0E0"/>
<path d="M151.594 2.84447L157.504 0.204468L153.144 0.714466L147.224 3.34447L151.594 2.84447Z" fill="#F5F5F5"/>
<path d="M107.684 38.7945C107.264 41.0013 107.264 43.2676 107.684 45.4745L104.414 47.7445L108.414 56.7445L112.124 55.8645C113.399 57.7837 115.168 59.3242 117.244 60.3245L117.124 68.1145L123.604 72.8245L125.024 65.9745C126.32 66.5036 127.704 66.7884 129.104 66.8145L133.294 74.8145L138.464 72.5045L135.324 64.0345C136.24 62.9781 136.952 61.7608 137.424 60.4445L143.424 63.9645L144.264 55.9645L138.394 50.8345C138.218 48.8269 137.863 46.839 137.334 44.8945L141.694 41.8945L137.694 32.9445L132.544 34.1445C131.462 32.4441 130.234 30.8414 128.874 29.3545L128.994 21.5645L122.544 16.8945L121.124 23.7445C119.827 23.2154 118.444 22.9306 117.044 22.9045L112.854 14.9045L107.684 17.2145L110.834 25.6845C109.911 26.7379 109.195 27.9558 108.724 29.2745L102.724 25.7545L101.884 33.7545L107.684 38.7945ZM114.064 38.2745C114.704 32.1645 118.144 30.2745 123.114 33.8945C128.084 37.5145 131.674 45.4445 131.034 51.5545C130.394 57.6645 126.874 59.4845 121.904 55.8745C116.934 52.2645 113.424 44.3845 114.064 38.2745V38.2745Z" fill="#E0E0E0"/>
<path d="M106.944 17.4745L112.824 14.8545L117.014 22.8645L111.134 25.4745L106.944 17.4745Z" fill="#F5F5F5"/>
<path d="M96.7739 28.3145L102.654 25.7045L108.694 29.2245L102.804 31.8345L96.7739 28.3145Z" fill="#F5F5F5"/>
<path d="M117.734 75.3845L123.614 72.7745L125.034 65.9245L119.154 68.5445L117.734 75.3845Z" fill="#E0E0E0"/>
<path d="M138.474 72.4745L132.594 75.0845L129.444 66.6145L135.334 63.9945L138.474 72.4745Z" fill="#E0E0E0"/>
<path d="M101.804 41.4045C101.997 43.4102 102.369 45.3947 102.914 47.3345L98.5538 50.3345L102.554 59.3345L107.714 58.1145C108.793 59.8166 110.021 61.4196 111.384 62.9045L111.264 70.7045L117.744 75.4045L119.164 68.5645C120.46 69.0936 121.844 69.3783 123.244 69.4045L127.434 77.4045L132.604 75.1045L129.454 66.6345C130.377 65.5811 131.092 64.3631 131.564 63.0445L137.564 66.5645L138.404 58.5645L132.544 53.4545C132.351 51.4488 131.979 49.4643 131.434 47.5245L135.784 44.5245L131.784 35.5245L126.624 36.7445C125.545 35.0423 124.317 33.4394 122.954 31.9545L123.074 24.1545L116.594 19.4545L115.174 26.2945C113.877 25.7654 112.494 25.4806 111.094 25.4545L106.904 17.4545L101.734 19.7545L104.874 28.2245C103.958 29.2829 103.243 30.4995 102.764 31.8145L96.7638 28.2945L95.9238 36.2945L101.804 41.4045ZM108.184 40.8945C108.824 34.7845 113.374 32.7545 118.344 36.3645C123.314 39.9745 126.824 47.8545 126.184 53.9645C125.544 60.0745 120.994 62.1045 116.024 58.4945C111.054 54.8845 107.544 47.0045 108.184 40.8945Z" fill="#EBEBEB"/>
<path d="M132.544 34.1445L126.664 36.7545L131.814 35.5445L137.704 32.9245L132.544 34.1445Z" fill="#F5F5F5"/>
<path d="M137.713 32.9419L131.828 35.5582L135.814 44.5222L141.698 41.9059L137.713 32.9419Z" fill="#F5F5F5"/>
<path d="M141.694 41.8845L135.804 44.5045L131.454 47.5245L137.334 44.9145L141.694 41.8845Z" fill="#E0E0E0"/>
<path d="M138.444 50.8345L132.564 53.4545L138.434 58.5845L144.314 55.9645L138.444 50.8345Z" fill="#F5F5F5"/>
<path d="M144.314 55.9645L138.434 58.5845L137.594 66.5445L143.474 63.9245L144.314 55.9645Z" fill="#E0E0E0"/>
<path d="M116.634 19.4745L122.514 16.8545L128.994 21.5645L123.114 24.1745L116.634 19.4745Z" fill="#F5F5F5"/>
<path d="M73.0242 371.362C107.133 371.362 134.784 355.67 134.784 336.312C134.784 316.955 107.133 301.262 73.0242 301.262C38.9151 301.262 11.2642 316.955 11.2642 336.312C11.2642 355.67 38.9151 371.362 73.0242 371.362Z" fill="#E0E0E0"/>
<path d="M33.1836 323.922C36.6836 325.802 40.9436 325.652 45.1036 323.922L46.8236 301.262L33.1836 303.062V323.922Z" fill="#FFA8A7"/>
<path d="M75.0034 310.372C78.0034 316.762 83.2834 314.992 89.2934 310.902L88.2334 288.132H73.7534L75.0034 310.372Z" fill="#FFA8A7"/>
<path d="M58.7136 345.372C59.0936 345.732 58.9736 348.202 58.5536 348.872C58.1336 349.542 55.4836 351.812 50.7636 352.152C46.2436 352.472 42.2136 351.862 39.5636 350.152C36.9136 348.442 35.6336 346.612 35.3836 344.042C35.1336 341.472 35.3836 338.992 34.1936 337.042C33.0636 335.212 31.2536 333.152 30.8636 332.162C30.0136 330.002 30.8636 326.922 30.8636 326.922L58.7136 345.372Z" fill="#263238"/>
<path d="M46.3238 322.922C46.3956 323.894 46.5802 324.854 46.8738 325.782C47.5603 327.786 48.4906 329.697 49.6438 331.472C50.2051 332.4 50.8335 333.286 51.5238 334.122C52.8838 335.752 54.5838 337.122 56.0338 338.642C57.5707 340.114 58.5526 342.071 58.8138 344.182C59.0038 347.722 55.1638 348.932 52.2038 349.452C49.0053 350.02 45.7198 349.856 42.5938 348.972C40.9493 348.543 39.4634 347.649 38.3141 346.397C37.1648 345.145 36.4009 343.588 36.1138 341.912C35.9538 340.912 36.0138 339.912 35.8938 338.912C35.5047 336.65 34.5598 334.519 33.1438 332.712C32.3199 331.669 31.6124 330.539 31.0338 329.342C30.1038 327.152 30.8438 324.682 31.4338 322.502C31.9438 320.612 32.5238 318.502 33.1838 318.662C33.1503 319.046 33.2051 319.433 33.3438 319.792C33.5668 320.141 33.7417 320.517 33.8638 320.912C34.0034 321.413 34.184 321.901 34.4038 322.372C34.7336 323.099 35.2826 323.704 35.9738 324.102C35.9738 322.762 36.0638 321.432 36.1038 320.102C36.0761 319.686 36.1849 319.272 36.4138 318.922C36.7247 318.637 37.1228 318.464 37.5438 318.432C40.024 317.84 42.5798 317.628 45.1238 317.802C45.2995 317.78 45.4781 317.801 45.6437 317.864C45.8093 317.927 45.9569 318.03 46.0735 318.163C46.1901 318.296 46.2721 318.456 46.3122 318.629C46.3524 318.802 46.3495 318.981 46.3038 319.152C46.2407 320.409 46.2474 321.667 46.3238 322.922V322.922Z" fill="#37474F"/>
<path d="M50.1135 332.182C48.7935 331.182 45.8435 331.182 44.2235 331.352C42.5834 331.499 41.0058 332.052 39.6335 332.962C39.4369 333.118 39.189 333.194 38.939 333.176C38.6889 333.157 38.455 333.045 38.2835 332.862V332.862C38.1813 332.762 38.102 332.64 38.051 332.506C38 332.371 37.9785 332.228 37.988 332.085C37.9975 331.941 38.0377 331.802 38.106 331.675C38.1742 331.549 38.2689 331.439 38.3835 331.352C39.8971 330.255 41.6883 329.603 43.5535 329.472C47.5535 329.192 48.6935 329.872 48.6935 329.872C48.6935 329.872 50.4735 331.012 50.1135 332.182Z" fill="#F5F5F5"/>
<path d="M53.1436 335.812C51.4936 334.812 48.2436 334.973 46.6236 335.143C45.0141 335.31 43.4764 335.896 42.1636 336.842C41.9603 336.987 41.7124 337.056 41.4636 337.035C41.2148 337.015 40.9811 336.908 40.8036 336.732V336.732C40.7032 336.632 40.6253 336.511 40.5754 336.377C40.5254 336.244 40.5045 336.102 40.5139 335.96C40.5234 335.818 40.5631 335.68 40.6303 335.554C40.6975 335.429 40.7907 335.319 40.9036 335.232C42.4371 334.065 44.2655 333.348 46.1836 333.162C50.1836 332.882 51.1836 333.692 51.1836 333.692C51.6504 333.873 52.0697 334.158 52.4094 334.525C52.7492 334.893 53.0003 335.333 53.1436 335.812V335.812Z" fill="#F5F5F5"/>
<path d="M41.9638 325.632C43.6391 325.345 45.3599 325.49 46.9638 326.052C47.6638 326.452 48.1238 327.552 47.6738 327.832C46.2694 327.269 44.7481 327.06 43.2438 327.222C41.7526 327.368 40.2979 327.771 38.9438 328.412C38.6038 328.562 38.2038 328.772 37.8538 328.962C37.7424 329.026 37.6192 329.066 37.4917 329.081C37.3642 329.095 37.2351 329.083 37.1123 329.046C36.9896 329.008 36.8758 328.946 36.7781 328.863C36.6803 328.78 36.6006 328.678 36.5438 328.562V328.562C36.4507 328.363 36.435 328.136 36.4996 327.925C36.5643 327.715 36.7047 327.535 36.8938 327.422C38.4378 326.473 40.166 325.863 41.9638 325.632V325.632Z" fill="#F5F5F5"/>
<path d="M113.013 324.942C113.359 325.979 113.299 327.109 112.843 328.102C112.403 329.022 107.583 331.732 101.083 331.302C96.2671 330.965 91.6293 329.342 87.6534 326.602C85.1734 324.962 82.5934 324.652 79.3734 324.472C76.1534 324.292 71.9334 322.682 71.2334 321.182C70.5334 319.682 71.3334 317.082 71.3334 317.082L113.013 324.942Z" fill="#263238"/>
<path d="M86.9035 304.962L88.5935 304.353C88.9002 304.188 89.2584 304.149 89.5935 304.242C90.0135 304.392 90.1734 304.882 90.2834 305.312C90.4349 306.272 90.6726 307.216 90.9934 308.133C91.4684 308.886 92.0868 309.538 92.8134 310.052C94.4265 311.346 96.1691 312.468 98.0134 313.402C100.133 314.542 102.213 315.402 104.403 316.402C106.593 317.402 109.613 318.023 111.403 319.203C113.953 320.923 114.283 325.203 111.403 326.943C108.893 328.413 102.303 330.012 95.4034 328.052C91.6334 326.982 87.4034 322.963 82.5034 322.573C79.3634 322.323 73.4134 321.442 71.3934 319.052C70.6434 317.992 71.6434 314.642 72.4634 311.742C73.3634 308.582 73.7034 303.633 74.7434 303.913C74.8234 304.963 75.7434 305.573 76.2834 306.453C76.7207 307.261 77.0984 308.099 77.4135 308.962C77.7305 309.834 78.3019 310.59 79.0535 311.133C79.4364 311.39 79.8932 311.514 80.3537 311.487C80.8143 311.46 81.2533 311.283 81.6034 310.983C82.5234 310.033 81.9734 308.353 82.6034 307.203C83.1571 306.481 83.9401 305.969 84.8234 305.753L86.9035 304.962Z" fill="#37474F"/>
<path d="M95.0334 311.692C94.809 311.259 94.4786 310.89 94.0729 310.619C93.6672 310.348 93.1996 310.184 92.7135 310.142C91.2835 309.872 88.7134 310.922 87.1834 312.222C87.0352 312.344 86.9189 312.5 86.8446 312.677C86.7703 312.854 86.7402 313.046 86.7569 313.237C86.7737 313.428 86.8368 313.613 86.9407 313.774C87.0446 313.935 87.1863 314.068 87.3534 314.162V314.162C87.5654 314.277 87.8074 314.325 88.047 314.298C88.2865 314.271 88.5122 314.171 88.6934 314.012C90.4223 312.44 92.6981 311.607 95.0334 311.692V311.692Z" fill="#F5F5F5"/>
<path d="M99.4737 314.172C99.161 313.735 98.7482 313.379 98.2698 313.134C97.7914 312.888 97.2613 312.761 96.7237 312.762C96.7237 312.762 92.9837 312.862 90.7237 315.022C90.5812 315.14 90.4693 315.29 90.3978 315.46C90.3262 315.63 90.297 315.816 90.3127 315.999C90.3285 316.183 90.3887 316.361 90.4881 316.516C90.5876 316.672 90.7233 316.801 90.8837 316.892V316.892C91.0876 317.005 91.3214 317.05 91.5526 317.024C91.7838 316.997 92.0009 316.898 92.1737 316.742C93.1227 315.798 94.2705 315.077 95.5333 314.633C96.7962 314.188 98.1423 314.031 99.4737 314.172Z" fill="#F5F5F5"/>
<path d="M104.363 316.412C104.008 316.007 103.57 315.682 103.078 315.462C102.586 315.241 102.053 315.128 101.513 315.132C99.3865 315.263 97.3558 316.065 95.7134 317.423C95.5709 317.54 95.4591 317.69 95.3875 317.86C95.3159 318.031 95.2868 318.216 95.3025 318.399C95.3182 318.583 95.3784 318.761 95.4779 318.916C95.5773 319.072 95.7131 319.201 95.8734 319.292V319.292C96.0774 319.405 96.3112 319.45 96.5424 319.424C96.7736 319.397 96.9906 319.298 97.1634 319.143C98.0688 318.159 99.191 317.401 100.441 316.927C101.691 316.453 103.034 316.277 104.363 316.412V316.412Z" fill="#F5F5F5"/>
<path d="M34.9236 158.392C34.1036 183.192 34.1636 238.132 34.1636 238.132C33.9036 241.212 32.6536 247.552 31.6236 259.902C30.2836 275.962 33.1836 311.292 33.1836 311.292C35.2318 312.188 37.4411 312.656 39.6764 312.668C41.9117 312.68 44.126 312.236 46.1836 311.362C46.1836 311.362 53.9336 261.002 56.3936 245.122C58.5536 231.122 62.7936 204.862 62.7936 204.862L67.6736 240.572C67.0123 247.361 67.1802 254.205 68.1736 260.952C69.3136 268.262 74.3736 298.312 74.3736 298.312C79.1138 299.507 84.0966 299.319 88.7337 297.772C88.7337 297.772 89.2137 245.702 89.3437 238.932C89.4937 231.212 85.9236 152.282 85.9236 152.282L34.9236 158.392Z" fill="#455A64"/>
<path d="M62.7437 204.863L66.4137 184.542C66.4137 184.542 76.5737 183.652 82.1937 177.982C82.1937 177.982 81.1937 183.542 68.4137 186.872L64.7437 207.472L67.6237 240.613L62.7437 204.863Z" fill="#263238"/>
<path d="M121.874 99.4725C120.584 102.282 107.744 121.112 107.744 121.112C103.744 116.642 92.5037 101.032 85.9637 97.8325C79.5837 94.7225 69.0137 95.5825 69.0137 95.5825L84.6237 120.222C84.6237 120.222 95.5637 131.222 102.574 136.622C107.414 140.312 112.214 143.282 119.744 129.852C124.254 121.852 129.314 111.302 130.624 108.672C131.155 107.596 131.924 106.654 132.874 105.92C133.824 105.185 134.928 104.676 136.104 104.432C136.804 104.292 137.504 104.132 138.194 103.952C139.724 103.532 141.504 102.852 142.014 101.182C142.194 100.612 142.224 100.002 142.354 99.4224C142.554 98.5324 142.954 97.7025 143.154 96.8225C143.294 96.2211 143.273 95.5933 143.094 95.0025C142.924 94.4925 142.444 94.0625 142.414 93.5025C142.437 93.2265 142.516 92.958 142.644 92.7125C142.858 92.1384 142.914 91.5174 142.807 90.9142C142.699 90.311 142.432 89.7476 142.034 89.2824C141.797 89.0597 141.586 88.8116 141.404 88.5425C141.084 87.9525 141.244 87.2125 141.094 86.5425C140.424 83.5425 135.224 85.7425 133.604 86.6125C133.134 86.8625 130.834 88.0225 129.814 88.6125C129.598 86.9564 129.137 85.3419 128.444 83.8225C127.174 80.8225 123.834 80.1925 123.994 82.1025C124.164 84.2634 124.144 86.4351 123.934 88.5924C123.771 89.9531 123.688 91.3221 123.684 92.6925C123.694 95.0025 123.344 96.2625 121.874 99.4725Z" fill="#FFBDA7"/>
<path d="M73.2437 95.0825C82.8037 95.5425 84.9137 95.6825 91.0237 101.222C97.1337 106.762 107.574 120.222 107.574 120.222L115.754 109.222C116.689 111.303 118.261 113.033 120.244 114.162C122.365 115.242 124.704 115.824 127.084 115.862C127.084 115.862 122.684 125.862 118.464 132.922C114.244 139.982 110.914 142.572 104.694 138.792C98.4737 135.012 77.6937 114.792 77.6937 114.792L73.2437 95.0825Z" fill="#407BFF"/>
<path opacity="0.75" d="M73.2437 95.0825C82.8037 95.5425 84.9137 95.6825 91.0237 101.222C97.1337 106.762 107.574 120.222 107.574 120.222L115.754 109.222C116.689 111.303 118.261 113.033 120.244 114.162C122.365 115.242 124.704 115.824 127.084 115.862C127.084 115.862 122.684 125.862 118.464 132.922C114.244 139.982 110.914 142.572 104.694 138.792C98.4737 135.012 77.6937 114.792 77.6937 114.792L73.2437 95.0825Z" fill="white"/>
<path d="M131.334 89.2825C129.624 89.9925 129.244 91.2025 129.514 93.7325C129.684 95.2225 129.514 98.0325 127.954 99.2925C128.716 99.1307 129.413 98.7441 129.954 98.1825C130.654 97.3225 130.864 97.1825 131.334 97.6225C131.677 97.8986 132.082 98.0874 132.514 98.1725C132.268 98.5131 132.136 98.9225 132.136 99.3425C132.136 99.7625 132.268 100.172 132.514 100.512C133.414 101.732 136.934 101.452 139.684 99.7125C139.684 99.7125 135.134 101.582 133.914 100.192C132.694 98.8025 135.014 96.7225 136.814 96.0525C136.814 96.0525 132.394 97.5325 131.564 96.1125C130.734 94.6925 132.564 93.4025 135.114 92.4925C135.114 92.4925 131.434 93.4925 130.684 92.2925C129.834 90.8225 130.884 89.8325 131.334 89.2825Z" fill="#F0997A"/>
<path d="M84.624 114.122C83.524 106.182 82.484 95.5125 70.174 95.0225L54.294 95.7725C50.384 96.7725 35.184 98.5925 35.184 98.5925L34.894 133.042C34.894 133.042 33.894 157.872 34.224 171.172C45.594 178.382 70.334 180.712 85.874 168.922C86.334 157.952 85.704 121.982 84.624 114.122Z" fill="#FAFAFA"/>
<path d="M85.6937 49.8125C85.7327 49.1515 85.5749 48.4938 85.2403 47.9225C84.9057 47.3512 84.4092 46.8918 83.8137 46.6025C82.6015 46.0375 81.2326 45.9034 79.9337 46.2225C80.0035 45.243 79.7628 44.2665 79.2457 43.4317C78.7287 42.5969 77.9617 41.9463 77.0537 41.5725C76.0907 41.126 75.0175 40.9732 73.9681 41.1333C72.9188 41.2934 71.9399 41.7592 71.1537 42.4725C71.5137 41.0725 70.2237 39.6725 68.8137 39.3925C67.3688 39.2402 65.9107 39.5075 64.6137 40.1625C62.6137 40.9625 60.6137 41.8525 58.6137 42.5725C55.0437 43.8325 51.2337 44.5725 48.0137 46.5725C47.2327 47.0147 46.5517 47.614 46.0137 48.3325C45.3396 49.3978 45.0405 50.6578 45.1637 51.9125C45.191 52.3239 45.2546 52.7322 45.3537 53.1325C45.0994 52.8648 44.8019 52.6417 44.4737 52.4725C44.1055 52.2851 43.7026 52.1757 43.2901 52.1514C42.8777 52.127 42.4646 52.188 42.0769 52.3308C41.6891 52.4735 41.3351 52.6947 41.0368 52.9807C40.7386 53.2666 40.5026 53.6111 40.3438 53.9925L44.1737 55.8925C43.0811 56.1404 42.0903 56.716 41.3337 57.5425C39.4137 59.6325 40.7337 65.9625 43.4037 72.1025C43.4037 72.1025 46.1937 83.3625 47.2237 85.2025C47.8933 86.322 48.9672 87.1418 50.2237 87.4925L49.8537 80.6225L78.4737 78.0925L75.6137 76.0925C78.3857 74.7809 80.7142 72.6881 82.3131 70.0713C83.912 67.4544 84.7116 64.4275 84.6137 61.3625C84.5499 58.8218 83.8632 56.3356 82.6137 54.1225C84.0937 52.9325 85.4737 51.4025 85.6937 49.8125Z" fill="#407BFF"/>
<path opacity="0.3" d="M85.6937 49.8125C85.7327 49.1515 85.5749 48.4938 85.2403 47.9225C84.9057 47.3512 84.4092 46.8918 83.8137 46.6025C82.6015 46.0375 81.2326 45.9034 79.9337 46.2225C80.0035 45.243 79.7628 44.2665 79.2457 43.4317C78.7287 42.5969 77.9617 41.9463 77.0537 41.5725C76.0907 41.126 75.0175 40.9732 73.9681 41.1333C72.9188 41.2934 71.9399 41.7592 71.1537 42.4725C71.5137 41.0725 70.2237 39.6725 68.8137 39.3925C67.3688 39.2402 65.9107 39.5075 64.6137 40.1625C62.6137 40.9625 60.6137 41.8525 58.6137 42.5725C55.0437 43.8325 51.2337 44.5725 48.0137 46.5725C47.2327 47.0147 46.5517 47.614 46.0137 48.3325C45.3396 49.3978 45.0405 50.6578 45.1637 51.9125C45.191 52.3239 45.2546 52.7322 45.3537 53.1325C45.0994 52.8648 44.8019 52.6417 44.4737 52.4725C44.1055 52.2851 43.7026 52.1757 43.2901 52.1514C42.8777 52.127 42.4646 52.188 42.0769 52.3308C41.6891 52.4735 41.3351 52.6947 41.0368 52.9807C40.7386 53.2666 40.5026 53.6111 40.3438 53.9925L44.1737 55.8925C43.0811 56.1404 42.0903 56.716 41.3337 57.5425C39.4137 59.6325 40.7337 65.9625 43.4037 72.1025C43.4037 72.1025 46.1937 83.3625 47.2237 85.2025C47.8933 86.322 48.9672 87.1418 50.2237 87.4925L49.8537 80.6225L78.4737 78.0925L75.6137 76.0925C78.3857 74.7809 80.7142 72.6881 82.3131 70.0713C83.912 67.4544 84.7116 64.4275 84.6137 61.3625C84.5499 58.8218 83.8632 56.3356 82.6137 54.1225C84.0937 52.9325 85.4737 51.4025 85.6937 49.8125Z" fill="black"/>
<path d="M62.4738 58.1725C59.8438 57.8625 57.2338 57.4325 54.6238 57.0225C54.5105 56.9888 54.3913 56.9794 54.2742 56.9949C54.157 57.0104 54.0444 57.0505 53.9438 57.1125C53.8316 57.218 53.7518 57.3532 53.7138 57.5025C52.0038 62.5025 52.0438 67.9325 50.7138 73.0425C50.5938 73.5025 50.3038 74.2925 49.7138 74.3625C48.7138 74.4825 48.0138 73.5825 47.5838 72.7925L46.5838 71.0425C46.3825 70.7134 46.1406 70.411 45.8638 70.1425C44.6438 69.0125 41.0238 67.6325 39.3438 71.4825C37.6638 75.3325 41.2538 80.5525 44.1738 81.3725C49.1738 82.7725 49.8438 79.5525 49.8438 79.5525L50.8438 97.5025C55.2838 102.152 69.9238 100.502 67.0238 96.5025L66.8338 91.0325C69.0627 91.3159 71.3156 91.3595 73.5538 91.1625C77.2038 90.4725 79.4138 87.5125 80.3938 83.5125C81.9738 77.0925 82.4838 71.9225 80.5638 59.4525C80.3903 58.3024 80.0884 57.1753 79.6638 56.0925C74.5338 58.9125 68.2938 58.8625 62.4738 58.1725Z" fill="#FFBDA7"/>
<path d="M66.8238 91.0325C66.8238 91.0325 58.5938 89.6525 55.6838 88.2225C53.9808 87.4102 52.5624 86.1034 51.6138 84.4725C52.0966 86.1313 52.9096 87.6755 54.0038 89.0125C56.1838 91.6225 66.8938 93.2425 66.8938 93.2425L66.8238 91.0325Z" fill="#F0997A"/>
<path d="M64.3437 70.7424C64.3415 71.0424 64.2513 71.3352 64.084 71.5843C63.9168 71.8334 63.6801 72.0279 63.4033 72.1435C63.1264 72.2591 62.8217 72.2907 62.527 72.2345C62.2323 72.1783 61.9606 72.0367 61.7458 71.8273C61.5309 71.6179 61.3824 71.3499 61.3186 71.0568C61.2549 70.7636 61.2787 70.4582 61.3872 70.1784C61.4957 69.8987 61.684 69.6571 61.9287 69.4835C62.1734 69.31 62.4638 69.2122 62.7637 69.2024C63.1766 69.1997 63.574 69.3599 63.8698 69.6481C64.1655 69.9364 64.3358 70.3295 64.3437 70.7424Z" fill="#263238"/>
<path d="M63.2038 63.4725L59.5238 65.0625C59.3206 64.56 59.3195 63.9985 59.5208 63.4953C59.7221 62.9921 60.1101 62.5862 60.6038 62.3625C61.0958 62.1652 61.646 62.1712 62.1335 62.3794C62.621 62.5875 63.006 62.9807 63.2038 63.4725V63.4725Z" fill="#263238"/>
<path d="M64.3437 81.1324L69.0137 82.7124C68.9226 83.0254 68.7695 83.3169 68.5634 83.5694C68.3574 83.822 68.1026 84.0305 67.8143 84.1826C67.526 84.3347 67.2101 84.4272 66.8853 84.4547C66.5605 84.4821 66.2335 84.444 65.9237 84.3424C65.2949 84.1175 64.7783 83.6567 64.4834 83.0575C64.1885 82.4584 64.1384 81.7679 64.3437 81.1324V81.1324Z" fill="#F0997A"/>
<path d="M80.2637 64.9425L76.5938 63.5425C76.6812 63.3038 76.8157 63.0851 76.9893 62.8993C77.1628 62.7136 77.3719 62.5645 77.6041 62.461C77.8363 62.3575 78.0868 62.3016 78.341 62.2967C78.5952 62.2918 78.8477 62.338 79.0837 62.4325C79.5668 62.6171 79.9595 62.9817 80.1795 63.4497C80.3995 63.9177 80.4297 64.4527 80.2637 64.9425V64.9425Z" fill="#263238"/>
<path d="M55.6938 66.2625L42.8638 68.9425C43.585 68.9502 44.2947 69.1237 44.938 69.4497C45.5814 69.7757 46.1411 70.2454 46.5738 70.8225L55.6438 69.0925L55.6938 66.2625Z" fill="#263238"/>
<path d="M78.7439 70.7825C78.7547 70.9874 78.7249 71.1924 78.6563 71.3859C78.5878 71.5793 78.4817 71.7572 78.3442 71.9096C78.2067 72.0619 78.0405 72.1856 77.8552 72.2737C77.6698 72.3617 77.4689 72.4123 77.2639 72.4225C76.8483 72.4252 76.4483 72.264 76.1507 71.9739C75.8531 71.6838 75.6818 71.288 75.6739 70.8725C75.6518 70.6617 75.6735 70.4486 75.7376 70.2465C75.8016 70.0445 75.9067 69.8578 76.0463 69.6982C76.1858 69.5387 76.3568 69.4096 76.5485 69.3192C76.7402 69.2288 76.9485 69.1789 77.1604 69.1727C77.3723 69.1664 77.5832 69.2041 77.7798 69.2831C77.9765 69.3622 78.1548 69.481 78.3034 69.6321C78.4521 69.7832 78.5679 69.9634 78.6437 70.1613C78.7195 70.3593 78.7536 70.5707 78.7439 70.7825V70.7825Z" fill="#263238"/>
<path d="M85.2937 65.7025L84.4637 65.6125C81.7537 65.3625 78.2037 65.3425 76.0537 66.0425C73.3637 66.9225 72.4037 67.8725 70.9137 67.9025C69.4237 67.9325 68.3437 67.0125 65.5037 66.2425C63.2337 65.6225 59.4437 65.7825 56.5037 66.1325L55.5937 66.2525C55.2827 66.3631 55.0165 66.5727 54.8359 66.849C54.6553 67.1253 54.5702 67.4532 54.5937 67.7825C54.6867 68.4364 54.9761 69.0467 55.4237 69.5325C55.5549 69.7524 55.6495 69.9922 55.7037 70.2425C55.9837 71.4625 56.1337 73.8025 56.7037 75.0925C56.9714 75.7287 57.3469 76.314 57.8137 76.8225C57.9929 77.0049 58.1869 77.1721 58.3937 77.3225L58.7237 77.5525C59.0401 77.7428 59.3752 77.9002 59.7237 78.0225H59.8937L60.1637 78.1025L60.4437 78.1625C60.7332 78.2283 61.0274 78.2717 61.3237 78.2925H61.7037H62.1837C63.4754 78.3766 64.762 78.0645 65.8716 77.398C66.9813 76.7315 67.8611 75.7423 68.3937 74.5625C69.3937 72.7025 69.1537 70.0925 70.8537 70.0625H71.0137H71.1637C72.4137 70.3425 72.2137 72.7325 72.9737 74.4425C73.2573 75.1233 73.6528 75.752 74.1437 76.3025C74.2318 76.404 74.3253 76.5008 74.4237 76.5925L74.5737 76.7225L74.7337 76.8525L74.8837 76.9625L75.0337 77.0725L75.1637 77.1525L75.2437 77.2025C75.6977 77.4673 76.1903 77.6596 76.7037 77.7725H76.8437C77.4315 77.8983 78.0331 77.9487 78.6337 77.9225C79.7639 77.9706 80.8806 77.6611 81.8249 77.0382C82.7692 76.4152 83.4931 75.5105 83.8937 74.4525C84.4039 72.855 84.7884 71.22 85.0437 69.5625C85.0964 69.3232 85.2062 69.1002 85.3637 68.9125C85.8075 68.403 86.0895 67.7729 86.1737 67.1025C86.2537 66.4725 85.7637 65.7525 85.2937 65.7025ZM67.4737 72.9225C67.2653 73.8855 66.8105 74.778 66.1537 75.5125V75.5125C65.632 76.0351 65.0064 76.4422 64.3173 76.7075C63.6282 76.9728 62.8911 77.0903 62.1537 77.0525C61.4142 77.1082 60.673 76.9717 60.0019 76.6563C59.3308 76.3409 58.7527 75.8573 58.3237 75.2525L58.2037 75.0725L58.0937 74.8925L58.0037 74.7125L57.9337 74.5625L57.8737 74.4425V74.3325L57.8037 74.1525C57.7287 73.9802 57.6652 73.8032 57.6137 73.6225L57.4737 73.2725C57.4737 73.0825 57.3837 72.9125 57.3537 72.7525C57.3575 72.7193 57.3575 72.6857 57.3537 72.6525V72.5625C57.0937 71.2725 56.8037 68.7425 57.4437 68.1625C58.0837 67.5825 59.7837 66.9525 62.5137 67.1625H62.8137C63.2339 67.2047 63.6512 67.2715 64.0637 67.3625L64.5437 67.4725C64.9537 67.5768 65.3576 67.7037 65.7537 67.8525L66.1237 68.0025L66.5337 68.1925C66.5601 68.1979 66.5873 68.1979 66.6137 68.1925L66.7537 68.2825C67.0694 68.4395 67.3461 68.665 67.5637 68.9425C68.0237 69.8025 67.8237 71.4725 67.4737 72.9225ZM83.4737 72.0725C83.2437 73.0725 82.7437 75.2725 80.8037 76.2525C80.182 76.5645 79.499 76.7352 78.8037 76.7525C78.0199 76.8459 77.2256 76.7217 76.5077 76.3936C75.7898 76.0656 75.176 75.5462 74.7337 74.8925V74.8925L74.6637 74.7725L74.5837 74.6425C74.5837 74.6425 74.5837 74.5925 74.5837 74.5625C74.5444 74.499 74.5109 74.432 74.4837 74.3625L74.3737 74.1325C74.3737 74.1325 74.3737 74.0525 74.3737 74.0125V73.9525V73.8525V73.7725C74.2697 73.4616 74.1862 73.1443 74.1237 72.8225C73.8737 71.3925 73.7537 69.7225 74.2837 68.9225C74.8137 68.1225 76.8537 67.2125 78.8137 66.9225C79.2307 66.8556 79.6515 66.8155 80.0737 66.8025H80.9737H81.1837C81.3037 66.8025 81.4137 66.8025 81.5237 66.8025L82.1537 66.9025H82.3037H82.4037L82.5537 66.9525H82.7337L83.0337 67.0725C83.2818 67.1729 83.5091 67.3187 83.7037 67.5025C84.1737 68.2425 83.7937 70.7825 83.4737 72.0725Z" fill="#37474F"/>
<path d="M70.4038 70.2324L70.6638 79.9325L76.0838 78.3724L71.0838 70.1524C70.854 70.1232 70.6206 70.1507 70.4038 70.2324V70.2324Z" fill="#F0997A"/>
<path d="M86.5541 124.002C86.1341 113.942 85.3441 105.062 81.5541 100.342C77.7641 95.6224 75.7941 94.7224 66.9141 94.8624V95.4625C67.4168 95.5002 67.9042 95.6522 68.3392 95.907C68.7742 96.1617 69.1452 96.5125 69.4241 96.9325C72.4974 101.591 74.8033 106.713 76.2541 112.102C78.8341 121.882 79.2541 143.702 79.4041 155.462C79.5541 167.222 79.4041 176.692 79.4041 176.692C79.4041 176.692 85.4041 175.302 87.1941 172.332C87.2641 172.332 86.9841 134.062 86.5541 124.002Z" fill="#407BFF"/>
<path opacity="0.1" d="M86.5541 124.002C86.1341 113.942 85.3441 105.062 81.5541 100.342C77.7641 95.6224 75.7941 94.7224 66.9141 94.8624V95.4625C67.4168 95.5002 67.9042 95.6522 68.3392 95.907C68.7742 96.1617 69.1452 96.5125 69.4241 96.9325C72.4974 101.591 74.8033 106.713 76.2541 112.102C78.8341 121.882 79.2541 143.702 79.4041 155.462C79.5541 167.222 79.4041 176.692 79.4041 176.692C79.4041 176.692 85.4041 175.302 87.1941 172.332C87.2641 172.332 86.9841 134.062 86.5541 124.002Z" fill="black"/>
<path opacity="0.6" d="M86.5541 124.002C86.1341 113.942 85.3441 105.062 81.5541 100.342C77.7641 95.6224 75.7941 94.7224 66.9141 94.8624V95.4625C67.4168 95.5002 67.9042 95.6522 68.3392 95.907C68.7742 96.1617 69.1452 96.5125 69.4241 96.9325C72.4974 101.591 74.8033 106.713 76.2541 112.102C78.8341 121.882 79.2541 143.702 79.4041 155.462C79.5541 167.222 79.4041 176.692 79.4041 176.692C79.4041 176.692 85.4041 175.302 87.1941 172.332C87.2641 172.332 86.9841 134.062 86.5541 124.002Z" fill="white"/>
<path d="M55.8537 107.992C54.5937 102.632 51.9737 99.0924 50.8537 96.3624L35.2137 98.4724C31.1237 100.362 30.2937 104.352 30.6937 108.842L33.6037 141.842L32.7937 173.042C39.1337 182.902 58.0537 181.042 58.0537 181.042C58.0537 181.042 58.5937 167.042 57.9837 139.882C57.6437 124.652 57.4737 114.822 55.8537 107.992Z" fill="#407BFF"/>
<path opacity="0.6" d="M55.8537 107.992C54.5937 102.632 51.9737 99.0924 50.8537 96.3624L35.2137 98.4724C31.1237 100.362 30.2937 104.352 30.6937 108.842L33.6037 141.842L32.7937 173.042C39.1337 182.902 58.0537 181.042 58.0537 181.042C58.0537 181.042 58.5937 167.042 57.9837 139.882C57.6437 124.652 57.4737 114.822 55.8537 107.992Z" fill="white"/>
<path d="M56.3739 110.632C55.6439 107.182 55.2539 100.792 54.6539 99.5025C54.0539 98.2125 50.7439 95.6525 50.6539 93.9225L50.5939 92.8025C49.5523 93.0031 48.5906 93.4996 47.8239 94.2325C46.8239 95.1525 43.7139 97.2925 43.7139 97.2925C44.0199 99.4168 44.8103 101.442 46.0239 103.212C47.8339 105.832 50.3739 107.542 50.7739 106.892C51.1739 106.242 51.0939 105.262 51.7739 103.732C52.6139 101.822 52.7739 101.022 53.6939 102.902C54.3539 104.412 56.3739 110.632 56.3739 110.632Z" fill="#455A64"/>
<path d="M75.144 108.762C76.044 111.662 73.834 98.7625 72.304 96.4325C70.774 94.1025 66.834 93.2625 66.834 93.2625L67.004 96.0525C68.0301 96.3012 68.9257 96.9257 69.514 97.8025C71.8377 101.208 73.7289 104.89 75.144 108.762V108.762Z" fill="#455A64"/>
<path d="M41.7739 120.732L55.0039 119.612C55.0039 119.612 55.4039 128.012 55.4039 130.212C55.4039 131.592 53.2039 133.872 51.5639 135.382C51.0474 135.857 50.3983 136.163 49.7033 136.26C49.0082 136.356 48.3003 136.239 47.6739 135.922C45.6739 134.922 43.0739 133.322 42.8239 131.712C42.4739 129.112 41.7739 120.732 41.7739 120.732Z" fill="#455A64"/>
<path d="M80.8438 118.062H86.5537C86.5537 118.062 87.2537 124.882 87.2537 128.562C87.2537 131.212 87.0137 132.882 86.5337 132.882C85.5337 132.882 82.1437 130.582 81.8037 127.952C81.5337 125.782 80.8438 118.062 80.8438 118.062Z" fill="#455A64"/>
<path d="M56.7738 113.382C48.2636 114.25 39.8075 115.586 31.4438 117.382L31.5238 118.312C39.8979 116.518 48.3639 115.182 56.8839 114.312C56.8539 113.992 56.8138 113.682 56.7738 113.382Z" fill="#407BFF"/>
<path d="M85.7638 113.172C82.9938 112.842 79.8538 112.562 76.4038 112.392C76.4738 112.692 76.5538 113.012 76.6238 113.332C80.0338 113.512 83.1438 113.792 85.8738 114.122C85.8338 113.802 85.8038 113.472 85.7638 113.172Z" fill="#407BFF"/>
<path d="M35.1839 98.5925C27.8139 99.1925 23.6939 103.022 21.3839 111.062C18.8939 119.672 11.9439 143.862 10.3839 152.492C9.38389 157.792 7.87389 161.152 12.3839 164.642C18.1439 169.112 35.0139 181.502 45.1939 186.832C55.3739 192.162 71.4539 192.262 71.4539 192.262L60.2339 185.472L57.2339 181.532L28.4139 155.312L37.4139 124.242C37.4139 124.242 43.3539 104.992 35.1839 98.5925Z" fill="#FFBDA7"/>
<path d="M36.2438 98.3025C31.2438 98.5025 25.4538 98.2525 21.3938 108.532C17.3338 118.812 12.2638 139.742 10.2338 148.362C8.20383 156.982 7.05383 161.052 10.2338 163.842C13.4138 166.632 26.3638 174.922 26.3638 174.922C26.3638 174.922 30.8238 165.152 36.0038 162.212L28.8638 155.022L38.1938 123.562C38.1938 123.562 44.2438 106.862 36.2438 98.3025Z" fill="#407BFF"/>
<path opacity="0.75" d="M36.2438 98.3025C31.2438 98.5025 25.4538 98.2525 21.3938 108.532C17.3338 118.812 12.2638 139.742 10.2338 148.362C8.20383 156.982 7.05383 161.052 10.2338 163.842C13.4138 166.632 26.3638 174.922 26.3638 174.922C26.3638 174.922 30.8238 165.152 36.0038 162.212L28.8638 155.022L38.1938 123.562C38.1938 123.562 44.2438 106.862 36.2438 98.3025Z" fill="white"/>
<path d="M50.0538 176.552V177.552C50.0319 178.079 50.1522 178.603 50.4021 179.067C50.6519 179.532 51.0221 179.92 51.4738 180.192L79.3038 197.032C79.746 197.306 80.254 197.454 80.7738 197.462C81.2933 197.474 81.8067 197.349 82.2638 197.102L134.624 168.392C135.077 168.14 135.458 167.774 135.728 167.331C135.998 166.887 136.148 166.381 136.164 165.862V165.142L80.7938 195.472L50.0538 176.552Z" fill="#407BFF"/>
<g opacity="0.25">
<path opacity="0.25" d="M50.0538 176.552V177.552C50.0319 178.079 50.1522 178.603 50.4021 179.067C50.6519 179.532 51.0221 179.92 51.4738 180.192L79.3038 197.032C79.746 197.306 80.254 197.454 80.7738 197.462C81.2933 197.474 81.8067 197.349 82.2638 197.102L134.624 168.392C135.077 168.14 135.458 167.774 135.728 167.331C135.998 166.887 136.148 166.381 136.164 165.862V165.142L80.7938 195.472L50.0538 176.552Z" fill="black"/>
</g>
<path d="M136.144 165.142L105.884 146.762C105.614 146.61 105.309 146.53 104.999 146.53C104.689 146.53 104.384 146.61 104.114 146.762L50.2536 176.262C50.1933 176.296 50.143 176.346 50.1081 176.405C50.0731 176.465 50.0547 176.533 50.0547 176.602C50.0547 176.672 50.0731 176.74 50.1081 176.799C50.143 176.859 50.1933 176.909 50.2536 176.942L80.7936 195.472L136.144 165.142Z" fill="#407BFF"/>
<g opacity="0.15">
<path opacity="0.15" d="M136.144 165.142L105.884 146.762C105.614 146.61 105.309 146.53 104.999 146.53C104.689 146.53 104.384 146.61 104.114 146.762L50.2536 176.262C50.1933 176.296 50.143 176.346 50.1081 176.405C50.0731 176.465 50.0547 176.533 50.0547 176.602C50.0547 176.672 50.0731 176.74 50.1081 176.799C50.143 176.859 50.1933 176.909 50.2536 176.942L80.7936 195.472L136.144 165.142Z" fill="black"/>
</g>
<path d="M81.0436 192.612L64.7236 182.712L113.204 156.132L129.624 165.992L81.0436 192.612Z" fill="#455A64"/>
<path d="M73.0239 166.182L73.3239 166.362L81.3239 171.212L95.9239 163.212L96.2239 163.052L87.9239 158.012L73.0239 166.182Z" fill="#37474F"/>
<path d="M73.3237 166.362L81.3237 171.212L95.9237 163.212L87.9137 158.352L73.3237 166.362Z" fill="#455A64"/>
<path d="M80.7939 195.472V197.472C81.3134 197.484 81.8268 197.359 82.2839 197.112L134.644 168.402C135.098 168.15 135.478 167.784 135.748 167.341C136.018 166.897 136.168 166.391 136.184 165.872V165.152L80.7939 195.472Z" fill="#407BFF"/>
<g opacity="0.03">
<path opacity="0.03" d="M80.7939 195.472V197.472C81.3134 197.484 81.8268 197.359 82.2839 197.112L134.644 168.402C135.098 168.15 135.478 167.784 135.748 167.341C136.018 166.897 136.168 166.391 136.184 165.872V165.152L80.7939 195.472Z" fill="white"/>
</g>
<g opacity="0.4">
<path opacity="0.4" d="M80.7939 195.472V197.472C81.3134 197.484 81.8268 197.359 82.2839 197.112L134.644 168.402C135.098 168.15 135.478 167.784 135.748 167.341C136.018 166.897 136.168 166.391 136.184 165.872V165.152L80.7939 195.472Z" fill="black"/>
</g>
<path d="M81.6138 195.952C82.0948 196.15 82.6139 196.237 83.1331 196.208C83.6522 196.179 84.1582 196.033 84.6138 195.782L136.754 167.192C137.205 166.944 137.595 166.599 137.898 166.183C138.2 165.766 138.407 165.288 138.504 164.782L144.884 131.302C144.924 131.115 144.944 130.924 144.944 130.732C144.951 130.267 144.867 129.805 144.695 129.373C144.524 128.94 144.268 128.546 143.944 128.212L89.7638 157.932C89.4304 158.116 89.1412 158.371 88.9166 158.678C88.6921 158.986 88.5375 159.339 88.4638 159.712L81.6138 195.952Z" fill="#407BFF"/>
<g opacity="0.3">
<path opacity="0.3" d="M81.6138 195.952C82.0948 196.15 82.6139 196.237 83.1331 196.208C83.6522 196.179 84.1582 196.033 84.6138 195.782L136.754 167.192C137.205 166.944 137.595 166.599 137.898 166.183C138.2 165.766 138.407 165.288 138.504 164.782L144.884 131.302C144.924 131.115 144.944 130.924 144.944 130.732C144.951 130.267 144.867 129.805 144.695 129.373C144.524 128.94 144.268 128.546 143.944 128.212L89.7638 157.932C89.4304 158.116 89.1412 158.371 88.9166 158.678C88.6921 158.986 88.5375 159.339 88.4638 159.712L81.6138 195.952Z" fill="black"/>
</g>
<path d="M80.7939 195.472L81.1339 195.682C81.2939 195.772 81.4539 195.862 81.6139 195.932L88.4739 159.712C88.5477 159.339 88.7023 158.986 88.9268 158.679C89.1514 158.371 89.4405 158.116 89.7739 157.932L143.954 128.212C143.743 128 143.508 127.812 143.254 127.652L88.9939 157.472C88.6605 157.656 88.3714 157.911 88.1468 158.219C87.9222 158.526 87.7677 158.879 87.6939 159.252L80.7939 195.472Z" fill="#407BFF"/>
<g opacity="0.1">
<path opacity="0.1" d="M80.7939 195.472L81.1339 195.682C81.2939 195.772 81.4539 195.862 81.6139 195.932L88.4739 159.712C88.5477 159.339 88.7023 158.986 88.9268 158.679C89.1514 158.371 89.4405 158.116 89.7739 157.932L143.954 128.212C143.743 128 143.508 127.812 143.254 127.652L88.9939 157.472C88.6605 157.656 88.3714 157.911 88.1468 158.219C87.9222 158.526 87.7677 158.879 87.6939 159.252L80.7939 195.472Z" fill="black"/>
</g>
<path opacity="0.1" d="M89.0139 158.612L88.2039 158.112C87.951 158.431 87.7764 158.804 87.6939 159.202L80.7939 195.472L81.1339 195.682C81.2939 195.772 81.4539 195.862 81.6139 195.932L88.4739 159.712C88.5634 159.308 88.7485 158.931 89.0139 158.612Z" fill="black"/>
<path d="M111.294 165.562C111.714 163.322 114.104 160.382 116.624 159.002C119.144 157.622 120.844 158.322 120.414 160.562C119.984 162.802 117.604 165.742 115.084 167.122C112.564 168.502 110.864 167.802 111.294 165.562Z" fill="#455A64"/>
<path d="M48.3839 173.472C51.3839 176.052 55.8839 173.972 59.7539 174.472C63.6239 174.972 66.9339 175.882 70.0339 175.792C73.1339 175.702 74.6739 176.332 72.5039 178.792C70.3339 181.252 64.0839 179.852 62.4039 180.602C61.9144 180.877 61.4955 181.262 61.1799 181.727C60.8643 182.191 60.6607 182.722 60.5851 183.278C60.5095 183.835 60.564 184.401 60.7442 184.933C60.9245 185.464 61.2256 185.947 61.6239 186.342C63.4439 188.462 51.2339 184.342 49.6239 181.852C48.0139 179.362 46.1639 173.802 48.3839 173.472Z" fill="#FFBDA7"/>
</svg>
