<svg width="162" height="478" viewBox="0 0 162 478" fill="none" xmlns="http://www.w3.org/2000/svg">
<path d="M71.2732 388.359C105.382 388.359 133.033 372.667 133.033 353.309C133.033 333.952 105.382 318.259 71.2732 318.259C37.1641 318.259 9.51318 333.952 9.51318 353.309C9.51318 372.667 37.1641 388.359 71.2732 388.359Z" fill="#E0E0E0"/>
<path d="M75.0231 50.4391C75.0132 51.0212 74.8314 51.5873 74.5004 52.0662C74.1694 52.5451 73.7041 52.9154 73.1631 53.1304C72.6221 53.3454 72.0296 53.3956 71.4602 53.2746C70.8908 53.1535 70.3698 52.8667 69.9631 52.4502C69.5563 52.0337 69.2819 51.5062 69.1743 50.9341C69.0668 50.362 69.1309 49.7708 69.3586 49.235C69.5864 48.6993 69.9675 48.2429 70.4541 47.9233C70.9407 47.6037 71.511 47.4352 72.0931 47.4391C72.4835 47.4403 72.8696 47.5193 73.2291 47.6714C73.5886 47.8235 73.9143 48.0456 74.187 48.3249C74.4598 48.6041 74.6741 48.9349 74.8177 49.2979C74.9613 49.6609 75.0311 50.0488 75.0231 50.4391V50.4391Z" fill="#37474F"/>
<path d="M68.5528 50.5891C66.6128 49.4491 66.6228 47.5891 68.5528 46.5091C69.6469 45.9547 70.8563 45.6658 72.0828 45.6658C73.3094 45.6658 74.5187 45.9547 75.6128 46.5091C77.5628 47.6391 77.5428 49.5091 75.6128 50.5791C74.5197 51.1358 73.3107 51.4269 72.084 51.4286C70.8573 51.4303 69.6475 51.1427 68.5528 50.5891V50.5891Z" fill="#455A64"/>
<path d="M68.4531 49.5291C66.4531 48.3491 66.4531 46.4691 68.4531 45.3191C69.584 44.751 70.8336 44.4593 72.0992 44.468C73.3647 44.4767 74.6101 44.7855 75.7331 45.3691C77.7331 46.5391 77.7331 48.3691 75.7331 49.5691C74.603 50.1387 73.3539 50.4321 72.0883 50.4252C70.8228 50.4182 69.5769 50.1111 68.4531 49.5291Z" fill="#37474F"/>
<path d="M68.353 48.4291C66.283 47.2191 66.293 45.2791 68.353 44.0991C69.5162 43.5072 70.8028 43.1987 72.108 43.1987C73.4131 43.1987 74.6998 43.5072 75.863 44.0991C77.923 45.3091 77.913 47.2491 75.863 48.4291C74.7002 49.0225 73.4134 49.3319 72.108 49.3319C70.8025 49.3319 69.5157 49.0225 68.353 48.4291Z" fill="#455A64"/>
<path d="M68.2432 47.2991C66.1132 46.0491 66.1232 44.0491 68.2432 42.8291C69.4424 42.2204 70.7683 41.9031 72.1132 41.9031C73.458 41.9031 74.7839 42.2204 75.9832 42.8291C78.1132 44.0791 78.1032 46.0791 75.9832 47.2991C74.7844 47.9094 73.4583 48.2275 72.1132 48.2275C70.768 48.2275 69.4419 47.9094 68.2432 47.2991V47.2991Z" fill="#37474F"/>
<path d="M68.1729 46.1091C65.9929 44.8391 66.0129 42.7991 68.1729 41.5591C69.397 40.938 70.7503 40.6144 72.1229 40.6144C73.4956 40.6144 74.8488 40.938 76.0729 41.5591C78.2429 42.8291 78.2329 44.8691 76.0729 46.1191C74.8485 46.7402 73.4947 47.063 72.1217 47.0613C70.7488 47.0595 69.3957 46.7333 68.1729 46.1091V46.1091Z" fill="#455A64"/>
<path d="M72.3229 11.8291C70.4743 11.8133 68.6409 12.1637 66.9285 12.8601C65.2161 13.5566 63.6585 14.5853 62.3458 15.8869C61.033 17.1885 59.991 18.7372 59.28 20.4437C58.5689 22.1501 58.2029 23.9804 58.2029 25.8291C58.1429 36.9691 67.3229 38.8291 67.2929 43.3591C67.326 43.7872 67.4734 44.1986 67.7196 44.5504C67.9659 44.9022 68.302 45.1815 68.693 45.3591C69.7546 45.8968 70.9279 46.177 72.1179 46.177C73.308 46.177 74.4813 45.8968 75.5429 45.3591C75.9395 45.1857 76.2818 44.9082 76.5335 44.5561C76.7852 44.204 76.9371 43.7904 76.9729 43.3591V43.3591C76.9729 38.8691 86.2029 37.0691 86.2629 25.9391C86.2774 24.0964 85.928 22.269 85.2347 20.5616C84.5413 18.8542 83.5178 17.3006 82.2227 15.9897C80.9276 14.6788 79.3864 13.6364 77.6876 12.9225C75.9888 12.2085 74.1657 11.8369 72.3229 11.8291V11.8291Z" fill="#407BFF"/>
<g opacity="0.6">
<path opacity="0.6" d="M72.3229 11.8291C70.4743 11.8133 68.6409 12.1637 66.9285 12.8601C65.2161 13.5566 63.6585 14.5853 62.3458 15.8869C61.033 17.1885 59.991 18.7372 59.28 20.4437C58.5689 22.1501 58.2029 23.9804 58.2029 25.8291C58.1429 36.9691 67.3229 38.8291 67.2929 43.3591C67.326 43.7872 67.4734 44.1986 67.7196 44.5504C67.9659 44.9022 68.302 45.1815 68.693 45.3591C69.7546 45.8968 70.9279 46.177 72.1179 46.177C73.308 46.177 74.4813 45.8968 75.5429 45.3591C75.9395 45.1857 76.2818 44.9082 76.5335 44.5561C76.7852 44.204 76.9371 43.7904 76.9729 43.3591V43.3591C76.9729 38.8691 86.2029 37.0691 86.2629 25.9391C86.2774 24.0964 85.928 22.269 85.2347 20.5616C84.5413 18.8542 83.5178 17.3006 82.2227 15.9897C80.9276 14.6788 79.3864 13.6364 77.6876 12.9225C75.9888 12.2085 74.1657 11.8369 72.3229 11.8291V11.8291Z" fill="white"/>
</g>
<path d="M69.553 44.6891C68.133 43.8591 68.143 42.5291 69.553 41.6891C70.3511 41.2849 71.2333 41.0743 72.128 41.0743C73.0227 41.0743 73.9048 41.2849 74.7029 41.6891C76.1229 42.5191 76.1129 43.8491 74.7029 44.6891C73.9059 45.0972 73.0234 45.31 72.128 45.31C71.2326 45.31 70.35 45.0972 69.553 44.6891V44.6891Z" fill="#407BFF"/>
<path d="M74.0227 42.8891C73.8989 42.8865 73.7808 42.8362 73.6932 42.7486C73.6057 42.661 73.5553 42.5429 73.5527 42.4191C73.5706 39.7224 73.9063 37.0372 74.5527 34.4191C74.7403 33.661 74.9775 32.9161 75.2627 32.1891C74.8395 32.0319 74.434 31.8308 74.0527 31.5891C73.3607 31.1457 72.7402 30.5994 72.2127 29.9691C71.6688 30.5775 71.0388 31.103 70.3428 31.5291C69.9578 31.7651 69.5488 31.9595 69.1228 32.1091C69.3958 32.8409 69.6229 33.589 69.8027 34.3491C70.432 36.9691 70.7475 39.6546 70.7427 42.3491C70.7375 42.4746 70.6833 42.5931 70.5917 42.6792C70.5001 42.7652 70.3784 42.8118 70.2528 42.8091C70.1902 42.8078 70.1284 42.794 70.0712 42.7686C70.014 42.7431 69.9625 42.7065 69.9197 42.6609C69.8768 42.6152 69.8435 42.5615 69.8217 42.5028C69.7999 42.4441 69.7901 42.3816 69.7927 42.3191C69.7894 39.7027 69.484 37.0955 68.8827 34.5491C68.7069 33.7889 68.4729 33.0434 68.1827 32.3191C67.7101 32.4096 67.2225 32.3851 66.7613 32.2476C66.3001 32.1101 65.8787 31.8637 65.5327 31.5291C65.2651 31.2748 65.0984 30.9322 65.0635 30.5646C65.0286 30.1971 65.1278 29.8293 65.3428 29.5291C65.4815 29.3207 65.6795 29.1588 65.9113 29.0644C66.1431 28.9699 66.3979 28.9471 66.6427 28.9991C67.3927 29.1491 68.1127 29.9191 68.7327 31.1891C69.1213 31.0542 69.4936 30.8764 69.8428 30.6591C70.5152 30.2531 71.1193 29.7435 71.6327 29.1491C71.3438 28.7717 71.1346 28.3395 71.0177 27.8789C70.9009 27.4182 70.8787 26.9386 70.9527 26.4691C71.0374 26.1958 71.2073 25.9567 71.4377 25.7869C71.668 25.6172 71.9466 25.5256 72.2327 25.5256C72.5189 25.5256 72.7975 25.6172 73.0278 25.7869C73.2582 25.9567 73.4281 26.1958 73.5127 26.4691C73.5794 26.939 73.5509 27.4175 73.429 27.8762C73.307 28.3349 73.094 28.7644 72.8027 29.1391C73.3019 29.7483 73.9003 30.269 74.5727 30.6791C74.9173 30.901 75.2864 31.0822 75.6727 31.2191C76.3027 29.9591 77.0427 29.2191 77.7927 29.0491C78.038 29.0053 78.2906 29.034 78.5198 29.1317C78.7489 29.2294 78.9446 29.3918 79.0827 29.5991C79.2932 29.9023 79.3878 30.271 79.3493 30.6381C79.3107 31.0052 79.1416 31.3462 78.8728 31.5991C78.5229 31.9299 78.0986 32.1717 77.6356 32.304C77.1726 32.4363 76.6846 32.4552 76.2127 32.3591C75.9158 33.0804 75.6718 33.8223 75.4827 34.5791C74.8504 37.1184 74.5148 39.7225 74.4827 42.3391C74.4841 42.4021 74.473 42.4648 74.4501 42.5236C74.4271 42.5823 74.3929 42.636 74.3493 42.6815C74.3056 42.727 74.2534 42.7634 74.1957 42.7888C74.1379 42.8141 74.0758 42.8278 74.0127 42.8291L74.0227 42.8891ZM66.3827 29.9691C66.3027 29.9691 66.2127 29.9691 66.1027 30.1491C65.8727 30.4591 66.1028 30.8091 66.2328 30.8991C66.4316 31.0933 66.6711 31.2407 66.9341 31.3306C67.197 31.4206 67.4767 31.4508 67.7527 31.4191C67.2527 30.4891 66.7527 30.0391 66.4527 29.9791L66.3827 29.9691ZM76.6528 31.4691C76.9265 31.5019 77.204 31.4752 77.4664 31.3906C77.7288 31.306 77.9698 31.1656 78.1727 30.9791C78.2627 30.8791 78.5428 30.5391 78.3128 30.2191C78.0828 29.8991 78.0728 30.0291 77.9728 30.0491C77.6528 30.1391 77.1628 30.5791 76.6528 31.4991V31.4691ZM72.2327 26.5291C72.151 26.5168 72.0676 26.5357 71.999 26.582C71.9305 26.6283 71.8819 26.6986 71.8627 26.7791C71.7911 27.3255 71.919 27.8793 72.2228 28.3391C72.5293 27.8841 72.6608 27.3335 72.5928 26.7891C72.5528 26.6591 72.4727 26.5591 72.2327 26.5591V26.5291Z" fill="white"/>
<path d="M72.433 6.4891C72.3533 6.49946 72.2726 6.49946 72.193 6.4891C71.949 6.4891 71.715 6.39217 71.5424 6.21964C71.3699 6.0471 71.2729 5.8131 71.2729 5.5691V0.829098C71.2966 0.602919 71.4032 0.393523 71.5722 0.241318C71.7412 0.0891123 71.9605 0.00488281 72.188 0.00488281C72.4154 0.00488281 72.6347 0.0891123 72.8037 0.241318C72.9727 0.393523 73.0793 0.602919 73.1029 0.829098V5.6091C73.1018 5.80859 73.0358 6.00229 72.9149 6.16102C72.7941 6.31975 72.6249 6.43489 72.433 6.4891V6.4891Z" fill="#E0E0E0"/>
<path d="M62.243 9.21908C62.0533 9.26405 61.8543 9.2476 61.6745 9.17212C61.4948 9.09663 61.3437 8.96601 61.243 8.79908L58.853 4.65908C58.7472 4.44938 58.7256 4.20715 58.7927 3.98205C58.8597 3.75694 59.0103 3.56601 59.2136 3.44837C59.4169 3.33074 59.6575 3.29532 59.8861 3.34937C60.1147 3.40342 60.3139 3.54285 60.443 3.73908L62.833 7.87908C62.9534 8.08897 62.9863 8.33785 62.9246 8.57182C62.8628 8.80579 62.7113 9.006 62.503 9.12908C62.4209 9.17092 62.3334 9.20121 62.243 9.21908Z" fill="#E0E0E0"/>
<path d="M54.7829 16.6891C54.6661 16.7215 54.5441 16.7302 54.4239 16.7147C54.3037 16.6993 54.1878 16.66 54.0829 16.5991L49.9429 14.2091C49.7329 14.0877 49.5793 13.8882 49.5157 13.6541C49.452 13.42 49.4834 13.1702 49.6029 12.9591C49.7263 12.7484 49.9276 12.5946 50.1633 12.531C50.399 12.4674 50.6503 12.499 50.8629 12.6191L55.0229 14.9691C55.233 15.0905 55.3866 15.29 55.4502 15.5241C55.5139 15.7582 55.4825 16.008 55.3629 16.2191C55.3055 16.3344 55.224 16.436 55.124 16.5171C55.0239 16.5982 54.9076 16.6568 54.7829 16.6891V16.6891Z" fill="#E0E0E0"/>
<path d="M52.0231 26.8891C51.9435 26.8995 51.8628 26.8995 51.7831 26.8891H47.0231C46.8949 26.9025 46.7653 26.8888 46.6428 26.849C46.5202 26.8091 46.4074 26.7439 46.3116 26.6577C46.2158 26.5714 46.1393 26.466 46.0868 26.3482C46.0344 26.2304 46.0073 26.103 46.0073 25.9741C46.0073 25.8452 46.0344 25.7177 46.0868 25.6C46.1393 25.4822 46.2158 25.3768 46.3116 25.2905C46.4074 25.2043 46.5202 25.1391 46.6428 25.0992C46.7653 25.0593 46.8949 25.0457 47.0231 25.0591H51.8031C52.0454 25.0591 52.2779 25.1546 52.4501 25.325C52.6224 25.4954 52.7205 25.7268 52.7231 25.9691C52.7274 26.1789 52.6605 26.384 52.5334 26.5511C52.4063 26.7181 52.2265 26.8372 52.0231 26.8891V26.8891Z" fill="#E0E0E0"/>
<path d="M94.2432 39.4491C94.1264 39.4809 94.0044 39.4893 93.8842 39.4739C93.7641 39.4584 93.6482 39.4194 93.5432 39.3591L89.4032 36.9691C89.1949 36.846 89.0434 36.6458 88.9817 36.4118C88.9199 36.1779 88.9528 35.929 89.0732 35.7191C89.1322 35.6139 89.2118 35.5217 89.3072 35.4479C89.4025 35.3741 89.5117 35.3202 89.6283 35.2894C89.7449 35.2586 89.8665 35.2516 89.9859 35.2687C90.1053 35.2858 90.22 35.3268 90.3232 35.3891L94.4632 37.7691C94.674 37.8924 94.8277 38.0937 94.8914 38.3294C94.955 38.5652 94.9233 38.8165 94.8032 39.0291C94.6776 39.236 94.477 39.3864 94.2432 39.4491Z" fill="#E0E0E0"/>
<path d="M50.3929 39.4491C50.5097 39.4815 50.6318 39.4902 50.752 39.4747C50.8722 39.4593 50.9881 39.4199 51.0929 39.3591L55.2329 36.9691C55.3367 36.9087 55.4275 36.8284 55.5002 36.7329C55.5729 36.6374 55.6261 36.5285 55.6568 36.4124C55.6874 36.2964 55.6949 36.1754 55.6788 36.0564C55.6627 35.9375 55.6233 35.8228 55.5629 35.7191C55.5025 35.6153 55.4222 35.5245 55.3267 35.4518C55.2312 35.3791 55.1223 35.3258 55.0063 35.2952C54.8902 35.2646 54.7692 35.2571 54.6502 35.2732C54.5313 35.2893 54.4166 35.3287 54.3129 35.3891L50.1729 37.7691C49.9658 37.8958 49.8158 38.0978 49.7543 38.3327C49.6928 38.5675 49.7245 38.8171 49.8429 39.0291C49.9646 39.2353 50.1619 39.386 50.3929 39.4491V39.4491Z" fill="#E0E0E0"/>
<path d="M97.6129 26.8691C97.5332 26.8787 97.4527 26.8787 97.373 26.8691H92.593C92.4648 26.8825 92.3352 26.8688 92.2126 26.829C92.09 26.7891 91.9772 26.7239 91.8814 26.6377C91.7856 26.5514 91.7091 26.446 91.6567 26.3282C91.6043 26.2104 91.5771 26.083 91.5771 25.9541C91.5771 25.8252 91.6043 25.6977 91.6567 25.58C91.7091 25.4622 91.7856 25.3568 91.8814 25.2705C91.9772 25.1843 92.09 25.1191 92.2126 25.0792C92.3352 25.0393 92.4648 25.0257 92.593 25.0391H97.373C97.6143 25.0391 97.8458 25.135 98.0164 25.3056C98.1871 25.4763 98.283 25.7077 98.283 25.9491C98.2907 26.1554 98.2288 26.3583 98.1073 26.5251C97.9857 26.692 97.8116 26.8131 97.6129 26.8691V26.8691Z" fill="#E0E0E0"/>
<path d="M90.103 16.6791C89.8879 16.738 89.6589 16.7168 89.4583 16.6195C89.2577 16.5221 89.0993 16.3553 89.0125 16.1499C88.9257 15.9446 88.9165 15.7147 88.9864 15.503C89.0564 15.2913 89.2009 15.1122 89.393 14.9991L93.533 12.6091C93.6367 12.5487 93.7513 12.5093 93.8703 12.4932C93.9893 12.4771 94.1102 12.4846 94.2263 12.5152C94.3424 12.5458 94.4513 12.5991 94.5468 12.6718C94.6423 12.7445 94.7226 12.8353 94.783 12.9391C94.8434 13.0428 94.8828 13.1575 94.8989 13.2764C94.915 13.3954 94.9075 13.5164 94.8769 13.6324C94.8462 13.7485 94.793 13.8574 94.7203 13.9529C94.6475 14.0484 94.5567 14.1287 94.453 14.1891L90.313 16.5791C90.2471 16.6205 90.1766 16.654 90.103 16.6791Z" fill="#E0E0E0"/>
<path d="M82.6332 9.20911C82.5167 9.24384 82.3942 9.25377 82.2736 9.23827C82.1531 9.22277 82.0371 9.18218 81.9332 9.11911C81.7231 8.99768 81.5696 8.7982 81.5059 8.56409C81.4422 8.32998 81.4736 8.08019 81.5932 7.86911L84.0232 3.7291C84.1523 3.53287 84.3515 3.39344 84.5801 3.33939C84.8087 3.28534 85.0493 3.32076 85.2526 3.43839C85.4559 3.55603 85.6065 3.74696 85.6735 3.97207C85.7406 4.19717 85.719 4.4394 85.6132 4.6491L83.2232 8.7891C83.1603 8.89696 83.0751 8.9902 82.9734 9.06261C82.8717 9.13503 82.7557 9.18496 82.6332 9.20911V9.20911Z" fill="#E0E0E0"/>
<path d="M94.3532 86.2991V85.9691C95.9072 84.242 96.9067 82.088 97.2223 79.7862C97.5379 77.4843 97.155 75.1408 96.1232 73.0591C95.1759 70.9877 93.6089 69.2614 91.6386 68.1186C89.6682 66.9758 87.3917 66.4728 85.1232 66.6791V66.6791C81.7022 64.317 77.6301 63.0796 73.4732 63.1391C70.4284 63.1378 67.413 63.7364 64.5996 64.9007C61.7861 66.0651 59.2296 67.7723 57.076 69.9249C54.9225 72.0775 53.2142 74.6332 52.0487 77.4462C50.8831 80.2592 50.2832 83.2743 50.2832 86.3191C50.2832 88.3191 50.1932 90.3991 50.2832 92.4291C50.3432 95.6391 49.2332 97.4291 47.5132 98.6891C45.4532 100.149 43.1732 101.279 41.1332 102.759C39.2086 104.247 37.8679 106.364 37.3452 108.74C36.8224 111.116 37.1509 113.601 38.2732 115.759C38.9432 116.959 39.7032 118.119 39.0532 119.519C38.6541 120.284 38.0696 120.938 37.3532 121.419C36.6532 121.929 35.9132 122.359 35.2432 122.909C34.1434 123.868 33.3177 125.102 32.8504 126.485C32.3831 127.867 32.2909 129.349 32.5832 130.779C33.2732 134.149 35.7432 136.219 38.6732 137.659C44.6626 140.512 51.3022 141.723 57.9132 141.169C64.4832 140.679 69.7632 138.589 75.6232 135.559C81.3186 132.593 86.1591 128.217 89.6832 122.849C91.6589 120.214 93.056 117.191 93.7832 113.979C94.3209 110.728 94.5652 107.434 94.5132 104.139C94.5132 100.989 94.4032 93.3091 94.4032 87.8991L94.3532 86.2991Z" fill="#263238"/>
<path d="M84.2931 114.599C88.0931 114.999 93.4431 114.879 96.6331 120.369C99.8231 125.859 114.753 165.609 114.753 165.609H100.613L84.2031 132.609L84.2931 114.599Z" fill="#B16668"/>
<path d="M43.7931 337.589C43.2897 340.416 43.0188 343.278 42.9831 346.149C42.8831 351.339 41.9231 353.149 41.8031 357.439C41.6531 362.309 42.4931 364.129 44.4731 366.869C46.4531 369.609 51.6331 372.079 53.8231 367.459C56.0131 362.839 55.7331 359.799 55.0331 355.029C54.3131 350.089 54.2131 347.369 53.7931 343.599C53.4231 340.279 52.9831 337.759 52.9831 337.759L43.7931 337.589Z" fill="#263238"/>
<path d="M58.5331 296.769L41.4331 296.459C41.6831 307.879 43.5031 326.879 43.7931 337.589C43.8531 339.589 43.7431 353.259 44.5031 357.409C45.6431 363.639 53.0431 362.799 53.4331 359.069C53.8231 355.339 52.9631 339.399 52.9831 337.759C52.9231 330.889 56.1431 312.959 57.8231 300.629C57.9131 300.029 58.4531 297.359 58.5331 296.769Z" fill="#B16668"/>
<path d="M83.663 328.709C83.663 328.709 82.783 328.759 82.663 329.479C82.543 330.199 82.453 331.689 82.103 333.099C81.5196 335.305 81.3134 337.594 81.493 339.869C81.783 341.459 85.423 343.869 87.913 344.259C90.403 344.649 93.913 347.129 95.863 348.969C98.9931 351.557 102.868 353.078 106.923 353.309C111.073 353.309 113.973 351.929 115.343 349.709C116.713 347.489 114.093 347.209 109.343 344.129L105.653 341.739C98.133 336.829 95.383 334.189 93.253 329.279L83.663 328.709Z" fill="#263238"/>
<path d="M93.2929 326.039C93.1729 322.499 94.9829 296.459 94.9829 296.459L80.2729 298.119C83.7429 318.879 84.0229 325.969 83.6329 328.969C83.556 329.252 83.5256 329.546 83.5429 329.839C83.5429 333.839 88.103 336.049 91.653 338.729C93.063 339.799 96.6529 343.069 100.883 344.509C103.623 345.439 108.673 345.789 109.323 344.129C105.003 340.829 99.123 336.519 95.683 332.749C94.023 330.969 93.4229 329.569 93.2929 326.039Z" fill="#B16668"/>
<path d="M44.3933 179.479C39.1633 202.409 45.6833 257.269 45.6833 257.269C45.4433 260.119 42.1933 265.719 40.9833 278.269C39.5533 293.059 43.6233 332.659 43.6233 332.659C43.6233 332.659 47.5332 335.579 53.2032 332.859C53.2032 332.859 63.5533 274.679 65.4033 259.979C67.0233 247.139 71.5533 216.129 71.5533 216.129L78.9633 259.909C77.6711 264.045 76.7343 268.284 76.1633 272.579C75.3333 281.229 83.7533 324.639 83.7533 324.639C83.7533 324.639 87.6932 326.719 93.2932 324.449C93.2932 324.449 98.7032 268.699 99.4832 258.279C100.483 244.329 97.8432 200.739 96.4832 180.419L44.3933 179.479Z" fill="#37474F"/>
<path opacity="0.6" d="M71.5532 216.089L73.4532 203.029C73.4532 203.029 84.4532 201.549 89.4532 196.859C88.0229 199.099 86.1164 200.996 83.8694 202.415C81.6225 203.834 79.0903 204.74 76.4532 205.069L74.5032 216.889L78.1932 255.479L71.5532 216.089Z" fill="#263238"/>
<path d="M92.5531 148.769C93.2231 154.979 96.8231 182.329 96.8231 182.329C76.3231 193.269 47.5531 185.939 43.6631 181.429C47.1931 169.829 52.7331 163.549 54.8731 159.929L51.1331 144.269C51.1331 144.269 61.4931 131.599 54.4731 116.039L63.2131 115.099L78.5531 114.599H84.2931C86.7431 116.889 92.6531 122.369 95.1431 128.759C96.7531 132.889 98.3131 136.549 92.5531 148.769Z" fill="#F0F0F0"/>
<path d="M53.2131 152.449C53.3931 153.159 58.5431 159.989 60.8931 161.449C63.2431 162.909 56.7231 165.019 55.8031 168.729C53.9431 176.229 65.5431 186.089 79.9631 187.459C63.6631 190.139 46.6331 184.829 43.6631 181.389C47.1931 169.789 52.7431 163.479 54.8731 159.889L53.2131 152.449Z" fill="#E0E0E0"/>
<path d="M54.4731 116.039C44.0731 116.419 42.7331 121.379 40.6231 127.319C37.7531 135.619 32.3731 156.159 30.4331 165.609H46.1331L51.1331 144.269C60.5631 135.569 57.8431 120.429 54.4731 116.039Z" fill="#B16668"/>
<path d="M91.8334 98.7391C92.795 98.7372 93.7356 99.0205 94.5362 99.5533C95.3367 100.086 95.9612 100.844 96.3306 101.732C96.6999 102.62 96.7976 103.598 96.6112 104.541C96.4248 105.485 95.9627 106.351 95.2834 107.032C94.6042 107.713 93.7382 108.177 92.7952 108.365C91.8522 108.553 90.8745 108.458 89.9858 108.09C89.0972 107.723 88.3376 107.1 87.8031 106.3C87.2687 105.501 86.9834 104.561 86.9834 103.599C86.9834 102.312 87.494 101.077 88.4033 100.166C89.3126 99.255 90.5462 98.7418 91.8334 98.7391ZM91.8334 97.7391C90.6739 97.7372 89.54 98.0792 88.575 98.7219C87.61 99.3646 86.8574 100.279 86.4123 101.35C85.9673 102.42 85.8498 103.599 86.0748 104.736C86.2997 105.874 86.8571 106.919 87.6762 107.739C88.4953 108.56 89.5394 109.119 90.6764 109.346C91.8134 109.573 92.9922 109.457 94.0636 109.014C95.135 108.571 96.0507 107.82 96.6951 106.856C97.3394 105.892 97.6834 104.759 97.6834 103.599C97.6847 102.83 97.5343 102.068 97.2409 101.357C96.9475 100.646 96.5168 100 95.9735 99.4561C95.4301 98.9118 94.7848 98.48 94.0744 98.1854C93.364 97.8908 92.6024 97.7391 91.8334 97.7391V97.7391Z" fill="#407BFF"/>
<path d="M88.2231 74.3691C90.8331 75.8291 94.4331 78.8691 93.3331 92.3691C92.4731 102.929 88.4531 106.819 86.6031 107.679C84.7531 108.539 82.3931 108.679 78.8731 108.159L78.9731 114.479C78.9731 114.479 85.7831 121.709 84.9231 123.709C83.9231 126.129 75.9731 125.819 72.5631 124.329C68.4905 122.457 65.2357 119.17 63.4031 115.079V99.4591C63.4031 99.4591 61.4031 101.459 57.8131 98.5291C54.8731 96.0691 53.8131 91.8291 56.0031 89.5291C56.5812 88.9385 57.3017 88.5067 58.0952 88.2755C58.8886 88.0443 59.7283 88.0214 60.5331 88.2091C61.4068 88.4417 62.2159 88.8707 62.8987 89.4634C63.5815 90.0561 64.12 90.7968 64.4731 91.6291C64.5308 91.8019 64.6289 91.9583 64.7594 92.0853C64.8899 92.2123 65.0489 92.3062 65.2231 92.3591C65.3585 92.3711 65.4947 92.35 65.6201 92.2978C65.7455 92.2455 65.8563 92.1636 65.9431 92.0591C66.1202 91.8515 66.2529 91.6099 66.3331 91.3491C67.1731 89.1391 66.9131 86.7691 67.5231 84.5091C68.0148 82.7582 68.8625 81.1275 70.0131 79.7191C72.7323 76.502 76.5778 74.4452 80.7631 73.9691C83.2544 73.6762 85.7775 73.8115 88.2231 74.3691V74.3691Z" fill="#B16668"/>
<path d="M90.073 74.2791C90.953 78.4591 88.073 85.5091 80.583 85.2791C80.583 85.2791 83.633 82.9591 84.013 80.3691C82.6714 82.2086 80.9184 83.709 78.894 84.7508C76.8696 85.7925 74.6296 86.3467 72.353 86.3691C65.973 86.6391 64.353 85.1991 64.353 85.1991C64.353 85.1991 70.563 64.7991 90.073 74.2791Z" fill="#263238"/>
<path d="M77.2132 88.7391C77.2327 89.1432 77.0945 89.5391 76.8277 89.8432C76.5609 90.1473 76.1864 90.3359 75.7832 90.3691C75.5863 90.3869 75.3879 90.3651 75.1997 90.3049C75.0114 90.2447 74.8371 90.1475 74.687 90.0188C74.537 89.8902 74.4142 89.7328 74.3259 89.556C74.2377 89.3791 74.1857 89.1864 74.1732 88.9891C74.1538 88.5834 74.2934 88.1862 74.5623 87.8818C74.8312 87.5774 75.2082 87.3899 75.6132 87.3591C75.8098 87.34 76.0082 87.3609 76.1965 87.4206C76.3848 87.4803 76.559 87.5776 76.7086 87.7067C76.8581 87.8357 76.98 87.9937 77.0667 88.1712C77.1535 88.3486 77.2033 88.5419 77.2132 88.7391V88.7391Z" fill="#263238"/>
<path d="M77.6833 98.6591L82.9533 100.209C82.872 100.566 82.7192 100.902 82.504 101.198C82.2889 101.493 82.016 101.742 81.7018 101.929C81.3876 102.116 81.0387 102.237 80.6763 102.286C80.3138 102.334 79.9454 102.308 79.5933 102.209C78.8737 101.985 78.2707 101.488 77.9136 100.824C77.5565 100.16 77.4738 99.3831 77.6833 98.6591V98.6591Z" fill="#9A4A4D"/>
<path d="M91.0229 85.6891L88.0229 84.0291C88.1212 83.827 88.2596 83.647 88.4295 83.4999C88.5994 83.3529 88.7974 83.2419 89.0116 83.1736C89.2257 83.1053 89.4514 83.0813 89.6751 83.1029C89.8988 83.1244 90.1158 83.1912 90.313 83.2991C90.7097 83.5357 91.0029 83.9128 91.1345 84.3555C91.266 84.7983 91.2262 85.2744 91.0229 85.6891Z" fill="#263238"/>
<path d="M89.5631 88.4791C89.58 88.8842 89.4395 89.28 89.1711 89.5839C88.9027 89.8877 88.5271 90.0759 88.1231 90.1091C87.926 90.1283 87.727 90.1075 87.5382 90.0478C87.3493 89.9882 87.1744 89.891 87.0241 89.7621C86.8737 89.6333 86.7509 89.4753 86.6631 89.2978C86.5753 89.1203 86.5243 88.9269 86.5131 88.7291C86.4962 88.3241 86.6367 87.9282 86.9051 87.6244C87.1735 87.3206 87.549 87.1323 87.9531 87.0991C88.1499 87.0814 88.3483 87.1032 88.5366 87.1634C88.7249 87.2235 88.8992 87.3208 89.0492 87.4494C89.1993 87.5781 89.3221 87.7354 89.4104 87.9123C89.4986 88.0891 89.5505 88.2819 89.5631 88.4791V88.4791Z" fill="#263238"/>
<path d="M81.813 87.8691L82.233 96.5691L86.773 95.0491L81.813 87.8691Z" fill="#9A4A4D"/>
<path d="M78.8734 108.179C75.1634 107.479 67.4634 105.179 66.2134 102.179C66.7132 103.872 67.718 105.372 69.0934 106.479C71.4034 108.379 78.9134 110.379 78.9134 110.379L78.8734 108.179Z" fill="#9A4A4D"/>
<path d="M63.403 107.779V108.909C62.6086 109.276 61.742 109.461 60.8669 109.449C59.9918 109.436 59.1306 109.228 58.3467 108.839C57.5629 108.45 56.8763 107.89 56.3376 107.2C55.7989 106.51 55.4219 105.708 55.2342 104.854C55.0466 103.999 55.0531 103.113 55.2533 102.261C55.4535 101.409 55.8423 100.613 56.3911 99.9309C56.9399 99.2492 57.6346 98.6992 58.4242 98.3216C59.2137 97.9441 60.0778 97.7484 60.953 97.7491C61.0848 97.7517 61.2105 97.8052 61.3037 97.8984C61.397 97.9917 61.4505 98.1173 61.453 98.2491C61.453 98.3818 61.4003 98.5089 61.3066 98.6027C61.2128 98.6965 61.0856 98.7491 60.953 98.7491C59.6667 98.7491 58.4331 99.2601 57.5236 100.17C56.614 101.079 56.103 102.313 56.103 103.599C56.103 104.885 56.614 106.119 57.5236 107.029C58.4331 107.938 59.6667 108.449 60.953 108.449C61.8152 108.451 62.6619 108.22 63.403 107.779Z" fill="#407BFF"/>
<path d="M137.113 157.129H8.99316C6.23174 157.129 3.99316 159.368 3.99316 162.129V238.229C3.99316 240.991 6.23174 243.229 8.99316 243.229H137.113C139.875 243.229 142.113 240.991 142.113 238.229V162.129C142.113 159.368 139.875 157.129 137.113 157.129Z" fill="#407BFF"/>
<path opacity="0.7" d="M131.553 162.579H14.5533C12.0901 162.579 10.0933 164.576 10.0933 167.039V233.319C10.0933 235.782 12.0901 237.779 14.5533 237.779H131.553C134.016 237.779 136.013 235.782 136.013 233.319V167.039C136.013 164.576 134.016 162.579 131.553 162.579Z" fill="white"/>
<path d="M16.4331 232.069L54.4331 197.509L81.1531 221.039L73.0531 209.489L96.1631 175.049L129.683 232.069H16.4331Z" fill="#FAFAFA"/>
<path d="M49.9455 183.05C51.1545 177.927 47.982 172.795 42.8595 171.586C37.737 170.377 32.6042 173.549 31.3952 178.672C30.1862 183.794 33.3587 188.927 38.4812 190.136C43.6037 191.345 48.7365 188.172 49.9455 183.05Z" fill="#FAFAFA"/>
<path d="M127.503 152.139C120.893 153.219 118.993 157.139 118.993 157.139H124.403C124.403 157.139 125.083 158.959 123.263 165.779C122.623 168.169 126.163 168.239 126.263 167.339C126.903 168.809 131.553 170.859 135.033 168.549C138.213 166.439 139.643 163.209 138.933 157.139C137.713 150.349 128.663 151.969 127.503 152.139Z" fill="#B16668"/>
<path d="M19.4832 152.139C26.1032 153.219 28.0032 157.139 28.0032 157.139H22.5933C22.5933 157.139 21.9132 158.959 23.7332 165.779C24.3732 168.169 20.8332 168.239 20.7332 167.339C20.0932 168.809 15.4532 170.859 11.9732 168.549C8.78324 166.439 7.36325 163.209 8.07325 157.139C9.28325 150.349 18.3232 151.969 19.4832 152.139Z" fill="#B16668"/>
<path d="M14.0962 468.938C20.0903 468.938 24.2388 465.651 25.0298 460.219H20.5825C19.8794 463.278 17.4712 465.088 14.1138 465.088C9.71924 465.088 6.94189 461.52 6.94189 455.824C6.94189 450.164 9.73682 446.578 14.0962 446.578C17.3833 446.578 19.9673 448.67 20.5649 451.852H25.0298C24.4673 446.403 19.9849 442.729 14.0962 442.729C6.88916 442.729 2.30127 447.739 2.30127 455.824C2.30127 463.963 6.854 468.938 14.0962 468.938ZM36.2798 468.885C41.7466 468.885 45.2974 465.246 45.2974 459.199C45.2974 453.17 41.7114 449.496 36.2798 449.496C30.8481 449.496 27.2622 453.188 27.2622 459.199C27.2622 465.246 30.813 468.885 36.2798 468.885ZM36.2798 465.422C33.5024 465.422 31.7095 463.172 31.7095 459.199C31.7095 455.244 33.52 452.977 36.2798 452.977C39.0571 452.977 40.8501 455.244 40.8501 459.199C40.8501 463.172 39.0571 465.422 36.2798 465.422ZM48.1099 468.516H52.4868V457.67C52.4868 455.051 53.981 453.451 56.4595 453.451C57.1978 453.451 57.8657 453.557 58.2349 453.698V449.742C57.9185 449.672 57.4263 449.567 56.8638 449.567C54.6665 449.567 53.0317 450.867 52.3989 453.135H52.311V449.883H48.1099V468.516ZM70.7153 449.567C68.0083 449.567 65.8989 450.938 64.8442 453.1H64.7563V449.883H60.4849V474.651H64.8618V465.422H64.9497C65.9692 467.514 68.0786 468.815 70.7856 468.815C75.4614 468.815 78.4497 465.141 78.4497 459.199C78.4497 453.24 75.4438 449.567 70.7153 449.567ZM69.3794 465.229C66.6548 465.229 64.8442 462.856 64.8267 459.199C64.8442 455.578 66.6548 453.17 69.3794 453.17C72.2095 453.17 73.9673 455.526 73.9673 459.199C73.9673 462.891 72.2095 465.229 69.3794 465.229ZM89.5063 468.885C94.9731 468.885 98.5239 465.246 98.5239 459.199C98.5239 453.17 94.938 449.496 89.5063 449.496C84.0747 449.496 80.4888 453.188 80.4888 459.199C80.4888 465.246 84.0396 468.885 89.5063 468.885ZM89.5063 465.422C86.729 465.422 84.936 463.172 84.936 459.199C84.936 455.244 86.7466 452.977 89.5063 452.977C92.2837 452.977 94.0767 455.244 94.0767 459.199C94.0767 463.172 92.2837 465.422 89.5063 465.422ZM101.336 468.516H105.713V457.67C105.713 455.051 107.208 453.451 109.686 453.451C110.424 453.451 111.092 453.557 111.461 453.698V449.742C111.145 449.672 110.653 449.567 110.09 449.567C107.893 449.567 106.258 450.867 105.625 453.135H105.538V449.883H101.336V468.516ZM118.774 468.815C121.165 468.815 123.502 467.567 124.575 465.545H124.663V468.516H128.881V455.684C128.881 451.94 125.875 449.496 121.252 449.496C116.506 449.496 113.536 451.992 113.342 455.473H117.403C117.684 453.926 119.002 452.924 121.077 452.924C123.239 452.924 124.557 454.049 124.557 456V457.336L119.635 457.617C115.1 457.899 112.551 459.885 112.551 463.19C112.551 466.547 115.17 468.815 118.774 468.815ZM120.092 465.51C118.194 465.51 116.928 464.543 116.928 463.014C116.928 461.537 118.141 460.588 120.25 460.448L124.557 460.184V461.608C124.557 463.858 122.571 465.51 120.092 465.51ZM133.627 445.524V449.883H130.956V453.258H133.627V463.559C133.627 467.18 135.209 468.604 139.235 468.604C140.167 468.604 141.028 468.533 141.502 468.428V465.088C141.221 465.141 140.659 465.176 140.254 465.176C138.708 465.176 138.004 464.473 138.004 462.944V453.258H141.52V449.883H138.004V445.524H133.627ZM156.497 462.944C156.022 464.49 154.475 465.51 152.436 465.51C149.571 465.51 147.743 463.506 147.743 460.518V460.254H160.768V458.83C160.768 453.17 157.463 449.496 152.172 449.496C146.793 449.496 143.383 453.381 143.383 459.27C143.383 465.211 146.758 468.885 152.348 468.885C156.76 468.885 160.03 466.459 160.592 462.944H156.497ZM152.19 452.889C154.704 452.889 156.391 454.735 156.479 457.371H147.778C147.954 454.77 149.729 452.889 152.19 452.889Z" fill="#F5F5F5"/>
</svg>
