<svg width="177" height="461" viewBox="0 0 177 461" fill="none" xmlns="http://www.w3.org/2000/svg">
<path d="M148.944 15.5045L147.074 18.5945L145.434 20.9445L147.694 27.9445L148.564 29.7945C149.274 31.2145 152.914 34.1645 153.824 35.4145L153.474 37.5045L158.154 42.0545L159.994 37.6745C161.074 38.3445 160.614 40.2845 161.644 40.5545L165.644 45.4245L170.014 44.9145L168.374 38.4845C169.194 37.9738 169.893 37.2915 170.424 36.4845L174.884 40.1345L176.374 34.8645L172.214 30.1545C172.266 28.7224 172.175 27.2887 171.944 25.8745L175.724 24.7045L173.544 17.6945L169.304 17.4545C168.6 16.0593 167.788 14.7219 166.874 13.4545L167.764 8.15446L163.084 3.60447L161.244 7.98447C160.263 7.36084 159.194 6.88571 158.074 6.57447L155.544 0.204468L151.174 0.714466L152.814 7.15446C151.992 7.66227 151.292 8.34516 150.764 9.15446L146.304 5.49446L144.814 10.7645L148.944 15.5045ZM154.084 16.5045C155.234 12.5045 156.714 12.8545 160.304 16.3445C163.894 19.8345 165.534 26.3445 164.394 30.3445C163.254 34.3445 162.124 33.5945 158.534 30.1045C154.944 26.6145 152.944 20.5045 154.084 16.4645V16.5045Z" fill="#E0E0E0"/>
<path d="M155.504 0.204468L149.594 2.84447L152.114 9.17447L158.034 6.54447L155.504 0.204468Z" fill="#F5F5F5"/>
<path d="M140.354 8.15446L144.814 11.8045L150.734 9.17447L146.274 5.51447L140.354 8.15446Z" fill="#F5F5F5"/>
<path d="M139.514 23.5745L143.294 22.4145L149.214 19.7845L145.434 20.9445L139.514 23.5745Z" fill="#E0E0E0"/>
<path d="M170.054 44.8645L164.134 47.5045L162.494 41.0645L168.414 38.4345L170.054 44.8645Z" fill="#E0E0E0"/>
<path d="M152.234 44.6345L158.154 42.0045L159.994 37.6245L154.074 40.2545L152.234 44.6345Z" fill="#E0E0E0"/>
<path d="M143.024 18.1345C142.972 19.5666 143.063 21.0002 143.294 22.4145L139.544 23.5745L141.804 30.5245L146.044 30.7545C146.747 32.1496 147.56 33.4871 148.474 34.7545L147.584 40.0545L152.274 44.6045L154.104 40.2245C155.083 40.855 156.152 41.3338 157.274 41.6445L159.804 47.9745L164.164 47.4745L162.544 41.0645C163.366 40.5567 164.066 39.8738 164.594 39.0645L169.054 42.7145L170.544 37.4245L166.384 32.7145C166.435 31.2824 166.345 29.8487 166.114 28.4345L169.894 27.2745L167.544 20.3245L163.304 20.0945C162.602 18.6981 161.79 17.3604 160.874 16.0945L161.764 10.7945L157.084 6.23447L155.244 10.6245C154.265 9.99391 153.196 9.51516 152.074 9.20447L149.594 2.89447L145.224 3.39447L146.864 9.83447C146.042 10.3423 145.342 11.0252 144.814 11.8345L140.354 8.18447L138.864 13.4445L143.024 18.1345ZM148.174 19.1345C149.314 15.1345 153.174 14.6545 156.744 18.1345C160.314 21.6145 162.334 27.7345 161.194 31.7745C160.054 35.8145 156.194 36.2645 152.614 32.7745C149.034 29.2845 147.024 23.1445 148.174 19.0945V19.1345Z" fill="#EBEBEB"/>
<path d="M157.124 6.20446L163.044 3.57446L167.724 8.12446L161.804 10.7645L157.124 6.20446Z" fill="#F5F5F5"/>
<path d="M167.724 8.12447L166.834 13.4245L160.914 16.0645L161.804 10.7645L167.724 8.12447Z" fill="#E0E0E0"/>
<path d="M163.344 20.0945L169.264 17.4545L173.504 17.6945L167.584 20.3245L163.344 20.0945Z" fill="#F5F5F5"/>
<path d="M173.504 17.6945L175.764 24.6345L169.844 27.2745L167.584 20.3245L173.504 17.6945Z" fill="#E0E0E0"/>
<path d="M166.334 32.7145L172.254 30.0845L176.414 34.7945L170.494 37.4245L166.334 32.7145Z" fill="#F5F5F5"/>
<path d="M169.004 42.6945L174.924 40.0645L176.414 34.7945L170.494 37.4245L169.004 42.6945Z" fill="#E0E0E0"/>
<path d="M149.594 2.84447L155.504 0.204468L151.144 0.714466L145.224 3.34447L149.594 2.84447Z" fill="#F5F5F5"/>
<path d="M105.684 38.7945C105.264 41.0013 105.264 43.2676 105.684 45.4745L102.414 47.7445L106.414 56.7445L110.124 55.8645C111.399 57.7836 113.168 59.3242 115.244 60.3245L115.124 68.1145L121.604 72.8245L123.024 65.9745C124.32 66.5036 125.704 66.7883 127.104 66.8145L131.294 74.8145L136.464 72.5045L133.324 64.0345C134.24 62.978 134.952 61.7608 135.424 60.4445L141.424 63.9645L142.264 55.9645L136.394 50.8345C136.218 48.8268 135.863 46.8389 135.334 44.8945L139.694 41.8945L135.694 32.9445L130.544 34.1445C129.462 32.4441 128.234 30.8413 126.874 29.3545L126.994 21.5645L120.544 16.8945L119.124 23.7445C117.827 23.2154 116.444 22.9306 115.044 22.9045L110.854 14.9045L105.684 17.2145L108.834 25.6845C107.911 26.7379 107.195 27.9558 106.724 29.2745L100.724 25.7545L99.8838 33.7545L105.684 38.7945ZM112.064 38.2745C112.704 32.1645 116.144 30.2745 121.114 33.8945C126.084 37.5145 129.674 45.4445 129.034 51.5545C128.394 57.6645 124.874 59.4845 119.904 55.8745C114.934 52.2645 111.424 44.3845 112.064 38.2745V38.2745Z" fill="#E0E0E0"/>
<path d="M104.944 17.4745L110.824 14.8545L115.014 22.8645L109.134 25.4745L104.944 17.4745Z" fill="#F5F5F5"/>
<path d="M94.7739 28.3145L100.654 25.7045L106.694 29.2245L100.804 31.8345L94.7739 28.3145Z" fill="#F5F5F5"/>
<path d="M115.734 75.3845L121.614 72.7745L123.034 65.9245L117.154 68.5445L115.734 75.3845Z" fill="#E0E0E0"/>
<path d="M136.474 72.4745L130.594 75.0845L127.444 66.6145L133.334 63.9945L136.474 72.4745Z" fill="#E0E0E0"/>
<path d="M99.8038 41.4045C99.9971 43.4102 100.369 45.3947 100.914 47.3345L96.5538 50.3345L100.554 59.3345L105.714 58.1145C106.793 59.8166 108.021 61.4196 109.384 62.9045L109.264 70.7045L115.744 75.4045L117.164 68.5645C118.46 69.0936 119.844 69.3783 121.244 69.4045L125.434 77.4045L130.604 75.1045L127.454 66.6345C128.377 65.5811 129.092 64.3631 129.564 63.0445L135.564 66.5645L136.404 58.5645L130.544 53.4545C130.351 51.4488 129.979 49.4643 129.434 47.5245L133.784 44.5245L129.784 35.5245L124.624 36.7445C123.545 35.0423 122.317 33.4394 120.954 31.9545L121.074 24.1545L114.594 19.4545L113.174 26.2945C111.877 25.7654 110.494 25.4806 109.094 25.4545L104.904 17.4545L99.7338 19.7545L102.874 28.2245C101.958 29.2829 101.243 30.4995 100.764 31.8145L94.7638 28.2945L93.9238 36.2945L99.8038 41.4045ZM106.184 40.8945C106.824 34.7845 111.374 32.7545 116.344 36.3645C121.314 39.9745 124.824 47.8545 124.184 53.9645C123.544 60.0745 118.994 62.1045 114.024 58.4945C109.054 54.8845 105.544 47.0045 106.184 40.8945Z" fill="#EBEBEB"/>
<path d="M130.544 34.1445L124.664 36.7545L129.814 35.5445L135.704 32.9245L130.544 34.1445Z" fill="#F5F5F5"/>
<path d="M135.713 32.9419L129.828 35.5582L133.814 44.5222L139.698 41.9059L135.713 32.9419Z" fill="#F5F5F5"/>
<path d="M139.694 41.8845L133.804 44.5045L129.454 47.5245L135.334 44.9145L139.694 41.8845Z" fill="#E0E0E0"/>
<path d="M136.444 50.8345L130.564 53.4545L136.434 58.5845L142.314 55.9645L136.444 50.8345Z" fill="#F5F5F5"/>
<path d="M142.314 55.9645L136.434 58.5845L135.594 66.5445L141.474 63.9245L142.314 55.9645Z" fill="#E0E0E0"/>
<path d="M114.634 19.4745L120.514 16.8545L126.994 21.5645L121.114 24.1745L114.634 19.4745Z" fill="#F5F5F5"/>
<path d="M71.0242 371.362C105.133 371.362 132.784 355.67 132.784 336.312C132.784 316.955 105.133 301.262 71.0242 301.262C36.9151 301.262 9.26416 316.955 9.26416 336.312C9.26416 355.67 36.9151 371.362 71.0242 371.362Z" fill="#E0E0E0"/>
<path d="M31.1836 323.922C34.6836 325.802 38.9436 325.652 43.1036 323.922L44.8236 301.262L31.1836 303.062V323.922Z" fill="#FFA8A7"/>
<path d="M73.0034 310.372C76.0034 316.762 81.2834 314.992 87.2934 310.902L86.2334 288.132H71.7534L73.0034 310.372Z" fill="#FFA8A7"/>
<path d="M56.7136 345.372C57.0936 345.732 56.9736 348.202 56.5536 348.872C56.1336 349.542 53.4836 351.812 48.7636 352.152C44.2436 352.472 40.2136 351.862 37.5636 350.152C34.9136 348.442 33.6336 346.612 33.3836 344.042C33.1336 341.472 33.3836 338.992 32.1936 337.042C31.0636 335.212 29.2536 333.152 28.8636 332.162C28.0136 330.002 28.8636 326.922 28.8636 326.922L56.7136 345.372Z" fill="#263238"/>
<path d="M44.3238 322.922C44.3956 323.894 44.5802 324.854 44.8738 325.782C45.5603 327.786 46.4906 329.697 47.6438 331.472C48.2051 332.4 48.8335 333.286 49.5238 334.122C50.8838 335.752 52.5838 337.122 54.0338 338.642C55.5707 340.114 56.5526 342.071 56.8138 344.182C57.0038 347.722 53.1638 348.932 50.2038 349.452C47.0053 350.02 43.7198 349.856 40.5938 348.972C38.9493 348.543 37.4634 347.649 36.3141 346.397C35.1648 345.145 34.4009 343.588 34.1138 341.912C33.9538 340.912 34.0138 339.912 33.8938 338.912C33.5047 336.65 32.5598 334.519 31.1438 332.712C30.3199 331.669 29.6124 330.539 29.0338 329.342C28.1038 327.152 28.8438 324.682 29.4338 322.502C29.9438 320.612 30.5238 318.502 31.1838 318.662C31.1503 319.046 31.2051 319.433 31.3438 319.792C31.5668 320.141 31.7417 320.517 31.8638 320.912C32.0034 321.413 32.184 321.901 32.4038 322.372C32.7336 323.099 33.2826 323.704 33.9738 324.102C33.9738 322.762 34.0638 321.432 34.1038 320.102C34.0761 319.686 34.1849 319.272 34.4138 318.922C34.7247 318.637 35.1228 318.464 35.5438 318.432C38.024 317.84 40.5798 317.628 43.1238 317.802C43.2995 317.78 43.4781 317.801 43.6437 317.864C43.8093 317.927 43.9569 318.03 44.0735 318.163C44.1901 318.296 44.2721 318.456 44.3122 318.629C44.3524 318.802 44.3495 318.981 44.3038 319.152C44.2407 320.409 44.2474 321.667 44.3238 322.922V322.922Z" fill="#37474F"/>
<path d="M48.1135 332.182C46.7935 331.182 43.8435 331.182 42.2235 331.352C40.5834 331.499 39.0058 332.052 37.6335 332.962C37.4369 333.118 37.189 333.194 36.939 333.176C36.6889 333.157 36.455 333.045 36.2835 332.862V332.862C36.1813 332.762 36.102 332.64 36.051 332.506C36 332.371 35.9785 332.228 35.988 332.085C35.9975 331.941 36.0377 331.802 36.106 331.675C36.1742 331.549 36.2689 331.439 36.3835 331.352C37.8971 330.255 39.6883 329.603 41.5535 329.472C45.5535 329.192 46.6935 329.872 46.6935 329.872C46.6935 329.872 48.4735 331.012 48.1135 332.182Z" fill="#F5F5F5"/>
<path d="M51.1436 335.812C49.4936 334.812 46.2436 334.972 44.6236 335.142C43.0141 335.31 41.4764 335.896 40.1636 336.842C39.9603 336.987 39.7124 337.055 39.4636 337.035C39.2148 337.015 38.9811 336.908 38.8036 336.732V336.732C38.7032 336.632 38.6253 336.511 38.5754 336.377C38.5254 336.244 38.5045 336.102 38.5139 335.96C38.5234 335.818 38.5631 335.679 38.6303 335.554C38.6975 335.429 38.7907 335.319 38.9036 335.232C40.4371 334.065 42.2655 333.348 44.1836 333.162C48.1836 332.882 49.1836 333.692 49.1836 333.692C49.6504 333.873 50.0697 334.158 50.4094 334.525C50.7492 334.893 51.0003 335.333 51.1436 335.812V335.812Z" fill="#F5F5F5"/>
<path d="M39.9638 325.632C41.6391 325.345 43.3599 325.49 44.9638 326.052C45.6638 326.452 46.1238 327.552 45.6738 327.832C44.2694 327.269 42.7481 327.06 41.2438 327.222C39.7526 327.368 38.2979 327.771 36.9438 328.412C36.6038 328.562 36.2038 328.772 35.8538 328.962C35.7424 329.026 35.6192 329.066 35.4917 329.081C35.3642 329.095 35.2351 329.083 35.1123 329.046C34.9896 329.008 34.8758 328.946 34.7781 328.863C34.6803 328.78 34.6006 328.678 34.5438 328.562V328.562C34.4507 328.363 34.435 328.136 34.4996 327.925C34.5643 327.715 34.7047 327.535 34.8938 327.422C36.4378 326.473 38.166 325.863 39.9638 325.632V325.632Z" fill="#F5F5F5"/>
<path d="M111.013 324.942C111.359 325.979 111.299 327.109 110.843 328.102C110.403 329.022 105.583 331.732 99.0834 331.302C94.2671 330.965 89.6293 329.342 85.6534 326.602C83.1734 324.962 80.5934 324.652 77.3734 324.472C74.1534 324.292 69.9334 322.682 69.2334 321.182C68.5334 319.682 69.3334 317.082 69.3334 317.082L111.013 324.942Z" fill="#263238"/>
<path d="M84.9035 304.962L86.5935 304.352C86.9002 304.188 87.2584 304.149 87.5935 304.242C88.0135 304.392 88.1734 304.882 88.2834 305.312C88.4349 306.272 88.6726 307.216 88.9934 308.132C89.4684 308.886 90.0868 309.538 90.8134 310.052C92.4265 311.346 94.1691 312.468 96.0134 313.402C98.1334 314.542 100.213 315.402 102.403 316.402C104.593 317.402 107.613 318.022 109.403 319.202C111.953 320.922 112.283 325.202 109.403 326.942C106.893 328.412 100.303 330.012 93.4034 328.052C89.6334 326.982 85.4034 322.962 80.5034 322.572C77.3634 322.322 71.4134 321.442 69.3934 319.052C68.6434 317.992 69.6434 314.642 70.4634 311.742C71.3634 308.582 71.7034 303.632 72.7434 303.912C72.8234 304.962 73.7434 305.572 74.2834 306.452C74.7207 307.261 75.0984 308.099 75.4135 308.962C75.7305 309.834 76.3019 310.59 77.0535 311.132C77.4364 311.39 77.8932 311.514 78.3537 311.487C78.8143 311.46 79.2533 311.283 79.6034 310.982C80.5234 310.032 79.9734 308.352 80.6034 307.202C81.1571 306.481 81.9401 305.969 82.8234 305.752L84.9035 304.962Z" fill="#37474F"/>
<path d="M93.0334 311.692C92.809 311.259 92.4786 310.89 92.0729 310.619C91.6672 310.348 91.1996 310.184 90.7135 310.142C89.2835 309.872 86.7134 310.922 85.1834 312.222C85.0352 312.344 84.9189 312.5 84.8446 312.677C84.7703 312.854 84.7402 313.046 84.7569 313.237C84.7737 313.428 84.8368 313.612 84.9407 313.774C85.0446 313.935 85.1863 314.068 85.3534 314.162V314.162C85.5654 314.277 85.8074 314.325 86.047 314.298C86.2865 314.271 86.5122 314.171 86.6934 314.012C88.4223 312.44 90.6981 311.607 93.0334 311.692V311.692Z" fill="#F5F5F5"/>
<path d="M97.4737 314.172C97.161 313.735 96.7482 313.379 96.2698 313.134C95.7914 312.888 95.2613 312.761 94.7237 312.762C94.7237 312.762 90.9837 312.862 88.7237 315.022C88.5812 315.14 88.4693 315.29 88.3978 315.46C88.3262 315.631 88.297 315.816 88.3127 315.999C88.3285 316.183 88.3887 316.361 88.4881 316.516C88.5876 316.672 88.7233 316.801 88.8837 316.892V316.892C89.0876 317.005 89.3214 317.05 89.5526 317.024C89.7838 316.997 90.0009 316.898 90.1737 316.742C91.1227 315.798 92.2705 315.077 93.5333 314.633C94.7962 314.188 96.1423 314.031 97.4737 314.172Z" fill="#F5F5F5"/>
<path d="M102.363 316.412C102.008 316.007 101.57 315.682 101.078 315.462C100.586 315.241 100.053 315.128 99.5134 315.132C97.3865 315.263 95.3558 316.065 93.7134 317.422C93.5709 317.54 93.4591 317.69 93.3875 317.86C93.3159 318.031 93.2868 318.216 93.3025 318.399C93.3182 318.583 93.3784 318.761 93.4779 318.916C93.5773 319.072 93.7131 319.201 93.8734 319.292V319.292C94.0774 319.405 94.3112 319.45 94.5424 319.424C94.7736 319.397 94.9906 319.298 95.1634 319.142C96.0688 318.159 97.191 317.401 98.4408 316.927C99.6906 316.453 101.034 316.277 102.363 316.412V316.412Z" fill="#F5F5F5"/>
<path d="M32.9236 158.392C32.1036 183.192 32.1636 238.132 32.1636 238.132C31.9036 241.212 30.6536 247.552 29.6236 259.902C28.2836 275.962 31.1836 311.292 31.1836 311.292C33.2318 312.188 35.4411 312.656 37.6764 312.668C39.9117 312.68 42.126 312.236 44.1836 311.362C44.1836 311.362 51.9336 261.002 54.3936 245.122C56.5536 231.122 60.7936 204.862 60.7936 204.862L65.6736 240.572C65.0123 247.361 65.1802 254.205 66.1736 260.952C67.3136 268.262 72.3736 298.312 72.3736 298.312C77.1138 299.507 82.0966 299.319 86.7337 297.772C86.7337 297.772 87.2137 245.702 87.3437 238.932C87.4937 231.212 83.9236 152.282 83.9236 152.282L32.9236 158.392Z" fill="#455A64"/>
<path d="M60.7437 204.862L64.4137 184.542C64.4137 184.542 74.5737 183.652 80.1937 177.982C80.1937 177.982 79.1937 183.542 66.4137 186.872L62.7437 207.472L65.6237 240.612L60.7437 204.862Z" fill="#263238"/>
<path d="M119.874 99.4725C118.584 102.282 105.744 121.112 105.744 121.112C101.744 116.642 90.5037 101.032 83.9637 97.8325C77.5837 94.7225 67.0137 95.5825 67.0137 95.5825L82.6237 120.222C82.6237 120.222 93.5637 131.222 100.574 136.622C105.414 140.312 110.214 143.282 117.744 129.852C122.254 121.852 127.314 111.302 128.624 108.672C129.155 107.596 129.924 106.654 130.874 105.92C131.824 105.185 132.928 104.676 134.104 104.432C134.804 104.292 135.504 104.132 136.194 103.952C137.724 103.532 139.504 102.852 140.014 101.182C140.194 100.612 140.224 100.002 140.354 99.4224C140.554 98.5324 140.954 97.7025 141.154 96.8225C141.294 96.2211 141.273 95.5933 141.094 95.0025C140.924 94.4925 140.444 94.0625 140.414 93.5025C140.437 93.2265 140.516 92.958 140.644 92.7125C140.858 92.1384 140.914 91.5174 140.807 90.9142C140.699 90.311 140.432 89.7476 140.034 89.2824C139.797 89.0597 139.586 88.8116 139.404 88.5425C139.084 87.9525 139.244 87.2125 139.094 86.5425C138.424 83.5425 133.224 85.7425 131.604 86.6125C131.134 86.8625 128.834 88.0225 127.814 88.6125C127.598 86.9564 127.137 85.3419 126.444 83.8225C125.174 80.8225 121.834 80.1925 121.994 82.1025C122.164 84.2634 122.144 86.4351 121.934 88.5924C121.771 89.9531 121.688 91.3221 121.684 92.6925C121.694 95.0025 121.344 96.2625 119.874 99.4725Z" fill="#FFBDA7"/>
<path d="M71.2437 95.0825C80.8037 95.5425 82.9137 95.6825 89.0237 101.222C95.1337 106.762 105.574 120.222 105.574 120.222L113.754 109.222C114.689 111.303 116.261 113.033 118.244 114.162C120.365 115.242 122.704 115.824 125.084 115.862C125.084 115.862 120.684 125.862 116.464 132.922C112.244 139.982 108.914 142.572 102.694 138.792C96.4737 135.012 75.6937 114.792 75.6937 114.792L71.2437 95.0825Z" fill="#407BFF"/>
<path opacity="0.75" d="M71.2437 95.0825C80.8037 95.5425 82.9137 95.6825 89.0237 101.222C95.1337 106.762 105.574 120.222 105.574 120.222L113.754 109.222C114.689 111.303 116.261 113.033 118.244 114.162C120.365 115.242 122.704 115.824 125.084 115.862C125.084 115.862 120.684 125.862 116.464 132.922C112.244 139.982 108.914 142.572 102.694 138.792C96.4737 135.012 75.6937 114.792 75.6937 114.792L71.2437 95.0825Z" fill="white"/>
<path d="M129.334 89.2825C127.624 89.9925 127.244 91.2025 127.514 93.7325C127.684 95.2225 127.514 98.0325 125.954 99.2925C126.716 99.1307 127.413 98.744 127.954 98.1825C128.654 97.3225 128.864 97.1825 129.334 97.6225C129.677 97.8986 130.082 98.0873 130.514 98.1725C130.268 98.5131 130.136 98.9224 130.136 99.3425C130.136 99.7625 130.268 100.172 130.514 100.512C131.414 101.732 134.934 101.452 137.684 99.7125C137.684 99.7125 133.134 101.582 131.914 100.192C130.694 98.8025 133.014 96.7225 134.814 96.0525C134.814 96.0525 130.394 97.5325 129.564 96.1125C128.734 94.6925 130.564 93.4025 133.114 92.4925C133.114 92.4925 129.434 93.4925 128.684 92.2925C127.834 90.8225 128.884 89.8325 129.334 89.2825Z" fill="#F0997A"/>
<path d="M82.624 114.122C81.524 106.182 80.484 95.5125 68.174 95.0225L52.294 95.7725C48.384 96.7725 33.184 98.5925 33.184 98.5925L32.894 133.042C32.894 133.042 31.894 157.872 32.224 171.172C43.594 178.382 68.334 180.712 83.874 168.922C84.334 157.952 83.704 121.982 82.624 114.122Z" fill="#FAFAFA"/>
<path d="M83.6937 49.8125C83.7327 49.1515 83.5749 48.4938 83.2403 47.9225C82.9057 47.3512 82.4092 46.8918 81.8137 46.6025C80.6015 46.0375 79.2326 45.9034 77.9337 46.2225C78.0035 45.243 77.7628 44.2665 77.2457 43.4317C76.7287 42.5969 75.9617 41.9463 75.0537 41.5725C74.0907 41.126 73.0175 40.9732 71.9681 41.1333C70.9188 41.2934 69.9399 41.7592 69.1537 42.4725C69.5137 41.0725 68.2237 39.6725 66.8137 39.3925C65.3688 39.2402 63.9107 39.5075 62.6137 40.1625C60.6137 40.9625 58.6137 41.8525 56.6137 42.5725C53.0437 43.8325 49.2337 44.5725 46.0137 46.5725C45.2327 47.0147 44.5517 47.614 44.0137 48.3325C43.3396 49.3978 43.0405 50.6578 43.1637 51.9125C43.191 52.3239 43.2546 52.7322 43.3537 53.1325C43.0994 52.8648 42.8019 52.6417 42.4737 52.4725C42.1055 52.2851 41.7026 52.1757 41.2901 52.1514C40.8777 52.127 40.4646 52.188 40.0769 52.3308C39.6891 52.4735 39.3351 52.6947 39.0368 52.9807C38.7386 53.2666 38.5026 53.6111 38.3438 53.9925L42.1737 55.8925C41.0811 56.1404 40.0903 56.716 39.3337 57.5425C37.4137 59.6325 38.7337 65.9625 41.4037 72.1025C41.4037 72.1025 44.1937 83.3625 45.2237 85.2025C45.8933 86.322 46.9672 87.1418 48.2237 87.4925L47.8537 80.6225L76.4737 78.0925L73.6137 76.0925C76.3857 74.7809 78.7142 72.6881 80.3131 70.0713C81.912 67.4544 82.7116 64.4275 82.6137 61.3625C82.5499 58.8218 81.8632 56.3356 80.6137 54.1225C82.0937 52.9325 83.4737 51.4025 83.6937 49.8125Z" fill="#407BFF"/>
<path opacity="0.3" d="M83.6937 49.8125C83.7327 49.1515 83.5749 48.4938 83.2403 47.9225C82.9057 47.3512 82.4092 46.8918 81.8137 46.6025C80.6015 46.0375 79.2326 45.9034 77.9337 46.2225C78.0035 45.243 77.7628 44.2665 77.2457 43.4317C76.7287 42.5969 75.9617 41.9463 75.0537 41.5725C74.0907 41.126 73.0175 40.9732 71.9681 41.1333C70.9188 41.2934 69.9399 41.7592 69.1537 42.4725C69.5137 41.0725 68.2237 39.6725 66.8137 39.3925C65.3688 39.2402 63.9107 39.5075 62.6137 40.1625C60.6137 40.9625 58.6137 41.8525 56.6137 42.5725C53.0437 43.8325 49.2337 44.5725 46.0137 46.5725C45.2327 47.0147 44.5517 47.614 44.0137 48.3325C43.3396 49.3978 43.0405 50.6578 43.1637 51.9125C43.191 52.3239 43.2546 52.7322 43.3537 53.1325C43.0994 52.8648 42.8019 52.6417 42.4737 52.4725C42.1055 52.2851 41.7026 52.1757 41.2901 52.1514C40.8777 52.127 40.4646 52.188 40.0769 52.3308C39.6891 52.4735 39.3351 52.6947 39.0368 52.9807C38.7386 53.2666 38.5026 53.6111 38.3438 53.9925L42.1737 55.8925C41.0811 56.1404 40.0903 56.716 39.3337 57.5425C37.4137 59.6325 38.7337 65.9625 41.4037 72.1025C41.4037 72.1025 44.1937 83.3625 45.2237 85.2025C45.8933 86.322 46.9672 87.1418 48.2237 87.4925L47.8537 80.6225L76.4737 78.0925L73.6137 76.0925C76.3857 74.7809 78.7142 72.6881 80.3131 70.0713C81.912 67.4544 82.7116 64.4275 82.6137 61.3625C82.5499 58.8218 81.8632 56.3356 80.6137 54.1225C82.0937 52.9325 83.4737 51.4025 83.6937 49.8125Z" fill="black"/>
<path d="M60.4738 58.1725C57.8438 57.8625 55.2338 57.4325 52.6238 57.0225C52.5105 56.9888 52.3913 56.9794 52.2742 56.9949C52.157 57.0104 52.0444 57.0505 51.9438 57.1125C51.8316 57.218 51.7518 57.3532 51.7138 57.5025C50.0038 62.5025 50.0438 67.9325 48.7138 73.0425C48.5938 73.5025 48.3038 74.2925 47.7138 74.3625C46.7138 74.4825 46.0138 73.5825 45.5838 72.7925L44.5838 71.0425C44.3825 70.7134 44.1406 70.411 43.8638 70.1425C42.6438 69.0125 39.0238 67.6325 37.3438 71.4825C35.6638 75.3325 39.2538 80.5525 42.1738 81.3725C47.1738 82.7725 47.8438 79.5525 47.8438 79.5525L48.8438 97.5025C53.2838 102.152 67.9238 100.502 65.0238 96.5025L64.8338 91.0325C67.0627 91.3159 69.3156 91.3595 71.5538 91.1625C75.2038 90.4725 77.4138 87.5125 78.3938 83.5125C79.9738 77.0925 80.4838 71.9225 78.5638 59.4525C78.3903 58.3024 78.0884 57.1753 77.6638 56.0925C72.5338 58.9125 66.2938 58.8625 60.4738 58.1725Z" fill="#FFBDA7"/>
<path d="M64.8238 91.0325C64.8238 91.0325 56.5938 89.6525 53.6838 88.2225C51.9808 87.4102 50.5624 86.1033 49.6138 84.4725C50.0966 86.1313 50.9096 87.6755 52.0038 89.0125C54.1838 91.6225 64.8938 93.2425 64.8938 93.2425L64.8238 91.0325Z" fill="#F0997A"/>
<path d="M62.3437 70.7425C62.3415 71.0425 62.2513 71.3352 62.084 71.5843C61.9168 71.8334 61.6801 72.0279 61.4033 72.1435C61.1264 72.2591 60.8217 72.2908 60.527 72.2345C60.2323 72.1783 59.9606 72.0367 59.7458 71.8273C59.5309 71.6179 59.3824 71.3499 59.3186 71.0568C59.2549 70.7636 59.2787 70.4582 59.3872 70.1785C59.4957 69.8988 59.684 69.6571 59.9287 69.4836C60.1734 69.31 60.4638 69.2123 60.7637 69.2025C61.1766 69.1998 61.574 69.3599 61.8698 69.6481C62.1655 69.9364 62.3358 70.3296 62.3437 70.7425Z" fill="#263238"/>
<path d="M61.2038 63.4725L57.5238 65.0625C57.3206 64.56 57.3195 63.9985 57.5208 63.4953C57.7221 62.9921 58.1101 62.5862 58.6038 62.3625C59.0958 62.1652 59.646 62.1712 60.1335 62.3794C60.621 62.5875 61.006 62.9807 61.2038 63.4725V63.4725Z" fill="#263238"/>
<path d="M62.3437 81.1325L67.0137 82.7125C66.9226 83.0254 66.7695 83.3169 66.5634 83.5694C66.3574 83.822 66.1026 84.0305 65.8143 84.1826C65.526 84.3347 65.2101 84.4272 64.8853 84.4547C64.5605 84.4821 64.2335 84.444 63.9237 84.3425C63.2949 84.1175 62.7783 83.6567 62.4834 83.0575C62.1885 82.4584 62.1384 81.7679 62.3437 81.1325V81.1325Z" fill="#F0997A"/>
<path d="M78.2637 64.9425L74.5938 63.5425C74.6812 63.3038 74.8157 63.0851 74.9893 62.8993C75.1628 62.7136 75.3719 62.5645 75.6041 62.461C75.8363 62.3575 76.0868 62.3016 76.341 62.2967C76.5952 62.2918 76.8477 62.338 77.0837 62.4325C77.5668 62.6171 77.9595 62.9817 78.1795 63.4497C78.3995 63.9177 78.4297 64.4527 78.2637 64.9425V64.9425Z" fill="#263238"/>
<path d="M53.6938 66.2625L40.8638 68.9425C41.585 68.9502 42.2947 69.1237 42.938 69.4497C43.5814 69.7757 44.1411 70.2454 44.5738 70.8225L53.6438 69.0925L53.6938 66.2625Z" fill="#263238"/>
<path d="M76.7439 70.7825C76.7547 70.9874 76.7249 71.1924 76.6563 71.3858C76.5878 71.5792 76.4817 71.7572 76.3442 71.9096C76.2067 72.0619 76.0405 72.1856 75.8552 72.2736C75.6698 72.3616 75.4689 72.4122 75.2639 72.4225C74.8483 72.4252 74.4483 72.264 74.1507 71.9739C73.8531 71.6837 73.6818 71.288 73.6739 70.8725C73.6518 70.6616 73.6735 70.4485 73.7376 70.2465C73.8016 70.0444 73.9067 69.8578 74.0463 69.6982C74.1858 69.5386 74.3568 69.4096 74.5485 69.3192C74.7402 69.2287 74.9485 69.1788 75.1604 69.1726C75.3723 69.1664 75.5832 69.204 75.7798 69.2831C75.9765 69.3621 76.1548 69.4809 76.3034 69.632C76.4521 69.7832 76.5679 69.9633 76.6437 70.1613C76.7195 70.3592 76.7536 70.5707 76.7439 70.7825V70.7825Z" fill="#263238"/>
<path d="M83.2937 65.7025L82.4637 65.6125C79.7537 65.3625 76.2037 65.3425 74.0537 66.0425C71.3637 66.9225 70.4037 67.8725 68.9137 67.9025C67.4237 67.9325 66.3437 67.0125 63.5037 66.2425C61.2337 65.6225 57.4437 65.7825 54.5037 66.1325L53.5937 66.2525C53.2827 66.3631 53.0165 66.5726 52.8359 66.849C52.6553 67.1253 52.5702 67.4532 52.5937 67.7825C52.6867 68.4364 52.9761 69.0467 53.4237 69.5325C53.5549 69.7524 53.6495 69.9922 53.7037 70.2425C53.9837 71.4625 54.1337 73.8025 54.7037 75.0925C54.9714 75.7287 55.3469 76.3139 55.8137 76.8225C55.9929 77.0049 56.1869 77.1721 56.3937 77.3225L56.7237 77.5525C57.0401 77.7427 57.3752 77.9002 57.7237 78.0225H57.8937L58.1637 78.1025L58.4437 78.1625C58.7332 78.2282 59.0274 78.2717 59.3237 78.2925H59.7037H60.1837C61.4754 78.3766 62.762 78.0645 63.8716 77.398C64.9813 76.7315 65.8611 75.7423 66.3937 74.5625C67.3937 72.7025 67.1537 70.0925 68.8537 70.0625H69.0137H69.1637C70.4137 70.3425 70.2137 72.7325 70.9737 74.4425C71.2573 75.1233 71.6528 75.752 72.1437 76.3025C72.2318 76.404 72.3253 76.5008 72.4237 76.5925L72.5737 76.7225L72.7337 76.8525L72.8837 76.9625L73.0337 77.0725L73.1637 77.1525L73.2437 77.2025C73.6977 77.4673 74.1903 77.6596 74.7037 77.7725H74.8437C75.4315 77.8983 76.0331 77.9487 76.6337 77.9225C77.7639 77.9705 78.8806 77.6611 79.8249 77.0381C80.7692 76.4152 81.4931 75.5104 81.8937 74.4525C82.4039 72.8549 82.7884 71.2199 83.0437 69.5625C83.0964 69.3232 83.2062 69.1002 83.3637 68.9125C83.8075 68.403 84.0895 67.7729 84.1737 67.1025C84.2537 66.4725 83.7637 65.7525 83.2937 65.7025ZM65.4737 72.9225C65.2653 73.8855 64.8105 74.778 64.1537 75.5125V75.5125C63.632 76.035 63.0064 76.4422 62.3173 76.7075C61.6282 76.9728 60.8911 77.0903 60.1537 77.0525C59.4142 77.1081 58.673 76.9716 58.0019 76.6562C57.3308 76.3408 56.7527 75.8573 56.3237 75.2525L56.2037 75.0725L56.0937 74.8925L56.0037 74.7125L55.9337 74.5625L55.8737 74.4425V74.3325L55.8037 74.1525C55.7287 73.9802 55.6652 73.8031 55.6137 73.6225L55.4737 73.2725C55.4737 73.0825 55.3837 72.9125 55.3537 72.7525C55.3575 72.7192 55.3575 72.6857 55.3537 72.6525V72.5625C55.0937 71.2725 54.8037 68.7425 55.4437 68.1625C56.0837 67.5825 57.7837 66.9525 60.5137 67.1625H60.8137C61.2339 67.2047 61.6512 67.2715 62.0637 67.3625L62.5437 67.4725C62.9537 67.5768 63.3576 67.7037 63.7537 67.8525L64.1237 68.0025L64.5337 68.1925C64.5601 68.1978 64.5873 68.1978 64.6137 68.1925L64.7537 68.2825C65.0694 68.4395 65.3461 68.6649 65.5637 68.9425C66.0237 69.8025 65.8237 71.4725 65.4737 72.9225ZM81.4737 72.0725C81.2437 73.0725 80.7437 75.2725 78.8037 76.2525C78.182 76.5645 77.499 76.7352 76.8037 76.7525C76.0199 76.8458 75.2256 76.7217 74.5077 76.3936C73.7898 76.0655 73.176 75.5462 72.7337 74.8925V74.8925L72.6637 74.7725L72.5837 74.6425C72.5837 74.6425 72.5837 74.5925 72.5837 74.5625C72.5444 74.4989 72.5109 74.432 72.4837 74.3625L72.3737 74.1325C72.3737 74.1325 72.3737 74.0525 72.3737 74.0125V73.9525V73.8525V73.7725C72.2697 73.4616 72.1862 73.1442 72.1237 72.8225C71.8737 71.3925 71.7537 69.7225 72.2837 68.9225C72.8137 68.1225 74.8537 67.2125 76.8137 66.9225C77.2307 66.8556 77.6515 66.8155 78.0737 66.8025H78.9737H79.1837C79.3037 66.8025 79.4137 66.8025 79.5237 66.8025L80.1537 66.9025H80.3037H80.4037L80.5537 66.9525H80.7337L81.0337 67.0725C81.2818 67.1728 81.5091 67.3187 81.7037 67.5025C82.1737 68.2425 81.7937 70.7825 81.4737 72.0725Z" fill="#37474F"/>
<path d="M68.4038 70.2325L68.6638 79.9325L74.0838 78.3725L69.0838 70.1525C68.854 70.1233 68.6206 70.1507 68.4038 70.2325V70.2325Z" fill="#F0997A"/>
<path d="M84.5541 124.002C84.1341 113.942 83.3441 105.062 79.5541 100.342C75.7641 95.6225 73.7941 94.7225 64.9141 94.8625V95.4625C65.4168 95.5002 65.9042 95.6522 66.3392 95.907C66.7742 96.1617 67.1452 96.5125 67.4241 96.9325C70.4974 101.591 72.8033 106.713 74.2541 112.102C76.8341 121.882 77.2541 143.702 77.4041 155.462C77.5541 167.222 77.4041 176.692 77.4041 176.692C77.4041 176.692 83.4041 175.302 85.1941 172.332C85.2641 172.332 84.9841 134.062 84.5541 124.002Z" fill="#407BFF"/>
<path opacity="0.1" d="M84.5541 124.002C84.1341 113.942 83.3441 105.062 79.5541 100.342C75.7641 95.6225 73.7941 94.7225 64.9141 94.8625V95.4625C65.4168 95.5002 65.9042 95.6522 66.3392 95.907C66.7742 96.1617 67.1452 96.5125 67.4241 96.9325C70.4974 101.591 72.8033 106.713 74.2541 112.102C76.8341 121.882 77.2541 143.702 77.4041 155.462C77.5541 167.222 77.4041 176.692 77.4041 176.692C77.4041 176.692 83.4041 175.302 85.1941 172.332C85.2641 172.332 84.9841 134.062 84.5541 124.002Z" fill="black"/>
<path opacity="0.6" d="M84.5541 124.002C84.1341 113.942 83.3441 105.062 79.5541 100.342C75.7641 95.6225 73.7941 94.7225 64.9141 94.8625V95.4625C65.4168 95.5002 65.9042 95.6522 66.3392 95.907C66.7742 96.1617 67.1452 96.5125 67.4241 96.9325C70.4974 101.591 72.8033 106.713 74.2541 112.102C76.8341 121.882 77.2541 143.702 77.4041 155.462C77.5541 167.222 77.4041 176.692 77.4041 176.692C77.4041 176.692 83.4041 175.302 85.1941 172.332C85.2641 172.332 84.9841 134.062 84.5541 124.002Z" fill="white"/>
<path d="M53.8537 107.992C52.5937 102.632 49.9737 99.0925 48.8537 96.3625L33.2137 98.4725C29.1237 100.362 28.2937 104.352 28.6937 108.842L31.6037 141.842L30.7937 173.042C37.1337 182.902 56.0537 181.042 56.0537 181.042C56.0537 181.042 56.5937 167.042 55.9837 139.882C55.6437 124.652 55.4737 114.822 53.8537 107.992Z" fill="#407BFF"/>
<path opacity="0.6" d="M53.8537 107.992C52.5937 102.632 49.9737 99.0925 48.8537 96.3625L33.2137 98.4725C29.1237 100.362 28.2937 104.352 28.6937 108.842L31.6037 141.842L30.7937 173.042C37.1337 182.902 56.0537 181.042 56.0537 181.042C56.0537 181.042 56.5937 167.042 55.9837 139.882C55.6437 124.652 55.4737 114.822 53.8537 107.992Z" fill="white"/>
<path d="M54.3739 110.632C53.6439 107.182 53.2539 100.792 52.6539 99.5025C52.0539 98.2125 48.7439 95.6525 48.6539 93.9225L48.5939 92.8025C47.5523 93.0031 46.5906 93.4996 45.8239 94.2325C44.8239 95.1525 41.7139 97.2925 41.7139 97.2925C42.0199 99.4168 42.8103 101.442 44.0239 103.212C45.8339 105.832 48.3739 107.542 48.7739 106.892C49.1739 106.242 49.0939 105.262 49.7739 103.732C50.6139 101.822 50.7739 101.022 51.6939 102.902C52.3539 104.412 54.3739 110.632 54.3739 110.632Z" fill="#455A64"/>
<path d="M73.144 108.762C74.044 111.662 71.834 98.7625 70.304 96.4325C68.774 94.1025 64.834 93.2625 64.834 93.2625L65.004 96.0525C66.0301 96.3012 66.9257 96.9257 67.514 97.8025C69.8377 101.208 71.7289 104.89 73.144 108.762V108.762Z" fill="#455A64"/>
<path d="M39.7739 120.732L53.0039 119.612C53.0039 119.612 53.4039 128.012 53.4039 130.212C53.4039 131.592 51.2039 133.872 49.5639 135.382C49.0474 135.857 48.3983 136.163 47.7033 136.26C47.0082 136.356 46.3003 136.239 45.6739 135.922C43.6739 134.922 41.0739 133.322 40.8239 131.712C40.4739 129.112 39.7739 120.732 39.7739 120.732Z" fill="#455A64"/>
<path d="M78.8438 118.062H84.5537C84.5537 118.062 85.2537 124.882 85.2537 128.562C85.2537 131.212 85.0137 132.882 84.5337 132.882C83.5337 132.882 80.1437 130.582 79.8037 127.952C79.5337 125.782 78.8438 118.062 78.8438 118.062Z" fill="#455A64"/>
<path d="M54.7738 113.382C46.2636 114.25 37.8075 115.586 29.4438 117.382L29.5238 118.312C37.8979 116.518 46.3639 115.182 54.8839 114.312C54.8539 113.992 54.8138 113.682 54.7738 113.382Z" fill="#407BFF"/>
<path d="M83.7638 113.172C80.9938 112.842 77.8538 112.562 74.4038 112.392C74.4738 112.692 74.5538 113.012 74.6238 113.332C78.0338 113.512 81.1438 113.792 83.8738 114.122C83.8338 113.802 83.8038 113.472 83.7638 113.172Z" fill="#407BFF"/>
<path d="M33.1839 98.5925C25.8139 99.1925 21.6939 103.022 19.3839 111.062C16.8939 119.672 9.94389 143.862 8.38389 152.492C7.38389 157.792 5.87389 161.152 10.3839 164.642C16.1439 169.112 33.0139 181.502 43.1939 186.832C53.3739 192.162 69.4539 192.262 69.4539 192.262L58.2339 185.472L55.2339 181.532L26.4139 155.312L35.4139 124.242C35.4139 124.242 41.3539 104.992 33.1839 98.5925Z" fill="#FFBDA7"/>
<path d="M34.2438 98.3025C29.2438 98.5025 23.4538 98.2525 19.3938 108.532C15.3338 118.812 10.2638 139.742 8.23383 148.362C6.20383 156.982 5.05383 161.052 8.23383 163.842C11.4138 166.632 24.3638 174.922 24.3638 174.922C24.3638 174.922 28.8238 165.152 34.0038 162.212L26.8638 155.022L36.1938 123.562C36.1938 123.562 42.2438 106.862 34.2438 98.3025Z" fill="#407BFF"/>
<path opacity="0.75" d="M34.2438 98.3025C29.2438 98.5025 23.4538 98.2525 19.3938 108.532C15.3338 118.812 10.2638 139.742 8.23383 148.362C6.20383 156.982 5.05383 161.052 8.23383 163.842C11.4138 166.632 24.3638 174.922 24.3638 174.922C24.3638 174.922 28.8238 165.152 34.0038 162.212L26.8638 155.022L36.1938 123.562C36.1938 123.562 42.2438 106.862 34.2438 98.3025Z" fill="white"/>
<path d="M48.0538 176.552V177.552C48.0319 178.079 48.1522 178.603 48.4021 179.067C48.6519 179.532 49.0221 179.92 49.4738 180.192L77.3038 197.032C77.746 197.306 78.254 197.454 78.7738 197.462C79.2933 197.474 79.8067 197.349 80.2638 197.102L132.624 168.392C133.077 168.14 133.458 167.774 133.728 167.331C133.998 166.887 134.148 166.381 134.164 165.862V165.142L78.7938 195.472L48.0538 176.552Z" fill="#407BFF"/>
<g opacity="0.25">
<path opacity="0.25" d="M48.0538 176.552V177.552C48.0319 178.079 48.1522 178.603 48.4021 179.067C48.6519 179.532 49.0221 179.92 49.4738 180.192L77.3038 197.032C77.746 197.306 78.254 197.454 78.7738 197.462C79.2933 197.474 79.8067 197.349 80.2638 197.102L132.624 168.392C133.077 168.14 133.458 167.774 133.728 167.331C133.998 166.887 134.148 166.381 134.164 165.862V165.142L78.7938 195.472L48.0538 176.552Z" fill="black"/>
</g>
<path d="M134.144 165.142L103.884 146.762C103.614 146.61 103.309 146.53 102.999 146.53C102.689 146.53 102.384 146.61 102.114 146.762L48.2536 176.262C48.1933 176.296 48.143 176.346 48.1081 176.405C48.0731 176.465 48.0547 176.533 48.0547 176.602C48.0547 176.672 48.0731 176.74 48.1081 176.799C48.143 176.859 48.1933 176.909 48.2536 176.942L78.7936 195.472L134.144 165.142Z" fill="#407BFF"/>
<g opacity="0.15">
<path opacity="0.15" d="M134.144 165.142L103.884 146.762C103.614 146.61 103.309 146.53 102.999 146.53C102.689 146.53 102.384 146.61 102.114 146.762L48.2536 176.262C48.1933 176.296 48.143 176.346 48.1081 176.405C48.0731 176.465 48.0547 176.533 48.0547 176.602C48.0547 176.672 48.0731 176.74 48.1081 176.799C48.143 176.859 48.1933 176.909 48.2536 176.942L78.7936 195.472L134.144 165.142Z" fill="black"/>
</g>
<path d="M79.0436 192.612L62.7236 182.712L111.204 156.132L127.624 165.992L79.0436 192.612Z" fill="#455A64"/>
<path d="M71.0239 166.182L71.3239 166.362L79.3239 171.212L93.9239 163.212L94.2239 163.052L85.9239 158.012L71.0239 166.182Z" fill="#37474F"/>
<path d="M71.3237 166.362L79.3237 171.212L93.9237 163.212L85.9137 158.352L71.3237 166.362Z" fill="#455A64"/>
<path d="M78.7939 195.472V197.472C79.3134 197.484 79.8268 197.359 80.2839 197.112L132.644 168.402C133.098 168.15 133.478 167.784 133.748 167.341C134.018 166.897 134.168 166.391 134.184 165.872V165.152L78.7939 195.472Z" fill="#407BFF"/>
<g opacity="0.03">
<path opacity="0.03" d="M78.7939 195.472V197.472C79.3134 197.484 79.8268 197.359 80.2839 197.112L132.644 168.402C133.098 168.15 133.478 167.784 133.748 167.341C134.018 166.897 134.168 166.391 134.184 165.872V165.152L78.7939 195.472Z" fill="white"/>
</g>
<g opacity="0.4">
<path opacity="0.4" d="M78.7939 195.472V197.472C79.3134 197.484 79.8268 197.359 80.2839 197.112L132.644 168.402C133.098 168.15 133.478 167.784 133.748 167.341C134.018 166.897 134.168 166.391 134.184 165.872V165.152L78.7939 195.472Z" fill="black"/>
</g>
<path d="M79.6138 195.952C80.0948 196.15 80.6139 196.237 81.1331 196.208C81.6522 196.179 82.1582 196.033 82.6138 195.782L134.754 167.192C135.205 166.944 135.595 166.599 135.898 166.183C136.2 165.766 136.407 165.288 136.504 164.782L142.884 131.302C142.924 131.115 142.944 130.924 142.944 130.732C142.951 130.267 142.867 129.805 142.695 129.373C142.524 128.94 142.268 128.546 141.944 128.212L87.7638 157.932C87.4304 158.116 87.1412 158.371 86.9166 158.678C86.6921 158.986 86.5375 159.339 86.4638 159.712L79.6138 195.952Z" fill="#407BFF"/>
<g opacity="0.3">
<path opacity="0.3" d="M79.6138 195.952C80.0948 196.15 80.6139 196.237 81.1331 196.208C81.6522 196.179 82.1582 196.033 82.6138 195.782L134.754 167.192C135.205 166.944 135.595 166.599 135.898 166.183C136.2 165.766 136.407 165.288 136.504 164.782L142.884 131.302C142.924 131.115 142.944 130.924 142.944 130.732C142.951 130.267 142.867 129.805 142.695 129.373C142.524 128.94 142.268 128.546 141.944 128.212L87.7638 157.932C87.4304 158.116 87.1412 158.371 86.9166 158.678C86.6921 158.986 86.5375 159.339 86.4638 159.712L79.6138 195.952Z" fill="black"/>
</g>
<path d="M78.7939 195.472L79.1339 195.682C79.2939 195.772 79.4539 195.862 79.6139 195.932L86.4739 159.712C86.5477 159.339 86.7023 158.986 86.9268 158.678C87.1514 158.371 87.4405 158.116 87.7739 157.932L141.954 128.212C141.743 128 141.508 127.812 141.254 127.652L86.9939 157.472C86.6605 157.656 86.3714 157.911 86.1468 158.218C85.9222 158.526 85.7677 158.879 85.6939 159.252L78.7939 195.472Z" fill="#407BFF"/>
<g opacity="0.1">
<path opacity="0.1" d="M78.7939 195.472L79.1339 195.682C79.2939 195.772 79.4539 195.862 79.6139 195.932L86.4739 159.712C86.5477 159.339 86.7023 158.986 86.9268 158.678C87.1514 158.371 87.4405 158.116 87.7739 157.932L141.954 128.212C141.743 128 141.508 127.812 141.254 127.652L86.9939 157.472C86.6605 157.656 86.3714 157.911 86.1468 158.218C85.9222 158.526 85.7677 158.879 85.6939 159.252L78.7939 195.472Z" fill="black"/>
</g>
<path opacity="0.1" d="M87.0139 158.612L86.2039 158.112C85.951 158.431 85.7764 158.804 85.6939 159.202L78.7939 195.472L79.1339 195.682C79.2939 195.772 79.4539 195.862 79.6139 195.932L86.4739 159.712C86.5634 159.308 86.7485 158.931 87.0139 158.612Z" fill="black"/>
<path d="M109.294 165.562C109.714 163.322 112.104 160.382 114.624 159.002C117.144 157.622 118.844 158.322 118.414 160.562C117.984 162.802 115.604 165.742 113.084 167.122C110.564 168.502 108.864 167.802 109.294 165.562Z" fill="#455A64"/>
<path d="M46.3839 173.472C49.3839 176.052 53.8839 173.972 57.7539 174.472C61.6239 174.972 64.9339 175.882 68.0339 175.792C71.1339 175.702 72.6739 176.332 70.5039 178.792C68.3339 181.252 62.0839 179.852 60.4039 180.602C59.9144 180.877 59.4955 181.262 59.1799 181.727C58.8643 182.191 58.6607 182.722 58.5851 183.278C58.5095 183.835 58.564 184.401 58.7442 184.933C58.9245 185.464 59.2256 185.947 59.6239 186.342C61.4439 188.462 49.2339 184.342 47.6239 181.852C46.0139 179.362 44.1639 173.802 46.3839 173.472Z" fill="#FFBDA7"/>
<path d="M13.0088 451.516V429.983H20.585V426.151H0.897461V429.983H8.49121V451.516H13.0088ZM31.2373 445.944C30.7627 447.49 29.2158 448.51 27.1768 448.51C24.3115 448.51 22.4834 446.506 22.4834 443.518V443.254H35.5088V441.83C35.5088 436.17 32.2041 432.496 26.9131 432.496C21.5342 432.496 18.124 436.381 18.124 442.27C18.124 448.211 21.499 451.885 27.0889 451.885C31.501 451.885 34.7705 449.459 35.333 445.944H31.2373ZM26.9307 435.889C29.4443 435.889 31.1318 437.735 31.2197 440.371H22.5186C22.6943 437.77 24.4697 435.889 26.9307 435.889ZM54.7568 439.528C54.458 435.608 51.417 432.496 46.4951 432.496C41.0811 432.496 37.5654 436.24 37.5654 442.199C37.5654 448.246 41.0811 451.885 46.5303 451.885C51.2061 451.885 54.4229 449.143 54.7744 444.977H50.6436C50.2393 447.086 48.7979 448.352 46.583 448.352C43.8057 448.352 42.0127 446.102 42.0127 442.199C42.0127 438.367 43.7881 436.047 46.5479 436.047C48.8857 436.047 50.2744 437.541 50.626 439.528H54.7568ZM57.5166 451.516H61.8936V440.811C61.8936 438.069 63.4932 436.24 66.1299 436.24C68.6611 436.24 69.9619 437.805 69.9619 440.406V451.516H74.3389V439.51C74.3389 435.239 71.9307 432.531 67.8174 432.531C64.9873 432.531 62.9307 433.815 61.9287 436.082H61.8408V426.151H57.5166V451.516ZM77.8545 451.516H82.2314V440.723C82.2314 438.051 83.8311 436.24 86.3447 436.24C88.8408 436.24 90.0713 437.717 90.0713 440.354V451.516H94.4482V439.475C94.4482 435.168 92.1104 432.531 87.9971 432.531C85.1318 432.531 83.1455 433.867 82.1436 436.082H82.0557V432.883H77.8545V451.516ZM100.249 430.071C101.585 430.071 102.64 428.998 102.64 427.698C102.64 426.379 101.585 425.324 100.249 425.324C98.9131 425.324 97.8408 426.379 97.8408 427.698C97.8408 428.998 98.9131 430.071 100.249 430.071ZM98.0693 451.516H102.446V432.883H98.0693V451.516ZM122.538 439.528C122.239 435.608 119.198 432.496 114.276 432.496C108.862 432.496 105.347 436.24 105.347 442.199C105.347 448.246 108.862 451.885 114.312 451.885C118.987 451.885 122.204 449.143 122.556 444.977H118.425C118.021 447.086 116.579 448.352 114.364 448.352C111.587 448.352 109.794 446.102 109.794 442.199C109.794 438.367 111.569 436.047 114.329 436.047C116.667 436.047 118.056 437.541 118.407 439.528H122.538ZM130.659 451.815C133.05 451.815 135.388 450.567 136.46 448.545H136.548V451.516H140.767V438.684C140.767 434.94 137.761 432.496 133.138 432.496C128.392 432.496 125.421 434.992 125.228 438.473H129.288C129.569 436.926 130.888 435.924 132.962 435.924C135.124 435.924 136.442 437.049 136.442 439V440.336L131.521 440.617C126.985 440.899 124.437 442.885 124.437 446.19C124.437 449.547 127.056 451.815 130.659 451.815ZM131.978 448.51C130.079 448.51 128.813 447.543 128.813 446.014C128.813 444.537 130.026 443.588 132.136 443.448L136.442 443.184V444.608C136.442 446.858 134.456 448.51 131.978 448.51ZM144.423 451.516H148.8V426.151H144.423V451.516Z" fill="#F5F5F5"/>
</svg>
